<svg width="204" height="469" viewBox="0 0 204 469" fill="none" xmlns="http://www.w3.org/2000/svg">
<path d="M100.425 417.653L107.605 424.41L137.665 399.318L127.069 389.345L100.425 417.653Z" fill="#FFB6B6"/>
<path d="M113.497 446.872L109.508 428.269L114.343 423.131L111.741 420.954L103.658 414.219L101.681 412.563L83.0901 429.284L88.4792 434.35L94.2239 430.171L91.893 437.568L106.166 451.004C106.85 451.648 107.722 452.057 108.655 452.17C109.588 452.283 110.533 452.095 111.351 451.634C112.17 451.172 112.819 450.462 113.206 449.605C113.592 448.748 113.694 447.791 113.497 446.872V446.872Z" fill="white"/>
<path d="M65.4274 443.782L75.1744 445.264L85.6544 407.535L71.2694 405.349L65.4274 443.782Z" fill="#FFB6B6"/>
<path d="M92.7857 460.399L78.9328 447.357L79.993 440.382L76.6138 440.069L66.1362 439.119L63.5685 438.88L57.7704 463.203L65.0834 464.31L67.4363 457.607L69.7214 465.019L89.1005 467.966C90.0295 468.107 90.9793 467.947 91.8112 467.51C92.6431 467.073 93.3137 466.382 93.7252 465.537C94.1366 464.693 94.2673 463.738 94.0983 462.814C93.9293 461.89 93.4694 461.044 92.7856 460.399L92.7857 460.399Z" fill="white"/>
<path d="M159.197 175.764L187.15 225.828C187.15 225.828 185.984 328.793 189.698 332.612C193.413 336.431 196.777 339.856 193.413 339.825C190.05 339.794 191.135 364.152 191.135 364.152L129.135 412.152L114.135 400.152L151.766 353.703L130.984 258.626C130.984 258.626 116.053 348.539 113.363 351.23C110.672 353.921 109.049 353.902 111.878 356.602C114.708 359.303 111.878 365.41 111.878 365.41L82.3807 426.631L66.3807 424.613C66.3807 424.613 69.1545 374.634 78.8137 353.178V251.783C78.0861 260.477 112.117 172.487 91.3067 179.092C97.8906 177.002 159.197 175.764 159.197 175.764Z" fill="white"/>
<path d="M146.374 56.4558H123.266L119.994 69.5426L102.226 74.4558C102.226 74.4558 93.4378 132.736 100.819 137.437C108.2 142.138 103.053 156.842 103.053 156.842C103.053 156.842 84.6722 176.694 86.8779 179.635C89.0837 182.576 93.5586 178.101 88.3801 183.279C83.2017 188.458 80.2607 187.722 81.7312 189.193C82.6404 190.126 83.3452 191.238 83.8005 192.458L77.4587 208.971C77.4587 208.971 111.141 215.662 128.051 206.103C144.962 196.545 182.459 214.926 182.459 214.926C182.459 214.926 180.53 205.276 178.921 203.851C177.312 202.427 173.561 206.028 176.172 201.287C178.783 196.545 180.989 198.751 178.783 196.545C176.577 194.34 167.019 164.93 167.019 164.93C167.019 164.93 159.667 148.755 167.754 142.138C175.842 135.52 178.921 113.816 178.921 113.816L169.226 74.4558L153.049 70.8194L146.374 56.4558Z" fill="#6C63FF"/>
<path d="M54.8994 206.722L60.4496 184.476L48.1837 179.532L43.1525 203.261C42.0048 204.11 41.1166 205.263 40.588 206.589C40.0594 207.916 39.9112 209.363 40.1602 210.769C40.4091 212.175 41.0453 213.484 41.9973 214.548C42.9492 215.612 44.1791 216.39 45.5487 216.793C46.9184 217.197 48.3734 217.21 49.7503 216.832C51.1272 216.454 52.3713 215.7 53.3428 214.653C54.3143 213.607 54.9746 212.31 55.2496 210.909C55.5246 209.508 55.4033 208.058 54.8994 206.722V206.722Z" fill="#FFB6B6"/>
<path d="M108.811 72.9687L108.445 72.9057C105.04 72.3207 101.544 72.5744 98.2584 73.6451C94.9732 74.7157 91.9985 76.5709 89.5918 79.05C83.309 85.5139 55.2626 133.585 56.2721 141.619C57.2135 149.111 57.5759 147.444 54.1498 151.27C50.7238 155.095 49.42 149.27 49.3672 157.234C49.3144 165.199 52.3576 165.129 49.123 167.077C45.8884 169.024 43.7496 167.668 44.3404 173.041C44.9312 178.414 44.0268 179.84 43.8354 181.718C43.6439 183.596 39 195.647 39 195.647C39 195.647 52.668 199.317 58.18 204.813C58.18 204.813 58.807 191.214 61.5895 189.98C64.372 188.745 66.963 189.389 66.1807 185.894C65.3984 182.398 61.3815 180.85 66.3028 180.972C71.224 181.094 78.8253 154.924 78.8253 154.924L111.694 94.9548L108.811 72.9687Z" fill="#6C63FF"/>
<path d="M182.987 217.742L183.975 194.835L197.139 193.574L195.233 217.755C196.093 218.895 196.618 220.252 196.749 221.674C196.879 223.096 196.611 224.526 195.973 225.803C195.336 227.081 194.354 228.156 193.14 228.906C191.925 229.657 190.525 230.053 189.097 230.052C187.669 230.05 186.27 229.651 185.057 228.898C183.844 228.145 182.865 227.068 182.23 225.789C181.596 224.51 181.33 223.079 181.464 221.658C181.597 220.236 182.125 218.88 182.987 217.742V217.742Z" fill="#FFB6B6"/>
<path d="M169.226 74.1903L169.595 74.2337C173.027 74.6386 176.308 75.8737 179.154 77.8321C182.001 79.7905 184.327 82.4133 185.932 85.4732C190.123 93.4537 203.383 147.505 200.136 154.923C197.109 161.841 197.234 160.14 199.434 164.78C201.635 169.42 204.537 164.203 202.329 171.856C200.12 179.508 197.222 178.578 199.771 181.363C202.321 184.148 204.756 183.454 202.666 188.439C200.575 193.424 201.038 195.048 200.689 196.903C200.34 198.759 201.375 211.632 201.375 211.632C201.375 211.632 187.227 211.274 180.383 214.981C180.383 214.981 183.639 201.763 181.321 199.79C179.003 197.817 176.335 197.699 178.077 194.569C179.818 191.439 184.109 191.094 179.356 189.815C174.602 188.537 174.736 161.285 174.736 161.285L160.226 94.4559L169.226 74.1903Z" fill="#6C63FF"/>
<path d="M82.3135 41.0152C82.1302 48.903 85.078 56.5407 89.3128 63.2492C90.7275 59.3539 92.7085 55.6883 95.192 52.3707C94.0028 59.7211 95.2695 67.2586 98.7959 73.8166C98.9203 73.9055 99.0491 73.9881 99.1817 74.064C102.634 76.1404 107.01 76.9814 110.744 75.4817C103.029 67.1652 102.047 53.386 108.515 44.0577C110.346 41.4108 112.715 39.0698 113.849 36.0575C115.64 31.2513 113.918 25.9595 112.832 20.9485C111.817 16.2848 111.639 10.7349 114.768 7.31697C114.434 6.83933 113.979 6.45911 113.449 6.21531C112.92 5.9715 112.335 5.87286 111.755 5.92949C109.825 6.20199 108.421 7.87877 107.527 9.60576C106.633 11.3327 106.043 13.2468 104.796 14.7383C102.488 17.5303 98.5576 18.1903 95.2452 19.6618C87.2231 23.2349 82.5058 32.2383 82.3135 41.0152Z" fill="#4B5563"/>
<path d="M149.839 36.5053C149.381 34.9008 152.541 44.7086 151.016 44.8857C144.072 45.6824 134.539 49.8297 129.702 51.7645C129.484 51.7392 129.266 51.7139 129.055 51.6823C128.536 51.6254 128.03 51.5432 127.53 51.4484C116.268 49.3175 111.937 32.0176 111.937 31.8595C111.937 31.0818 113.804 9.72113 116.744 9.40498C117.517 9.32118 118.293 9.27897 119.07 9.27852H126.367C127.876 8.95316 129.407 8.73134 130.947 8.61461H130.96C145.649 7.49543 157.232 16.4488 156.149 27.3433C156.143 27.3559 156.13 27.3686 156.123 27.3812C155.809 27.8491 155.534 28.2918 155.291 28.7154C155.054 29.1137 154.855 29.4931 154.682 29.8535C153.343 32.6357 156.785 36.1364 154.503 36.7899C151.467 37.6589 162.485 66.2234 150.472 66.2234C156.315 67.8848 151.104 40.9314 149.839 36.5053Z" fill="#4B5563"/>
<path d="M136.726 53.2657C146.267 53.2657 154.002 45.531 154.002 35.9899C154.002 26.4487 146.267 18.7141 136.726 18.7141C127.185 18.7141 119.45 26.4487 119.45 35.9899C119.45 45.531 127.185 53.2657 136.726 53.2657Z" fill="#FFB6B6"/>
<path d="M156.149 28.2854C155.861 28.4371 155.579 28.5762 155.291 28.7153C154.989 28.8608 154.688 29.0062 154.387 29.139C148.602 31.763 143.894 32.0539 141.037 28.2854C140.96 26.3025 140.515 24.3512 139.723 22.5314C139.863 24.565 139.327 26.5878 138.199 28.2854H132.446C126.52 32.2183 123.477 32.6293 127.59 45.5408C128.737 49.1386 133.296 70.074 131.503 73.1786C130.984 73.1217 125.463 50.191 124.963 50.0961C113.701 47.9653 106.546 29.4109 107.462 28.3613C107.457 25.3765 108.144 22.4311 109.467 19.7557C111.141 16.3661 113.751 13.5269 116.988 11.5737C118.917 10.6382 120.929 9.88256 122.997 9.31642C123.048 9.30376 123.093 9.29109 123.144 9.27847C123.778 9.10774 124.425 8.94967 125.072 8.81688C126.409 8.53464 127.761 8.32987 129.121 8.20357C129.217 8.19725 129.313 8.19092 129.403 8.19092C129.946 8.19219 130.479 8.33843 130.947 8.61456C130.953 8.61456 130.953 8.62086 130.96 8.62086C131.294 8.81618 131.586 9.0763 131.818 9.38596C132.227 9.90696 132.448 10.5509 132.446 11.2133H138.852C139.089 11.2133 139.326 11.2196 139.563 11.2323C143.839 11.3784 147.906 13.1147 150.969 16.1015C154.032 19.0884 155.87 23.1106 156.123 27.3812C156.143 27.6847 156.149 27.9818 156.149 28.2854Z" fill="#4B5563"/>
<path d="M118.376 22.7628C124.662 22.7628 129.758 17.6672 129.758 11.3814C129.758 5.09562 124.662 0 118.376 0C112.091 0 106.995 5.09562 106.995 11.3814C106.995 17.6672 112.091 22.7628 118.376 22.7628Z" fill="#4B5563"/>
<path d="M105.568 298.051H9.4108C4.2216 298.051 0 294.71 0 290.604V215.446C0 211.34 4.2216 208 9.4108 208H105.568C110.757 208 114.979 211.34 114.979 215.446V290.604C114.979 294.71 110.757 298.051 105.568 298.051Z" fill="#353F4E"/>
<path d="M27.3184 210.219C13.7795 210.219 2.80408 218.903 2.80408 229.616V289.009C2.80408 292.777 6.66434 295.832 11.4262 295.832H70.2237C93.3927 295.832 112.175 280.97 112.175 262.637V217.041C112.175 213.273 108.315 210.219 103.553 210.219H27.3184V210.219V210.219Z" fill="#4B5563"/>
<path d="M28.3756 248H25.5756L19.2356 238.42V248H16.4356V234.02H19.2356L25.5756 243.62V234.02H28.3756V248ZM36.0626 248.18C34.996 248.18 34.036 247.947 33.1826 247.48C32.3293 247 31.656 246.327 31.1626 245.46C30.6826 244.593 30.4426 243.593 30.4426 242.46C30.4426 241.327 30.6893 240.327 31.1826 239.46C31.6893 238.593 32.376 237.927 33.2426 237.46C34.1093 236.98 35.076 236.74 36.1426 236.74C37.2093 236.74 38.176 236.98 39.0426 237.46C39.9093 237.927 40.5893 238.593 41.0826 239.46C41.5893 240.327 41.8426 241.327 41.8426 242.46C41.8426 243.593 41.5826 244.593 41.0626 245.46C40.556 246.327 39.8626 247 38.9826 247.48C38.116 247.947 37.1426 248.18 36.0626 248.18ZM36.0626 245.74C36.5693 245.74 37.0426 245.62 37.4826 245.38C37.936 245.127 38.296 244.753 38.5626 244.26C38.8293 243.767 38.9626 243.167 38.9626 242.46C38.9626 241.407 38.6826 240.6 38.1226 240.04C37.576 239.467 36.9026 239.18 36.1026 239.18C35.3026 239.18 34.6293 239.467 34.0826 240.04C33.5493 240.6 33.2826 241.407 33.2826 242.46C33.2826 243.513 33.5426 244.327 34.0626 244.9C34.596 245.46 35.2626 245.74 36.0626 245.74ZM53.4822 248.14C52.5088 248.14 51.6288 247.973 50.8422 247.64C50.0688 247.307 49.4555 246.827 49.0022 246.2C48.5488 245.573 48.3155 244.833 48.3022 243.98H51.3022C51.3422 244.553 51.5422 245.007 51.9022 245.34C52.2755 245.673 52.7822 245.84 53.4222 245.84C54.0755 245.84 54.5888 245.687 54.9622 245.38C55.3355 245.06 55.5222 244.647 55.5222 244.14C55.5222 243.727 55.3955 243.387 55.1422 243.12C54.8888 242.853 54.5688 242.647 54.1822 242.5C53.8088 242.34 53.2888 242.167 52.6222 241.98C51.7155 241.713 50.9755 241.453 50.4022 241.2C49.8422 240.933 49.3555 240.54 48.9422 240.02C48.5422 239.487 48.3422 238.78 48.3422 237.9C48.3422 237.073 48.5488 236.353 48.9622 235.74C49.3755 235.127 49.9555 234.66 50.7022 234.34C51.4488 234.007 52.3022 233.84 53.2622 233.84C54.7022 233.84 55.8688 234.193 56.7622 234.9C57.6688 235.593 58.1688 236.567 58.2622 237.82H55.1822C55.1555 237.34 54.9488 236.947 54.5622 236.64C54.1888 236.32 53.6888 236.16 53.0622 236.16C52.5155 236.16 52.0755 236.3 51.7422 236.58C51.4222 236.86 51.2622 237.267 51.2622 237.8C51.2622 238.173 51.3822 238.487 51.6222 238.74C51.8755 238.98 52.1822 239.18 52.5422 239.34C52.9155 239.487 53.4355 239.66 54.1022 239.86C55.0088 240.127 55.7488 240.393 56.3222 240.66C56.8955 240.927 57.3888 241.327 57.8022 241.86C58.2155 242.393 58.4222 243.093 58.4222 243.96C58.4222 244.707 58.2288 245.4 57.8422 246.04C57.4555 246.68 56.8888 247.193 56.1422 247.58C55.3955 247.953 54.5088 248.14 53.4822 248.14ZM67.0897 236.76C67.9297 236.76 68.6763 236.947 69.3297 237.32C69.983 237.68 70.4897 238.22 70.8497 238.94C71.223 239.647 71.4097 240.5 71.4097 241.5V248H68.6097V241.88C68.6097 241 68.3897 240.327 67.9497 239.86C67.5097 239.38 66.9097 239.14 66.1497 239.14C65.3763 239.14 64.763 239.38 64.3097 239.86C63.8697 240.327 63.6497 241 63.6497 241.88V248H60.8497V233.2H63.6497V238.3C64.0097 237.82 64.4897 237.447 65.0897 237.18C65.6897 236.9 66.3563 236.76 67.0897 236.76ZM78.9923 248.18C77.9257 248.18 76.9657 247.947 76.1123 247.48C75.259 247 74.5857 246.327 74.0923 245.46C73.6123 244.593 73.3723 243.593 73.3723 242.46C73.3723 241.327 73.619 240.327 74.1123 239.46C74.619 238.593 75.3057 237.927 76.1723 237.46C77.039 236.98 78.0057 236.74 79.0723 236.74C80.139 236.74 81.1057 236.98 81.9723 237.46C82.839 237.927 83.519 238.593 84.0123 239.46C84.519 240.327 84.7723 241.327 84.7723 242.46C84.7723 243.593 84.5123 244.593 83.9923 245.46C83.4857 246.327 82.7923 247 81.9123 247.48C81.0457 247.947 80.0723 248.18 78.9923 248.18ZM78.9923 245.74C79.499 245.74 79.9723 245.62 80.4123 245.38C80.8657 245.127 81.2257 244.753 81.4923 244.26C81.759 243.767 81.8923 243.167 81.8923 242.46C81.8923 241.407 81.6123 240.6 81.0523 240.04C80.5057 239.467 79.8323 239.18 79.0323 239.18C78.2323 239.18 77.559 239.467 77.0123 240.04C76.479 240.6 76.2123 241.407 76.2123 242.46C76.2123 243.513 76.4723 244.327 76.9923 244.9C77.5257 245.46 78.1923 245.74 78.9923 245.74ZM89.6262 238.52C89.9862 238.013 90.4796 237.593 91.1062 237.26C91.7462 236.913 92.4729 236.74 93.2862 236.74C94.2329 236.74 95.0862 236.973 95.8462 237.44C96.6196 237.907 97.2262 238.573 97.6662 239.44C98.1196 240.293 98.3462 241.287 98.3462 242.42C98.3462 243.553 98.1196 244.56 97.6662 245.44C97.2262 246.307 96.6196 246.98 95.8462 247.46C95.0862 247.94 94.2329 248.18 93.2862 248.18C92.4729 248.18 91.7529 248.013 91.1262 247.68C90.5129 247.347 90.0129 246.927 89.6262 246.42V253.28H86.8262V236.92H89.6262V238.52ZM95.4862 242.42C95.4862 241.753 95.3462 241.18 95.0662 240.7C94.7996 240.207 94.4396 239.833 93.9862 239.58C93.5462 239.327 93.0662 239.2 92.5462 239.2C92.0396 239.2 91.5596 239.333 91.1062 239.6C90.6662 239.853 90.3062 240.227 90.0262 240.72C89.7596 241.213 89.6262 241.793 89.6262 242.46C89.6262 243.127 89.7596 243.707 90.0262 244.2C90.3062 244.693 90.6662 245.073 91.1062 245.34C91.5596 245.593 92.0396 245.72 92.5462 245.72C93.0662 245.72 93.5462 245.587 93.9862 245.32C94.4396 245.053 94.7996 244.673 95.0662 244.18C95.3462 243.687 95.4862 243.1 95.4862 242.42ZM29.0387 278.14C27.732 278.14 26.532 277.833 25.4387 277.22C24.3453 276.607 23.4787 275.76 22.8387 274.68C22.1987 273.587 21.8787 272.353 21.8787 270.98C21.8787 269.62 22.1987 268.4 22.8387 267.32C23.4787 266.227 24.3453 265.373 25.4387 264.76C26.532 264.147 27.732 263.84 29.0387 263.84C30.3587 263.84 31.5587 264.147 32.6387 264.76C33.732 265.373 34.592 266.227 35.2187 267.32C35.8587 268.4 36.1787 269.62 36.1787 270.98C36.1787 272.353 35.8587 273.587 35.2187 274.68C34.592 275.76 33.732 276.607 32.6387 277.22C31.5453 277.833 30.3453 278.14 29.0387 278.14ZM29.0387 275.64C29.8787 275.64 30.6187 275.453 31.2587 275.08C31.8987 274.693 32.3987 274.147 32.7587 273.44C33.1187 272.733 33.2987 271.913 33.2987 270.98C33.2987 270.047 33.1187 269.233 32.7587 268.54C32.3987 267.833 31.8987 267.293 31.2587 266.92C30.6187 266.547 29.8787 266.36 29.0387 266.36C28.1987 266.36 27.452 266.547 26.7987 266.92C26.1587 267.293 25.6587 267.833 25.2987 268.54C24.9387 269.233 24.7587 270.047 24.7587 270.98C24.7587 271.913 24.9387 272.733 25.2987 273.44C25.6587 274.147 26.1587 274.693 26.7987 275.08C27.452 275.453 28.1987 275.64 29.0387 275.64ZM53.6218 266.92L50.3818 278H47.3618L45.3418 270.26L43.3218 278H40.2818L37.0218 266.92H39.8618L41.8218 275.36L43.9418 266.92H46.9018L48.9818 275.34L50.9418 266.92H53.6218ZM61.2768 266.76C62.5968 266.76 63.6634 267.18 64.4768 268.02C65.2901 268.847 65.6968 270.007 65.6968 271.5V278H62.8968V271.88C62.8968 271 62.6768 270.327 62.2368 269.86C61.7968 269.38 61.1968 269.14 60.4368 269.14C59.6634 269.14 59.0501 269.38 58.5968 269.86C58.1568 270.327 57.9368 271 57.9368 271.88V278H55.1368V266.92H57.9368V268.3C58.3101 267.82 58.7834 267.447 59.3568 267.18C59.9434 266.9 60.5834 266.76 61.2768 266.76ZM78.6594 272.22C78.6594 272.62 78.6328 272.98 78.5794 273.3H70.4794C70.5461 274.1 70.8261 274.727 71.3194 275.18C71.8128 275.633 72.4194 275.86 73.1394 275.86C74.1794 275.86 74.9194 275.413 75.3594 274.52H78.3794C78.0594 275.587 77.4461 276.467 76.5394 277.16C75.6328 277.84 74.5194 278.18 73.1994 278.18C72.1328 278.18 71.1728 277.947 70.3194 277.48C69.4794 277 68.8194 276.327 68.3394 275.46C67.8728 274.593 67.6394 273.593 67.6394 272.46C67.6394 271.313 67.8728 270.307 68.3394 269.44C68.8061 268.573 69.4594 267.907 70.2994 267.44C71.1394 266.973 72.1061 266.74 73.1994 266.74C74.2528 266.74 75.1928 266.967 76.0194 267.42C76.8594 267.873 77.5061 268.52 77.9594 269.36C78.4261 270.187 78.6594 271.14 78.6594 272.22ZM75.7594 271.42C75.7461 270.7 75.4861 270.127 74.9794 269.7C74.4728 269.26 73.8528 269.04 73.1194 269.04C72.4261 269.04 71.8394 269.253 71.3594 269.68C70.8928 270.093 70.6061 270.673 70.4994 271.42H75.7594ZM79.9832 272.42C79.9832 271.3 80.2032 270.307 80.6432 269.44C81.0965 268.573 81.7098 267.907 82.4832 267.44C83.2565 266.973 84.1165 266.74 85.0632 266.74C85.7832 266.74 86.4698 266.9 87.1232 267.22C87.7765 267.527 88.2965 267.94 88.6832 268.46V263.2H91.5232V278H88.6832V276.36C88.3365 276.907 87.8498 277.347 87.2232 277.68C86.5965 278.013 85.8698 278.18 85.0432 278.18C84.1098 278.18 83.2565 277.94 82.4832 277.46C81.7098 276.98 81.0965 276.307 80.6432 275.44C80.2032 274.56 79.9832 273.553 79.9832 272.42ZM88.7032 272.46C88.7032 271.78 88.5698 271.2 88.3032 270.72C88.0365 270.227 87.6765 269.853 87.2232 269.6C86.7698 269.333 86.2832 269.2 85.7632 269.2C85.2432 269.2 84.7632 269.327 84.3232 269.58C83.8832 269.833 83.5232 270.207 83.2432 270.7C82.9765 271.18 82.8432 271.753 82.8432 272.42C82.8432 273.087 82.9765 273.673 83.2432 274.18C83.5232 274.673 83.8832 275.053 84.3232 275.32C84.7765 275.587 85.2565 275.72 85.7632 275.72C86.2832 275.72 86.7698 275.593 87.2232 275.34C87.6765 275.073 88.0365 274.7 88.3032 274.22C88.5698 273.727 88.7032 273.14 88.7032 272.46Z" fill="white"/>
</svg>
