<svg width="207" height="469" viewBox="0 0 207 469" fill="none" xmlns="http://www.w3.org/2000/svg">
<path d="M103.199 417.653L110.379 424.41L140.439 399.318L129.843 389.345L103.199 417.653Z" fill="#FFB6B6"/>
<path d="M116.271 446.872L112.282 428.269L117.117 423.131L114.514 420.954L106.432 414.219L104.455 412.563L85.8638 429.284L91.2529 434.35L96.9976 430.171L94.6667 437.568L108.94 451.004C109.624 451.648 110.496 452.057 111.429 452.17C112.362 452.283 113.306 452.095 114.125 451.634C114.943 451.172 115.593 450.462 115.979 449.605C116.365 448.748 116.468 447.791 116.271 446.872V446.872Z" fill="#2F2E41"/>
<path d="M68.201 443.782L77.948 445.264L88.4281 407.535L74.043 405.349L68.201 443.782Z" fill="#FFB6B6"/>
<path d="M95.5594 460.399L81.7065 447.357L82.7667 440.382L79.3875 440.069L68.9099 439.119L66.3422 438.88L60.5441 463.203L67.8571 464.31L70.21 457.607L72.4951 465.019L91.8742 467.966C92.8032 468.107 93.753 467.947 94.5849 467.51C95.4168 467.073 96.0874 466.382 96.4988 465.537C96.9103 464.693 97.041 463.738 96.872 462.814C96.703 461.89 96.2431 461.044 95.5593 460.399L95.5594 460.399Z" fill="#2F2E41"/>
<path d="M161.971 175.764L189.924 225.828C189.924 225.828 188.757 328.793 192.472 332.612C196.187 336.431 199.55 339.856 196.187 339.825C192.823 339.794 193.909 364.152 193.909 364.152L131.909 412.152L116.909 400.152L154.54 353.703L133.757 258.626C133.757 258.626 118.827 348.539 116.136 351.23C113.445 353.921 111.822 353.902 114.652 356.602C117.482 359.303 114.652 365.41 114.652 365.41L85.1544 426.631L69.1544 424.613C69.1544 424.613 71.9282 374.634 81.5874 353.178V251.783C80.8598 260.477 114.891 172.487 94.0804 179.092C100.664 177.002 161.971 175.764 161.971 175.764Z" fill="#2F2E41"/>
<path d="M149.148 56.4558H126.039L122.768 69.5426L105 74.4558C105 74.4558 96.2115 132.736 103.593 137.437C110.974 142.138 105.827 156.842 105.827 156.842C105.827 156.842 87.4459 176.694 89.6516 179.635C91.8573 182.576 96.3322 178.101 91.1538 183.279C85.9754 188.458 83.0344 187.722 84.5049 189.193C85.4141 190.126 86.1189 191.238 86.5742 192.458L80.2324 208.971C80.2324 208.971 113.915 215.662 130.825 206.103C147.736 196.545 185.233 214.926 185.233 214.926C185.233 214.926 183.304 205.276 181.695 203.851C180.086 202.427 176.335 206.028 178.946 201.287C181.557 196.545 183.762 198.751 181.557 196.545C179.351 194.34 169.793 164.93 169.793 164.93C169.793 164.93 162.44 148.755 170.528 142.138C178.616 135.52 181.695 113.816 181.695 113.816L172 74.4558L155.823 70.8194L149.148 56.4558Z" fill="#6C63FF"/>
<path d="M57.6731 206.722L63.2233 184.476L50.9574 179.532L45.9262 203.261C44.7784 204.11 43.8903 205.263 43.3617 206.589C42.8331 207.916 42.6849 209.363 42.9339 210.769C43.1828 212.175 43.819 213.484 44.771 214.548C45.7229 215.612 46.9528 216.39 48.3224 216.793C49.692 217.197 51.1471 217.21 52.524 216.832C53.9009 216.454 55.145 215.7 56.1165 214.653C57.088 213.607 57.7483 212.31 58.0233 210.909C58.2983 209.508 58.177 208.058 57.6731 206.722V206.722Z" fill="#FFB6B6"/>
<path d="M111.585 72.9687L111.219 72.9057C107.814 72.3207 104.317 72.5744 101.032 73.6451C97.7469 74.7157 94.7722 76.5709 92.3655 79.05C86.0827 85.5139 58.0363 133.585 59.0458 141.619C59.9872 149.111 60.3496 147.444 56.9235 151.27C53.4975 155.095 52.1937 149.27 52.1409 157.234C52.0881 165.199 55.1313 165.129 51.8967 167.077C48.6621 169.024 46.5233 167.668 47.1141 173.041C47.7049 178.414 46.8005 179.84 46.6091 181.718C46.4176 183.596 41.7737 195.647 41.7737 195.647C41.7737 195.647 55.4416 199.317 60.9536 204.813C60.9536 204.813 61.5807 191.214 64.3632 189.98C67.1457 188.745 69.7367 189.389 68.9544 185.894C68.1721 182.398 64.1552 180.85 69.0764 180.972C73.9977 181.094 81.599 154.924 81.599 154.924L114.467 94.9548L111.585 72.9687Z" fill="#6C63FF"/>
<path d="M185.761 217.742L186.748 194.835L199.913 193.574L198.007 217.755C198.867 218.895 199.392 220.252 199.522 221.674C199.653 223.096 199.384 224.526 198.747 225.803C198.109 227.081 197.128 228.156 195.913 228.906C194.699 229.657 193.299 230.053 191.871 230.052C190.443 230.05 189.044 229.651 187.831 228.898C186.618 228.145 185.639 227.068 185.004 225.789C184.369 224.51 184.104 223.079 184.237 221.658C184.371 220.236 184.899 218.88 185.761 217.742V217.742Z" fill="#FFB6B6"/>
<path d="M172 74.1903L172.369 74.2337C175.8 74.6386 179.081 75.8737 181.928 77.8321C184.774 79.7905 187.101 82.4133 188.706 85.4732C192.897 93.4537 206.157 147.505 202.91 154.923C199.882 161.841 200.008 160.14 202.208 164.78C204.408 169.42 207.311 164.203 205.102 171.856C202.894 179.508 199.996 178.578 202.545 181.363C205.094 184.148 207.53 183.454 205.439 188.439C203.349 193.424 203.812 195.048 203.462 196.903C203.113 198.759 204.149 211.632 204.149 211.632C204.149 211.632 190.001 211.274 183.156 214.981C183.156 214.981 186.412 201.763 184.094 199.79C181.776 197.817 179.109 197.699 180.851 194.569C182.592 191.439 186.883 191.094 182.129 189.815C177.376 188.537 177.509 161.285 177.509 161.285L163 94.4559L172 74.1903Z" fill="#6C63FF"/>
<path d="M85.0872 41.0152C84.9039 48.903 87.8517 56.5407 92.0865 63.2492C93.5011 59.3539 95.4821 55.6883 97.9657 52.3707C96.7765 59.7211 98.0432 67.2586 101.57 73.8166C101.694 73.9055 101.823 73.9881 101.955 74.064C105.407 76.1404 109.783 76.9814 113.517 75.4817C105.802 67.1652 104.82 53.386 111.289 44.0577C113.12 41.4108 115.489 39.0698 116.623 36.0575C118.414 31.2513 116.692 25.9595 115.606 20.9485C114.591 16.2848 114.413 10.7349 117.542 7.31697C117.208 6.83933 116.752 6.45911 116.223 6.21531C115.693 5.9715 115.108 5.87286 114.528 5.92949C112.599 6.20199 111.195 7.87877 110.301 9.60576C109.406 11.3327 108.816 13.2468 107.57 14.7383C105.262 17.5303 101.331 18.1903 98.0188 19.6618C89.9968 23.2349 85.2795 32.2383 85.0872 41.0152Z" fill="#2F2E41"/>
<path d="M152.613 36.5053C152.155 34.9008 155.314 44.7086 153.79 44.8857C146.845 45.6824 137.312 49.8297 132.476 51.7645C132.258 51.7392 132.04 51.7139 131.829 51.6823C131.31 51.6254 130.804 51.5432 130.304 51.4484C119.042 49.3175 114.711 32.0176 114.711 31.8595C114.711 31.0818 116.578 9.72113 119.518 9.40498C120.29 9.32118 121.067 9.27897 121.844 9.27852H129.14C130.65 8.95316 132.18 8.73134 133.721 8.61461H133.733C148.423 7.49543 160.005 16.4488 158.923 27.3433C158.916 27.3559 158.903 27.3686 158.897 27.3812C158.583 27.8491 158.308 28.2918 158.064 28.7154C157.827 29.1137 157.629 29.4931 157.456 29.8535C156.117 32.6357 159.558 36.1364 157.276 36.7899C154.241 37.6589 165.259 66.2234 153.245 66.2234C159.089 67.8848 153.878 40.9314 152.613 36.5053Z" fill="#2F2E41"/>
<path d="M139.5 53.2657C149.041 53.2657 156.776 45.531 156.776 35.9899C156.776 26.4487 149.041 18.7141 139.5 18.7141C129.959 18.7141 122.224 26.4487 122.224 35.9899C122.224 45.531 129.959 53.2657 139.5 53.2657Z" fill="#FFB6B6"/>
<path d="M158.923 28.2854C158.634 28.4371 158.352 28.5762 158.064 28.7153C157.763 28.8608 157.462 29.0062 157.161 29.139C151.376 31.763 146.668 32.0539 143.81 28.2854C143.734 26.3025 143.288 24.3512 142.497 22.5314C142.637 24.565 142.101 26.5878 140.972 28.2854H135.22C129.294 32.2183 126.251 32.6293 130.364 45.5408C131.51 49.1386 136.07 70.074 134.276 73.1786C133.757 73.1217 128.237 50.191 127.737 50.0961C116.475 47.9653 109.319 29.4109 110.235 28.3613C110.231 25.3765 110.917 22.4311 112.241 19.7557C113.915 16.3661 116.525 13.5269 119.761 11.5737C121.691 10.6382 123.702 9.88256 125.77 9.31642C125.822 9.30376 125.867 9.29109 125.918 9.27847C126.552 9.10774 127.199 8.94967 127.846 8.81688C129.183 8.53464 130.534 8.32987 131.895 8.20357C131.991 8.19725 132.087 8.19092 132.177 8.19092C132.72 8.19219 133.253 8.33843 133.721 8.61456C133.727 8.61456 133.727 8.62086 133.733 8.62086C134.068 8.81618 134.359 9.0763 134.592 9.38596C135.001 9.90696 135.222 10.5509 135.22 11.2133H141.626C141.863 11.2133 142.1 11.2196 142.337 11.2323C146.612 11.3784 150.68 13.1147 153.743 16.1015C156.805 19.0884 158.643 23.1106 158.897 27.3812C158.916 27.6847 158.923 27.9818 158.923 28.2854Z" fill="#2F2E41"/>
<path d="M121.15 22.7628C127.436 22.7628 132.531 17.6672 132.531 11.3814C132.531 5.09562 127.436 0 121.15 0C114.864 0 109.769 5.09562 109.769 11.3814C109.769 17.6672 114.864 22.7628 121.15 22.7628Z" fill="#2F2E41"/>
<path d="M105.568 298.051H9.4108C4.2216 298.051 0 294.71 0 290.604V215.446C0 211.34 4.2216 208 9.4108 208H105.568C110.757 208 114.979 211.34 114.979 215.446V290.604C114.979 294.71 110.757 298.051 105.568 298.051Z" fill="#E6E6E6"/>
<path d="M27.3184 210.219C13.7795 210.219 2.80408 218.903 2.80408 229.616V289.009C2.80408 292.777 6.66434 295.832 11.4262 295.832H70.2237C93.3927 295.832 112.175 280.97 112.175 262.637V217.041C112.175 213.273 108.315 210.219 103.553 210.219H27.3184V210.219V210.219Z" fill="white"/>
<path d="M28.3756 248H25.5756L19.2356 238.42V248H16.4356V234.02H19.2356L25.5756 243.62V234.02H28.3756V248ZM36.0626 248.18C34.996 248.18 34.036 247.947 33.1826 247.48C32.3293 247 31.656 246.327 31.1626 245.46C30.6826 244.593 30.4426 243.593 30.4426 242.46C30.4426 241.327 30.6893 240.327 31.1826 239.46C31.6893 238.593 32.376 237.927 33.2426 237.46C34.1093 236.98 35.076 236.74 36.1426 236.74C37.2093 236.74 38.176 236.98 39.0426 237.46C39.9093 237.927 40.5893 238.593 41.0826 239.46C41.5893 240.327 41.8426 241.327 41.8426 242.46C41.8426 243.593 41.5826 244.593 41.0626 245.46C40.556 246.327 39.8626 247 38.9826 247.48C38.116 247.947 37.1426 248.18 36.0626 248.18ZM36.0626 245.74C36.5693 245.74 37.0426 245.62 37.4826 245.38C37.936 245.127 38.296 244.753 38.5626 244.26C38.8293 243.767 38.9626 243.167 38.9626 242.46C38.9626 241.407 38.6826 240.6 38.1226 240.04C37.576 239.467 36.9026 239.18 36.1026 239.18C35.3026 239.18 34.6293 239.467 34.0826 240.04C33.5493 240.6 33.2826 241.407 33.2826 242.46C33.2826 243.513 33.5426 244.327 34.0626 244.9C34.596 245.46 35.2626 245.74 36.0626 245.74ZM53.4822 248.14C52.5088 248.14 51.6288 247.973 50.8422 247.64C50.0688 247.307 49.4555 246.827 49.0022 246.2C48.5488 245.573 48.3155 244.833 48.3022 243.98H51.3022C51.3422 244.553 51.5422 245.007 51.9022 245.34C52.2755 245.673 52.7822 245.84 53.4222 245.84C54.0755 245.84 54.5888 245.687 54.9622 245.38C55.3355 245.06 55.5222 244.647 55.5222 244.14C55.5222 243.727 55.3955 243.387 55.1422 243.12C54.8888 242.853 54.5688 242.647 54.1822 242.5C53.8088 242.34 53.2888 242.167 52.6222 241.98C51.7155 241.713 50.9755 241.453 50.4022 241.2C49.8422 240.933 49.3555 240.54 48.9422 240.02C48.5422 239.487 48.3422 238.78 48.3422 237.9C48.3422 237.073 48.5488 236.353 48.9622 235.74C49.3755 235.127 49.9555 234.66 50.7022 234.34C51.4488 234.007 52.3022 233.84 53.2622 233.84C54.7022 233.84 55.8688 234.193 56.7622 234.9C57.6688 235.593 58.1688 236.567 58.2622 237.82H55.1822C55.1555 237.34 54.9488 236.947 54.5622 236.64C54.1888 236.32 53.6888 236.16 53.0622 236.16C52.5155 236.16 52.0755 236.3 51.7422 236.58C51.4222 236.86 51.2622 237.267 51.2622 237.8C51.2622 238.173 51.3822 238.487 51.6222 238.74C51.8755 238.98 52.1822 239.18 52.5422 239.34C52.9155 239.487 53.4355 239.66 54.1022 239.86C55.0088 240.127 55.7488 240.393 56.3222 240.66C56.8955 240.927 57.3888 241.327 57.8022 241.86C58.2155 242.393 58.4222 243.093 58.4222 243.96C58.4222 244.707 58.2288 245.4 57.8422 246.04C57.4555 246.68 56.8888 247.193 56.1422 247.58C55.3955 247.953 54.5088 248.14 53.4822 248.14ZM67.0897 236.76C67.9297 236.76 68.6763 236.947 69.3297 237.32C69.983 237.68 70.4897 238.22 70.8497 238.94C71.223 239.647 71.4097 240.5 71.4097 241.5V248H68.6097V241.88C68.6097 241 68.3897 240.327 67.9497 239.86C67.5097 239.38 66.9097 239.14 66.1497 239.14C65.3763 239.14 64.763 239.38 64.3097 239.86C63.8697 240.327 63.6497 241 63.6497 241.88V248H60.8497V233.2H63.6497V238.3C64.0097 237.82 64.4897 237.447 65.0897 237.18C65.6897 236.9 66.3563 236.76 67.0897 236.76ZM78.9923 248.18C77.9257 248.18 76.9657 247.947 76.1123 247.48C75.259 247 74.5857 246.327 74.0923 245.46C73.6123 244.593 73.3723 243.593 73.3723 242.46C73.3723 241.327 73.619 240.327 74.1123 239.46C74.619 238.593 75.3057 237.927 76.1723 237.46C77.039 236.98 78.0057 236.74 79.0723 236.74C80.139 236.74 81.1057 236.98 81.9723 237.46C82.839 237.927 83.519 238.593 84.0123 239.46C84.519 240.327 84.7723 241.327 84.7723 242.46C84.7723 243.593 84.5123 244.593 83.9923 245.46C83.4857 246.327 82.7923 247 81.9123 247.48C81.0457 247.947 80.0723 248.18 78.9923 248.18ZM78.9923 245.74C79.499 245.74 79.9723 245.62 80.4123 245.38C80.8657 245.127 81.2257 244.753 81.4923 244.26C81.759 243.767 81.8923 243.167 81.8923 242.46C81.8923 241.407 81.6123 240.6 81.0523 240.04C80.5057 239.467 79.8323 239.18 79.0323 239.18C78.2323 239.18 77.559 239.467 77.0123 240.04C76.479 240.6 76.2123 241.407 76.2123 242.46C76.2123 243.513 76.4723 244.327 76.9923 244.9C77.5257 245.46 78.1923 245.74 78.9923 245.74ZM89.6262 238.52C89.9862 238.013 90.4796 237.593 91.1062 237.26C91.7462 236.913 92.4729 236.74 93.2862 236.74C94.2329 236.74 95.0862 236.973 95.8462 237.44C96.6196 237.907 97.2262 238.573 97.6662 239.44C98.1196 240.293 98.3462 241.287 98.3462 242.42C98.3462 243.553 98.1196 244.56 97.6662 245.44C97.2262 246.307 96.6196 246.98 95.8462 247.46C95.0862 247.94 94.2329 248.18 93.2862 248.18C92.4729 248.18 91.7529 248.013 91.1262 247.68C90.5129 247.347 90.0129 246.927 89.6262 246.42V253.28H86.8262V236.92H89.6262V238.52ZM95.4862 242.42C95.4862 241.753 95.3462 241.18 95.0662 240.7C94.7996 240.207 94.4396 239.833 93.9862 239.58C93.5462 239.327 93.0662 239.2 92.5462 239.2C92.0396 239.2 91.5596 239.333 91.1062 239.6C90.6662 239.853 90.3062 240.227 90.0262 240.72C89.7596 241.213 89.6262 241.793 89.6262 242.46C89.6262 243.127 89.7596 243.707 90.0262 244.2C90.3062 244.693 90.6662 245.073 91.1062 245.34C91.5596 245.593 92.0396 245.72 92.5462 245.72C93.0662 245.72 93.5462 245.587 93.9862 245.32C94.4396 245.053 94.7996 244.673 95.0662 244.18C95.3462 243.687 95.4862 243.1 95.4862 242.42ZM29.0387 278.14C27.732 278.14 26.532 277.833 25.4387 277.22C24.3453 276.607 23.4787 275.76 22.8387 274.68C22.1987 273.587 21.8787 272.353 21.8787 270.98C21.8787 269.62 22.1987 268.4 22.8387 267.32C23.4787 266.227 24.3453 265.373 25.4387 264.76C26.532 264.147 27.732 263.84 29.0387 263.84C30.3587 263.84 31.5587 264.147 32.6387 264.76C33.732 265.373 34.592 266.227 35.2187 267.32C35.8587 268.4 36.1787 269.62 36.1787 270.98C36.1787 272.353 35.8587 273.587 35.2187 274.68C34.592 275.76 33.732 276.607 32.6387 277.22C31.5453 277.833 30.3453 278.14 29.0387 278.14ZM29.0387 275.64C29.8787 275.64 30.6187 275.453 31.2587 275.08C31.8987 274.693 32.3987 274.147 32.7587 273.44C33.1187 272.733 33.2987 271.913 33.2987 270.98C33.2987 270.047 33.1187 269.233 32.7587 268.54C32.3987 267.833 31.8987 267.293 31.2587 266.92C30.6187 266.547 29.8787 266.36 29.0387 266.36C28.1987 266.36 27.452 266.547 26.7987 266.92C26.1587 267.293 25.6587 267.833 25.2987 268.54C24.9387 269.233 24.7587 270.047 24.7587 270.98C24.7587 271.913 24.9387 272.733 25.2987 273.44C25.6587 274.147 26.1587 274.693 26.7987 275.08C27.452 275.453 28.1987 275.64 29.0387 275.64ZM53.6218 266.92L50.3818 278H47.3618L45.3418 270.26L43.3218 278H40.2818L37.0218 266.92H39.8618L41.8218 275.36L43.9418 266.92H46.9018L48.9818 275.34L50.9418 266.92H53.6218ZM61.2768 266.76C62.5968 266.76 63.6634 267.18 64.4768 268.02C65.2901 268.847 65.6968 270.007 65.6968 271.5V278H62.8968V271.88C62.8968 271 62.6768 270.327 62.2368 269.86C61.7968 269.38 61.1968 269.14 60.4368 269.14C59.6634 269.14 59.0501 269.38 58.5968 269.86C58.1568 270.327 57.9368 271 57.9368 271.88V278H55.1368V266.92H57.9368V268.3C58.3101 267.82 58.7834 267.447 59.3568 267.18C59.9434 266.9 60.5834 266.76 61.2768 266.76ZM78.6594 272.22C78.6594 272.62 78.6328 272.98 78.5794 273.3H70.4794C70.5461 274.1 70.8261 274.727 71.3194 275.18C71.8128 275.633 72.4194 275.86 73.1394 275.86C74.1794 275.86 74.9194 275.413 75.3594 274.52H78.3794C78.0594 275.587 77.4461 276.467 76.5394 277.16C75.6328 277.84 74.5194 278.18 73.1994 278.18C72.1328 278.18 71.1728 277.947 70.3194 277.48C69.4794 277 68.8194 276.327 68.3394 275.46C67.8728 274.593 67.6394 273.593 67.6394 272.46C67.6394 271.313 67.8728 270.307 68.3394 269.44C68.8061 268.573 69.4594 267.907 70.2994 267.44C71.1394 266.973 72.1061 266.74 73.1994 266.74C74.2528 266.74 75.1928 266.967 76.0194 267.42C76.8594 267.873 77.5061 268.52 77.9594 269.36C78.4261 270.187 78.6594 271.14 78.6594 272.22ZM75.7594 271.42C75.7461 270.7 75.4861 270.127 74.9794 269.7C74.4728 269.26 73.8528 269.04 73.1194 269.04C72.4261 269.04 71.8394 269.253 71.3594 269.68C70.8928 270.093 70.6061 270.673 70.4994 271.42H75.7594ZM79.9832 272.42C79.9832 271.3 80.2032 270.307 80.6432 269.44C81.0965 268.573 81.7098 267.907 82.4832 267.44C83.2565 266.973 84.1165 266.74 85.0632 266.74C85.7832 266.74 86.4698 266.9 87.1232 267.22C87.7765 267.527 88.2965 267.94 88.6832 268.46V263.2H91.5232V278H88.6832V276.36C88.3365 276.907 87.8498 277.347 87.2232 277.68C86.5965 278.013 85.8698 278.18 85.0432 278.18C84.1098 278.18 83.2565 277.94 82.4832 277.46C81.7098 276.98 81.0965 276.307 80.6432 275.44C80.2032 274.56 79.9832 273.553 79.9832 272.42ZM88.7032 272.46C88.7032 271.78 88.5698 271.2 88.3032 270.72C88.0365 270.227 87.6765 269.853 87.2232 269.6C86.7698 269.333 86.2832 269.2 85.7632 269.2C85.2432 269.2 84.7632 269.327 84.3232 269.58C83.8832 269.833 83.5232 270.207 83.2432 270.7C82.9765 271.18 82.8432 271.753 82.8432 272.42C82.8432 273.087 82.9765 273.673 83.2432 274.18C83.5232 274.673 83.8832 275.053 84.3232 275.32C84.7765 275.587 85.2565 275.72 85.7632 275.72C86.2832 275.72 86.7698 275.593 87.2232 275.34C87.6765 275.073 88.0365 274.7 88.3032 274.22C88.5698 273.727 88.7032 273.14 88.7032 272.46Z" fill="#2F2E41"/>
</svg>
