<svg width="367" height="581" viewBox="0 0 367 581" fill="none" xmlns="http://www.w3.org/2000/svg">
<path d="M340.344 580.068H15.6558C11.5051 580.06 7.52566 577.271 4.59063 572.312C1.65561 567.354 0.0046637 560.631 0 553.619V317.517C0.00471991 310.504 1.65567 303.782 4.59069 298.823C7.5257 293.865 11.5051 291.076 15.6558 291.068H340.344C344.495 291.076 348.474 293.865 351.409 298.823C354.344 303.782 355.995 310.504 356 317.517V553.619C355.995 560.631 354.344 567.354 351.409 572.312C348.474 577.271 344.495 580.06 340.344 580.068Z" fill="#4B5563"/>
<path d="M341.923 580.068H15.7285C11.5585 580.06 7.56058 577.273 4.61193 572.318C1.66329 567.362 0.00468534 560.644 0 553.637V317.696C0.00474337 310.689 1.66335 303.971 4.61199 299.016C7.56062 294.061 11.5585 291.273 15.7285 291.265C113.038 273.426 223.839 276.658 341.923 291.265C346.093 291.273 350.091 294.061 353.04 299.016C355.988 303.971 357.647 310.689 357.652 317.696C369.876 386.107 370.354 483.346 357.652 553.637C357.647 560.644 355.988 567.362 353.04 572.318C350.091 577.273 346.093 580.06 341.923 580.068ZM15.7285 293.564C13.8426 293.564 11.9752 294.188 10.2328 295.401C8.49051 296.613 6.90738 298.391 5.57386 300.632C4.24034 302.873 3.18253 305.533 2.46083 308.461C1.73913 311.389 1.36768 314.527 1.36768 317.696V553.637C1.36768 560.037 2.88069 566.175 5.57386 570.701C8.26703 575.227 11.9197 577.769 15.7285 577.769H341.923C345.732 577.769 349.385 575.227 352.078 570.701C354.771 566.175 356.284 560.037 356.284 553.637V447.269C356.284 406.504 346.647 367.408 329.494 338.583C312.341 309.757 289.076 293.564 264.817 293.564L15.7285 293.564Z" fill="#374151"/>
<path d="M159.316 563.231L173.581 563.23L180.366 508.208L159.313 508.21L159.316 563.231Z" fill="#FFB6B6"/>
<path d="M158.814 578.111L202.68 578.11V577.555C202.679 573.027 200.881 568.684 197.679 565.482C194.477 562.281 190.134 560.482 185.606 560.482H185.605L177.592 554.403L162.643 560.482L158.813 560.483L158.814 578.111Z" fill="#E7E7E8"/>
<path d="M167.342 505.601L155.746 513.908L118.182 473.137L135.296 460.875L167.342 505.601Z" fill="#FFB6B6"/>
<path d="M176.418 517.404L140.761 542.953L140.438 542.502C137.8 538.821 136.733 534.244 137.471 529.776C138.209 525.309 140.691 521.317 144.371 518.679L144.372 518.678L147.344 509.07L163.037 505.304L166.15 503.074L176.418 517.404Z" fill="#E7E7E8"/>
<path d="M113.856 250.232C113.856 250.232 25.4179 345.392 40.7146 373.286C56.0113 401.18 129.795 496.559 129.795 496.559L150.023 473.333C133.023 432.994 114.73 397.738 93.3898 374.473L155.228 328.791C155.228 328.791 159.778 404.411 156.034 416.293C152.291 428.174 145.992 421.875 152.291 428.174C158.589 434.472 161.767 435.629 158.378 439.55C154.99 443.471 152.553 532.792 152.553 532.792H181.651C181.651 532.792 208.805 368.235 207.092 362.212C205.379 356.189 206.362 358.951 206.32 351.271C206.279 343.592 218.696 280.681 218.696 280.681L113.856 250.232Z" fill="#E7E7E8"/>
<path d="M173.886 72.0915L145.992 73.8911L127.688 97.334L97.232 120.542L116.556 179.352C116.556 179.352 115.604 209.408 112.352 213.184C109.1 216.96 103.701 212.461 109.1 220.56C112.391 225.691 114.255 231.608 114.499 237.699C114.499 237.699 83.7349 263.3 94.703 270.049C105.671 276.797 127.825 259.251 139.158 269.599C150.491 279.947 225.777 300.784 226.075 286.245C226.373 271.707 207.276 158.182 207.276 158.182L211.678 103.585L186.483 86.4884L173.886 72.0915Z" fill="#6C63FF"/>
<path d="M129.734 301.483L120.279 273.021L103.266 276.153L114.333 305.89C113.661 307.632 113.487 309.528 113.832 311.363C114.178 313.199 115.028 314.902 116.288 316.28C117.548 317.659 119.168 318.659 120.965 319.168C122.762 319.676 124.666 319.674 126.461 319.16C128.257 318.646 129.874 317.641 131.13 316.259C132.386 314.877 133.232 313.171 133.572 311.335C133.912 309.498 133.733 307.603 133.055 305.863C132.377 304.123 131.227 302.606 129.734 301.483H129.734Z" fill="#FFB6B6"/>
<path d="M104.575 115.962L104.127 116.149C99.9551 117.888 96.2704 120.618 93.3916 124.103C90.5128 127.587 88.5266 131.72 87.6051 136.145C85.1936 147.687 82.8209 164.382 84.6968 180.014C88.0098 207.623 81.2205 219.771 85.6379 228.606C90.0553 237.441 91.1597 234.128 90.0553 240.754C88.951 247.38 83.4292 241.858 88.951 250.693C94.4727 259.528 97.7858 257.319 95.5771 261.736C93.3684 266.154 90.0553 266.154 94.4727 271.676C98.8901 277.197 98.8901 279.406 99.9945 281.615C101.099 283.824 104.412 300.389 104.412 300.389C104.412 300.389 122.082 294.867 132.021 297.076C132.021 297.076 123.186 281.615 125.395 278.302C127.603 274.989 130.916 273.884 127.603 270.571C124.29 267.258 118.768 268.363 124.29 265.049C129.812 261.736 125.296 194.465 125.296 194.465L104.575 115.962Z" fill="#6C63FF"/>
<path d="M250.995 268.462L244.541 239.172L260.759 233.151L266.48 264.36C267.95 265.512 269.07 267.052 269.713 268.805C270.357 270.559 270.498 272.457 270.122 274.286C269.745 276.116 268.866 277.804 267.583 279.161C266.3 280.518 264.664 281.49 262.858 281.969C261.053 282.447 259.149 282.412 257.363 281.868C255.576 281.324 253.976 280.292 252.744 278.889C251.511 277.485 250.695 275.766 250.386 273.924C250.077 272.082 250.288 270.19 250.995 268.462V268.462Z" fill="#FFB6B6"/>
<path d="M185.332 91.6191L185.813 91.5499C190.287 90.9079 194.85 91.366 199.107 92.8846C203.364 94.4033 207.186 96.9366 210.244 100.265C218.226 108.944 228.812 122.069 235.206 136.457C246.498 161.868 250.822 173.433 251.552 183.284C252.282 193.134 249.637 190.854 253.978 195.98C258.32 201.106 260.235 193.535 260.017 203.952C259.798 214.368 255.821 214.167 259.98 216.83C264.14 219.494 266.985 217.797 266.019 224.802C265.052 231.807 266.183 233.704 266.365 236.167C266.548 238.629 272.185 254.555 272.185 254.555C272.185 254.555 254.18 258.86 246.774 265.847C246.774 265.847 246.445 248.043 242.852 246.328C239.258 244.613 235.847 245.361 236.996 240.819C238.145 236.277 243.454 234.398 237.014 234.379C230.575 234.361 191.882 151.274 191.882 151.274L185.332 91.6191Z" fill="#6C63FF"/>
<path d="M158.333 69.2002C174.55 69.2002 187.697 56.0532 187.697 39.8356C187.697 23.6179 174.55 10.4709 158.333 10.4709C142.115 10.4709 128.968 23.6179 128.968 39.8356C128.968 56.0532 142.115 69.2002 158.333 69.2002Z" fill="#FFB6B6"/>
<path d="M192.56 30.2939C189.544 31.6692 187.59 41.6298 185.219 39.3142C182.848 36.9985 183.006 33.9851 179.81 33.1305C177.229 32.4374 174.452 33.2295 172.097 34.4787C171.677 34.6992 171.27 34.9388 170.872 35.1772C170.61 35.002 170.349 34.8372 170.069 34.6851C167.963 33.5582 165.505 33.2817 163.202 33.9127C165.022 34.5223 166.605 35.6888 167.726 37.2471C166.938 37.7751 166.14 38.3045 165.323 38.7736C158.503 42.7092 148.799 34.1513 141.62 30.9363C146.117 39.3742 143.903 42.8688 139.998 51.5955L139.864 52.0924C140.085 49.9052 133.318 48.2753 133.71 51.3541C134.396 54.4724 135.481 57.4889 136.94 60.329C129.392 51.602 124.235 40.9225 125.323 29.9057C125.56 27.5914 125.489 25.1496 126.682 23.1409C127.877 21.1426 130.368 19.7403 132.572 20.5023C132.386 16.989 133.154 13.4907 134.797 10.3793C136.44 7.26799 138.895 4.65994 141.901 2.83243C144.908 1.00492 148.353 0.0262741 151.872 0.000521694C155.39 -0.0252307 158.849 0.902874 161.882 2.68618C164.7 4.33984 167.053 6.67864 169.636 8.69605C172.219 10.7134 175.197 12.472 178.472 12.6385C180.55 12.7387 182.811 12.2314 184.596 13.3076C186.664 14.5563 187.018 17.1707 187.328 19.6864C185.484 19.8682 183.735 20.5958 182.307 21.7762C184.215 21.5815 186.136 21.9936 187.797 22.9537C187.828 22.968 187.858 22.9851 187.887 23.0048C188.98 27.1625 188.868 28.0842 192.56 30.2939Z" fill="#4B5563"/>
<path d="M88.8613 558.305C88.2863 558.331 87.7171 558.18 87.2307 557.873C86.7444 557.565 86.3644 557.115 86.1423 556.584C85.9203 556.052 85.8668 555.466 85.9892 554.904C86.1116 554.341 86.404 553.83 86.8267 553.439L87.019 552.674C86.9937 552.613 86.9682 552.552 86.9426 552.491C86.3633 551.122 85.3926 549.956 84.1525 549.137C82.9123 548.319 81.4579 547.885 79.9721 547.891C78.4862 547.896 77.0351 548.341 75.801 549.168C74.567 549.996 73.605 551.17 73.0359 552.542C70.7614 558.02 67.8655 563.508 67.1525 569.3C66.8385 571.86 66.9709 574.456 67.544 576.971C62.2018 565.317 59.4277 552.652 59.4099 539.832C59.4088 536.615 59.5875 533.401 59.9452 530.204C60.2409 527.583 60.6511 524.981 61.1758 522.397C64.0391 508.379 70.1867 495.24 79.1139 484.06C83.4346 481.702 86.9288 478.077 89.1257 473.673C89.9216 472.089 90.4841 470.399 90.7957 468.655C90.3083 468.718 88.9579 461.295 89.3255 460.84C88.6463 459.809 87.4305 459.297 86.6887 458.291C82.9993 453.289 77.9162 454.163 75.2626 460.96C69.5939 463.821 69.539 468.566 73.0173 473.129C75.2302 476.032 75.5343 479.961 77.4759 483.069C77.2761 483.325 77.0684 483.572 76.8686 483.828C73.2171 488.524 70.0344 493.566 67.3664 498.882C68.0152 492.926 67.2409 486.901 65.107 481.303C62.9443 476.086 58.8906 471.692 55.3209 467.182C51.0331 461.764 42.2406 464.128 41.4852 470.996C41.4779 471.063 41.4707 471.129 41.4638 471.196C41.994 471.495 42.513 471.812 43.0208 472.148C43.6588 472.574 44.1532 473.183 44.4391 473.895C44.725 474.607 44.7892 475.389 44.6233 476.138C44.4573 476.887 44.0689 477.569 43.509 478.093C42.9491 478.618 42.2438 478.961 41.4855 479.078L41.4079 479.09C41.5967 481.001 41.9306 482.895 42.4066 484.755C37.8271 502.465 47.7139 508.916 61.831 509.205C62.1426 509.365 62.4463 509.525 62.758 509.677C60.0774 517.273 58.396 525.186 57.756 533.216C57.3937 537.954 57.4151 542.713 57.8199 547.447L57.796 547.279C56.7731 542.015 53.9649 537.265 49.8456 533.831C43.7274 528.805 35.0835 526.955 28.483 522.915C27.7815 522.464 26.9659 522.224 26.1323 522.222C25.2987 522.22 24.4819 522.456 23.7782 522.903C23.0746 523.35 22.5134 523.989 22.1609 524.745C21.8084 525.5 21.6793 526.34 21.7888 527.167C21.7976 527.226 21.8066 527.284 21.8158 527.343C22.7997 527.744 23.7577 528.206 24.6843 528.725C25.2145 529.025 25.7335 529.342 26.2413 529.678C26.8793 530.104 27.3736 530.713 27.6595 531.425C27.9455 532.137 28.0096 532.919 27.8437 533.668C27.6777 534.417 27.2894 535.099 26.7295 535.623C26.1696 536.148 25.4643 536.491 24.706 536.608L24.6283 536.62C24.5724 536.628 24.5244 536.636 24.4686 536.644C26.1497 540.658 28.5093 544.353 31.444 547.566C34.3074 563.027 46.606 564.493 59.7615 559.991H59.7695C61.2129 566.264 63.3043 572.369 66.01 578.209H88.3028C88.3828 577.961 88.4546 577.706 88.5265 577.458C86.4631 577.588 84.3915 577.464 82.358 577.091C84.012 575.061 85.666 573.015 87.32 570.986C87.3569 570.948 87.3916 570.908 87.4239 570.866C88.2629 569.827 89.1098 568.797 89.9488 567.758L89.9492 567.757C89.994 564.573 89.6286 561.396 88.8621 558.305L88.8613 558.305Z" fill="#374151"/>
<path d="M244.038 447.847V445.312L255.224 427.613H257.064V431.541H255.821L247.369 444.914V445.113H262.433V447.847H244.038ZM256.02 453.068V447.077V445.896V427.613H258.953V453.068H256.02ZM275.394 453.416C273.521 453.416 271.926 452.906 270.608 451.887C269.291 450.859 268.284 449.372 267.588 447.425C266.892 445.469 266.544 443.108 266.544 440.34C266.544 437.589 266.892 435.24 267.588 433.293C268.292 431.338 269.303 429.846 270.621 428.819C271.947 427.783 273.537 427.265 275.394 427.265C277.25 427.265 278.836 427.783 280.154 428.819C281.48 429.846 282.491 431.338 283.187 433.293C283.891 435.24 284.243 437.589 284.243 440.34C284.243 443.108 283.895 445.469 283.199 447.425C282.503 449.372 281.496 450.859 280.179 451.887C278.861 452.906 277.266 453.416 275.394 453.416ZM275.394 450.681C277.25 450.681 278.691 449.786 279.719 447.997C280.746 446.207 281.26 443.655 281.26 440.34C281.26 438.136 281.024 436.259 280.552 434.71C280.088 433.161 279.416 431.98 278.538 431.168C277.668 430.356 276.62 429.95 275.394 429.95C273.554 429.95 272.116 430.857 271.081 432.672C270.045 434.478 269.527 437.034 269.527 440.34C269.527 442.544 269.759 444.417 270.223 445.958C270.687 447.499 271.354 448.672 272.224 449.476C273.102 450.279 274.159 450.681 275.394 450.681ZM288.369 447.847V445.312L299.555 427.613H301.395V431.541H300.152L291.7 444.914V445.113H306.764V447.847H288.369ZM300.351 453.068V447.077V445.896V427.613H303.284V453.068H300.351Z" fill="#E7E7E8"/>
</svg>
