<svg width="367" height="581" viewBox="0 0 367 581" fill="none" xmlns="http://www.w3.org/2000/svg">
<path d="M340.344 581H15.6558C11.5051 580.992 7.52566 578.203 4.59063 573.245C1.65561 568.286 0.0046637 561.563 0 554.551V318.449C0.00471991 311.437 1.65567 304.714 4.59069 299.756C7.5257 294.797 11.5051 292.008 15.6558 292H340.344C344.495 292.008 348.474 294.797 351.409 299.756C354.344 304.714 355.995 311.437 356 318.449V554.551C355.995 561.563 354.344 568.286 351.409 573.245C348.474 578.203 344.495 580.992 340.344 581Z" fill="white"/>
<path d="M341.923 581H15.7285C11.5585 580.992 7.56058 578.205 4.61193 573.25C1.66329 568.295 0.00468534 561.577 0 554.569V318.629C0.00474337 311.621 1.66335 304.903 4.61199 299.948C7.56062 294.993 11.5585 292.206 15.7285 292.198C113.038 274.358 223.839 277.59 341.923 292.198C346.093 292.206 350.091 294.993 353.04 299.948C355.988 304.903 357.647 311.621 357.652 318.629C369.876 387.04 370.354 484.278 357.652 554.569C357.647 561.577 355.988 568.295 353.04 573.25C350.091 578.205 346.093 580.992 341.923 581ZM15.7285 294.496C13.8426 294.496 11.9752 295.12 10.2328 296.333C8.49051 297.546 6.90738 299.323 5.57386 301.564C4.24034 303.805 3.18253 306.466 2.46083 309.393C1.73913 312.321 1.36768 315.459 1.36768 318.629V554.569C1.36768 560.969 2.88069 567.108 5.57386 571.633C8.26703 576.159 11.9197 578.702 15.7285 578.702H341.923C345.732 578.702 349.385 576.159 352.078 571.633C354.771 567.108 356.284 560.969 356.284 554.569V448.201C356.284 407.436 346.647 368.34 329.494 339.515C312.341 310.69 289.076 294.496 264.817 294.496L15.7285 294.496Z" fill="#E6E6E6"/>
<path d="M159.316 564.163L173.581 564.162L180.366 509.14L159.313 509.142L159.316 564.163Z" fill="#FFB6B6"/>
<path d="M158.814 579.044L202.68 579.042V578.487C202.679 573.959 200.881 569.617 197.679 566.415C194.477 563.213 190.134 561.414 185.606 561.414H185.605L177.592 555.335L162.643 561.415L158.813 561.415L158.814 579.044Z" fill="#2F2E41"/>
<path d="M167.342 506.533L155.746 514.84L118.182 474.069L135.296 461.807L167.342 506.533Z" fill="#FFB6B6"/>
<path d="M176.418 518.336L140.761 543.886L140.438 543.435C137.8 539.754 136.733 535.176 137.471 530.709C138.209 526.241 140.691 522.249 144.371 519.612L144.372 519.611L147.344 510.003L163.037 506.237L166.15 504.006L176.418 518.336Z" fill="#2F2E41"/>
<path d="M113.856 251.164C113.856 251.164 25.4179 346.324 40.7146 374.218C56.0113 402.112 129.795 497.491 129.795 497.491L150.023 474.265C133.023 433.926 114.73 398.67 93.3898 375.405L155.228 329.724C155.228 329.724 159.778 405.344 156.034 417.225C152.291 429.106 145.992 422.808 152.291 429.106C158.589 435.405 161.767 436.561 158.378 440.482C154.99 444.403 152.553 533.725 152.553 533.725H181.651C181.651 533.725 208.805 369.167 207.092 363.145C205.379 357.122 206.362 359.883 206.32 352.204C206.279 344.524 218.696 281.613 218.696 281.613L113.856 251.164Z" fill="#2F2E41"/>
<path d="M173.886 73.0239L145.992 74.8235L127.688 98.2664L97.232 121.475L116.556 180.285C116.556 180.285 115.604 210.34 112.352 214.116C109.1 217.893 103.701 213.394 109.1 221.492C112.391 226.624 114.255 232.54 114.499 238.632C114.499 238.632 83.7349 264.233 94.703 270.981C105.671 277.73 127.825 260.184 139.158 270.531C150.491 280.879 225.777 301.717 226.075 287.178C226.373 272.639 207.276 159.114 207.276 159.114L211.678 104.517L186.483 87.4208L173.886 73.0239Z" fill="#6C63FF"/>
<path d="M129.734 302.416L120.279 273.953L103.266 277.086L114.333 306.822C113.661 308.565 113.487 310.46 113.832 312.296C114.178 314.131 115.028 315.834 116.288 317.213C117.548 318.592 119.168 319.591 120.965 320.1C122.762 320.609 124.666 320.606 126.461 320.092C128.257 319.578 129.874 318.574 131.13 317.191C132.386 315.809 133.232 314.104 133.572 312.267C133.912 310.431 133.733 308.536 133.055 306.795C132.377 305.055 131.227 303.538 129.734 302.416H129.734Z" fill="#FFB6B6"/>
<path d="M104.575 116.894L104.127 117.081C99.9551 118.821 96.2704 121.551 93.3916 125.035C90.5128 128.519 88.5266 132.653 87.6051 137.077C85.1936 148.62 82.8209 165.314 84.6968 180.947C88.0098 208.555 81.2205 220.703 85.6379 229.538C90.0553 238.373 91.1597 235.06 90.0553 241.686C88.951 248.312 83.4292 242.79 88.951 251.625C94.4727 260.46 97.7858 258.251 95.5771 262.669C93.3684 267.086 90.0553 267.086 94.4727 272.608C98.8901 278.13 98.8901 280.338 99.9945 282.547C101.099 284.756 104.412 301.321 104.412 301.321C104.412 301.321 122.082 295.799 132.021 298.008C132.021 298.008 123.186 282.547 125.395 279.234C127.603 275.921 130.916 274.817 127.603 271.504C124.29 268.191 118.768 269.295 124.29 265.982C129.812 262.669 125.296 195.398 125.296 195.398L104.575 116.894Z" fill="#6C63FF"/>
<path d="M250.995 269.394L244.541 240.105L260.759 234.083L266.48 265.293C267.95 266.445 269.07 267.984 269.713 269.737C270.357 271.491 270.498 273.389 270.122 275.219C269.745 277.048 268.866 278.736 267.583 280.093C266.3 281.451 264.664 282.423 262.858 282.901C261.053 283.379 259.149 283.344 257.363 282.8C255.576 282.256 253.976 281.224 252.744 279.821C251.511 278.418 250.695 276.698 250.386 274.856C250.077 273.014 250.288 271.123 250.995 269.394Z" fill="#FFB6B6"/>
<path d="M185.332 92.5515L185.813 92.4823C190.287 91.8403 194.85 92.2984 199.107 93.817C203.364 95.3357 207.186 97.869 210.244 101.198C218.226 109.877 228.812 123.001 235.206 137.389C246.498 162.8 250.822 174.365 251.552 184.216C252.282 194.067 249.637 191.786 253.978 196.912C258.32 202.038 260.235 194.468 260.017 204.884C259.798 215.3 255.821 215.1 259.98 217.763C264.14 220.426 266.985 218.729 266.019 225.734C265.052 232.739 266.183 234.636 266.365 237.099C266.548 239.562 272.185 255.487 272.185 255.487C272.185 255.487 254.18 259.792 246.774 266.779C246.774 266.779 246.445 248.975 242.852 247.26C239.258 245.546 235.847 246.294 236.996 241.751C238.145 237.209 243.454 235.33 237.014 235.312C230.575 235.294 191.882 152.207 191.882 152.207L185.332 92.5515Z" fill="#6C63FF"/>
<path d="M158.333 70.1326C174.55 70.1326 187.697 56.9856 187.697 40.768C187.697 24.5503 174.55 11.4033 158.333 11.4033C142.115 11.4033 128.968 24.5503 128.968 40.768C128.968 56.9856 142.115 70.1326 158.333 70.1326Z" fill="#FFB6B6"/>
<path d="M192.56 31.2263C189.544 32.6016 187.59 42.5622 185.219 40.2466C182.848 37.9309 183.006 34.9175 179.81 34.0629C177.229 33.3698 174.452 34.1619 172.097 35.4111C171.677 35.6316 171.27 35.8712 170.872 36.1096C170.61 35.9344 170.349 35.7696 170.069 35.6175C167.963 34.4906 165.505 34.2141 163.202 34.8451C165.022 35.4548 166.605 36.6212 167.726 38.1795C166.938 38.7075 166.14 39.2369 165.323 39.706C158.503 43.6416 148.799 35.0837 141.62 31.8687C146.117 40.3066 143.903 43.8012 139.998 52.5279L139.864 53.0248C140.085 50.8376 133.318 49.2077 133.71 52.2865C134.396 55.4048 135.481 58.4213 136.94 61.2614C129.392 52.5344 124.235 41.8549 125.323 30.8381C125.56 28.5238 125.489 26.082 126.682 24.0733C127.877 22.075 130.368 20.6727 132.572 21.4347C132.386 17.9214 133.154 14.4231 134.797 11.3117C136.44 8.20039 138.895 5.59234 141.901 3.76483C144.908 1.93733 148.353 0.958678 151.872 0.932925C155.39 0.907173 158.849 1.83528 161.882 3.61858C164.7 5.27224 167.053 7.61104 169.636 9.62845C172.219 11.6458 175.197 13.4044 178.472 13.5709C180.55 13.6711 182.811 13.1638 184.596 14.24C186.664 15.4887 187.018 18.1031 187.328 20.6188C185.484 20.8006 183.735 21.5282 182.307 22.7086C184.215 22.5139 186.136 22.926 187.797 23.8861C187.828 23.9004 187.858 23.9175 187.887 23.9372C188.98 28.0949 188.868 29.0166 192.56 31.2263Z" fill="#2F2E41"/>
<path d="M88.8613 559.237C88.2863 559.264 87.7171 559.113 87.2307 558.805C86.7444 558.497 86.3644 558.047 86.1423 557.516C85.9203 556.985 85.8668 556.398 85.9892 555.836C86.1116 555.273 86.404 554.762 86.8267 554.371L87.019 553.607C86.9937 553.545 86.9682 553.484 86.9426 553.423C86.3633 552.055 85.3926 550.888 84.1525 550.07C82.9123 549.251 81.4579 548.818 79.9721 548.823C78.4862 548.829 77.0351 549.273 75.801 550.101C74.567 550.928 73.605 552.102 73.0359 553.475C70.7614 558.953 67.8655 564.44 67.1525 570.233C66.8385 572.793 66.9709 575.388 67.544 577.903C62.2018 566.25 59.4277 553.584 59.4099 540.764C59.4088 537.547 59.5875 534.333 59.9452 531.136C60.2409 528.515 60.6511 525.913 61.1758 523.33C64.0391 509.312 70.1867 496.173 79.1139 484.992C83.4346 482.635 86.9288 479.009 89.1257 474.605C89.9216 473.022 90.4841 471.331 90.7957 469.587C90.3083 469.651 88.9579 462.228 89.3255 461.772C88.6463 460.742 87.4305 460.229 86.6887 459.224C82.9993 454.222 77.9162 455.095 75.2626 461.892C69.5939 464.753 69.539 469.498 73.0173 474.062C75.2302 476.965 75.5343 480.893 77.4759 484.001C77.2761 484.257 77.0684 484.505 76.8686 484.761C73.2171 489.456 70.0344 494.498 67.3664 499.814C68.0152 493.859 67.2409 487.834 65.107 482.236C62.9443 477.018 58.8906 472.624 55.3209 468.114C51.0331 462.697 42.2406 465.061 41.4852 471.928C41.4779 471.995 41.4707 472.061 41.4638 472.128C41.994 472.427 42.513 472.745 43.0208 473.08C43.6588 473.507 44.1532 474.116 44.4391 474.828C44.725 475.54 44.7892 476.321 44.6233 477.07C44.4573 477.82 44.0689 478.501 43.509 479.026C42.9491 479.55 42.2438 479.893 41.4855 480.01L41.4079 480.022C41.5967 481.933 41.9306 483.827 42.4066 485.687C37.8271 503.398 47.7139 509.848 61.831 510.138C62.1426 510.297 62.4463 510.457 62.758 510.609C60.0774 518.206 58.396 526.118 57.756 534.148C57.3937 538.886 57.4151 543.645 57.8199 548.379L57.796 548.211C56.7731 542.947 53.9649 538.197 49.8456 534.764C43.7274 529.738 35.0835 527.887 28.483 523.847C27.7815 523.397 26.9659 523.156 26.1323 523.154C25.2987 523.152 24.4819 523.389 23.7782 523.836C23.0746 524.283 22.5134 524.922 22.1609 525.677C21.8084 526.432 21.6793 527.273 21.7888 528.099C21.7976 528.158 21.8066 528.217 21.8158 528.276C22.7997 528.676 23.7577 529.138 24.6843 529.658C25.2145 529.957 25.7335 530.274 26.2413 530.61C26.8793 531.037 27.3736 531.646 27.6595 532.358C27.9455 533.07 28.0096 533.851 27.8437 534.6C27.6777 535.349 27.2894 536.031 26.7295 536.556C26.1696 537.08 25.4643 537.423 24.706 537.54L24.6283 537.552C24.5724 537.56 24.5244 537.568 24.4686 537.576C26.1497 541.59 28.5093 545.285 31.444 548.499C34.3074 563.959 46.606 565.426 59.7615 560.924H59.7695C61.2129 567.196 63.3043 573.302 66.01 579.142H88.3028C88.3828 578.894 88.4546 578.638 88.5265 578.39C86.4631 578.52 84.3915 578.397 82.358 578.023C84.012 575.993 85.666 573.948 87.32 571.918C87.3569 571.88 87.3916 571.84 87.4239 571.799C88.2629 570.76 89.1098 569.729 89.9488 568.69L89.9492 568.689C89.994 565.505 89.6286 562.329 88.8621 559.238L88.8613 559.237Z" fill="#F2F2F2"/>
<path d="M244.038 448.78V446.244L255.224 428.545H257.064V432.473H255.821L247.369 445.847V446.045H262.433V448.78H244.038ZM256.02 454V448.009V446.828V428.545H258.953V454H256.02ZM275.394 454.348C273.521 454.348 271.926 453.838 270.608 452.819C269.291 451.792 268.284 450.304 267.588 448.357C266.892 446.402 266.544 444.04 266.544 441.273C266.544 438.522 266.892 436.173 267.588 434.225C268.292 432.27 269.303 430.779 270.621 429.751C271.947 428.715 273.537 428.197 275.394 428.197C277.25 428.197 278.836 428.715 280.154 429.751C281.48 430.779 282.491 432.27 283.187 434.225C283.891 436.173 284.243 438.522 284.243 441.273C284.243 444.04 283.895 446.402 283.199 448.357C282.503 450.304 281.496 451.792 280.179 452.819C278.861 453.838 277.266 454.348 275.394 454.348ZM275.394 451.614C277.25 451.614 278.691 450.719 279.719 448.929C280.746 447.139 281.26 444.587 281.26 441.273C281.26 439.069 281.024 437.192 280.552 435.642C280.088 434.093 279.416 432.912 278.538 432.1C277.668 431.288 276.62 430.882 275.394 430.882C273.554 430.882 272.116 431.789 271.081 433.604C270.045 435.41 269.527 437.967 269.527 441.273C269.527 443.477 269.759 445.349 270.223 446.891C270.687 448.432 271.354 449.604 272.224 450.408C273.102 451.212 274.159 451.614 275.394 451.614ZM288.369 448.78V446.244L299.555 428.545H301.395V432.473H300.152L291.7 445.847V446.045H306.764V448.78H288.369ZM300.351 454V448.009V446.828V428.545H303.284V454H300.351Z" fill="#2F2E41"/>
</svg>
