<svg width="280" height="449" viewBox="0 0 280 449" fill="none" xmlns="http://www.w3.org/2000/svg">
<path d="M240.116 436.616L228.375 436.615L222.789 391.325L240.119 391.326L240.116 436.616Z" fill="#FFB6B6"/>
<path d="M240.53 448.865L204.422 448.863V448.407C204.423 440.645 210.715 434.353 218.476 434.353H218.477L225.073 429.349L237.378 434.354L240.53 434.354L240.53 448.865Z" fill="white"/>
<path d="M188.062 436.616L176.32 436.615L170.734 391.325L188.064 391.326L188.062 436.616Z" fill="#FFB6B6"/>
<path d="M188.475 448.865L152.368 448.863V448.407C152.368 440.645 158.66 434.353 166.422 434.353H166.422L173.018 429.349L185.324 434.354L188.475 434.354L188.475 448.865Z" fill="white"/>
<path d="M182.466 183.865L250.209 185.291C250.209 185.291 262.387 205.257 253.089 233.424L254.131 241.268L249.852 253.39L247.713 290.47L249.852 296.175L248.426 306.871C248.426 306.871 254.131 377.466 239.869 413.12L222.755 412.407L216.338 319.383L219.903 312.575L219.19 309.723L210.633 266.938L202.076 289.044V301.326L194.232 310.436C194.232 310.436 197.085 394.58 189.241 411.693H170.08L162.857 297.601L169.988 231.284L168.561 227.006L170.701 224.867L169.275 217.736L182.467 183.865L182.466 183.865Z" fill="white"/>
<path d="M211.346 53.7276L232.025 48.736L237.73 62.2845C237.73 62.2845 267.245 77.9723 268.671 99.3647C268.671 99.3647 272.671 116.479 269.105 124.322C265.54 132.166 250.565 157.124 250.565 157.124C250.565 157.124 264.114 200.622 260.549 202.761C256.983 204.9 172.127 200.622 172.127 196.343C172.127 192.065 186.249 147.141 186.249 147.141L189.241 70.1284L208.494 62.9976L211.346 53.7276L211.346 53.7276V53.7276Z" fill="#6C63FF"/>
<path d="M266.476 229.263C262.148 227.082 260.407 221.805 262.588 217.477C262.807 217.041 263.066 216.639 263.344 216.258L251.837 137.365L267.768 137.874L276.101 214.743C279.121 217.305 280.123 221.682 278.262 225.375C276.081 229.703 270.804 231.444 266.476 229.263H266.476Z" fill="#FFB6B6"/>
<path d="M115.317 192.028C113.575 187.505 115.828 182.426 120.351 180.684C120.806 180.508 121.267 180.384 121.73 180.288L166.182 114.103L177.644 125.178L132.199 187.733C132.717 191.659 130.52 195.575 126.661 197.061C122.139 198.804 117.06 196.55 115.317 192.028V192.028Z" fill="#FFB6B6"/>
<path d="M237.447 117.466C232.946 102.002 240.422 86.2255 256.527 86.3017C261.182 86.3237 264.798 87.6745 265.801 91.4135C269.309 104.5 271.222 124.254 271.222 124.254L275.383 145.286L272.862 149.653L278.117 163.748L275.568 170.416L275.017 204.468L262.182 203.755L248.04 177.796L242.632 174.58C242.632 174.58 246.974 132.608 238.337 120.523L237.447 117.466H237.447V117.466Z" fill="#6C63FF"/>
<path d="M179.954 79.4096C187.459 65.16 206.674 61.7847 218.205 73.0281C221.538 76.2778 223.201 79.7618 221.324 83.1475C214.756 94.9975 199.531 107.756 199.531 107.756L180.782 137.898L175.935 139.288L169.923 153.076L157.04 168.224L139.975 177.223L129.992 167.24L132.112 154.407L157.802 120.177C157.802 120.177 176.287 96.9197 178.47 82.227L179.954 79.4096V79.4095V79.4096Z" fill="#6C63FF"/>
<path d="M215.276 49.56C215.748 49.6167 216.219 49.6593 216.687 49.6807C218.144 49.7606 219.584 49.6775 220.972 49.4423C225.188 48.7665 229.018 46.7696 231.974 43.8412C235.098 40.7512 237.236 36.6269 237.814 31.9317C239.169 20.8489 231.277 10.7532 220.194 9.39905C209.27 8.05644 199.313 15.6968 197.723 26.5252C197.698 26.6928 197.672 26.8534 197.654 27.0202C196.301 38.1101 204.185 48.1994 215.276 49.5599V49.56V49.56Z" fill="#FFB6B6"/>
<path d="M193.166 25.7833C196.037 27.203 200.728 22.7396 202.524 25.3076C202.816 24.7527 203.138 24.216 203.457 23.7084C203.745 23.2543 204.157 22.2848 204.634 22.1187C204.03 23.575 204.164 25.5473 204.79 27.237C207.622 28.2952 211.329 25.9529 213.95 23.1824C218.066 18.8383 224.786 29.9779 223.197 35.7429C225.219 33.2734 229.608 34.6662 231.095 37.4898C232.581 40.3063 230.07 42.563 229.532 45.7047L233.587 45.1899C236.144 42.6987 235.966 38.5008 238.072 35.6135C241.59 30.7814 242.953 25.8511 240.308 20.8642C237.962 16.4548 237.743 10.748 233.439 8.20582C235.32 7.2864 228.632 8.72276 230.418 5.72646C232.213 2.73645 222.649 2.37354 222.026 3.97542C219.293 0.704839 216.536 -1.45152 213.175 1.16915C209.873 3.74747 210.215 6.45758 206.338 6.21471C204.518 6.10198 204.718 9.49433 203.636 10.9733C202.561 12.4444 198.381 13.3888 198.177 13.2314C197.073 12.3676 193.317 19.7211 193.317 19.7211C193.317 19.7211 190.271 24.3446 193.166 25.7833H193.166Z" fill="#4B5563"/>
<path d="M116.605 255.526H10.3947C4.66297 255.526 0 251.834 0 247.296V164.23C0 159.692 4.66297 156 10.3947 156H116.605C122.337 156 127 159.692 127 164.23V247.296C127 251.834 122.337 255.526 116.605 255.526Z" fill="#374151"/>
<path d="M30.1744 158.452C15.22 158.452 3.09705 168.05 3.09705 179.89V245.533C3.09705 249.698 7.3609 253.074 12.6206 253.074H77.5655C103.157 253.074 123.903 236.648 123.903 216.386V165.992C123.903 161.828 119.639 158.452 114.379 158.452H30.1744V158.452V158.452Z" fill="#4B5563"/>
<path d="M24.4926 213H21.6926L15.3526 203.42V213H12.5526V199.02H15.3526L21.6926 208.62V199.02H24.4926V213ZM32.1797 213.18C31.113 213.18 30.153 212.947 29.2997 212.48C28.4463 212 27.773 211.327 27.2797 210.46C26.7997 209.593 26.5597 208.593 26.5597 207.46C26.5597 206.327 26.8063 205.327 27.2997 204.46C27.8063 203.593 28.493 202.927 29.3597 202.46C30.2263 201.98 31.193 201.74 32.2597 201.74C33.3263 201.74 34.293 201.98 35.1597 202.46C36.0263 202.927 36.7063 203.593 37.1997 204.46C37.7063 205.327 37.9597 206.327 37.9597 207.46C37.9597 208.593 37.6997 209.593 37.1797 210.46C36.673 211.327 35.9797 212 35.0997 212.48C34.233 212.947 33.2597 213.18 32.1797 213.18ZM32.1797 210.74C32.6863 210.74 33.1597 210.62 33.5997 210.38C34.053 210.127 34.413 209.753 34.6797 209.26C34.9463 208.767 35.0797 208.167 35.0797 207.46C35.0797 206.407 34.7997 205.6 34.2397 205.04C33.693 204.467 33.0197 204.18 32.2197 204.18C31.4197 204.18 30.7463 204.467 30.1997 205.04C29.6663 205.6 29.3997 206.407 29.3997 207.46C29.3997 208.513 29.6597 209.327 30.1797 209.9C30.713 210.46 31.3797 210.74 32.1797 210.74ZM56.3592 199.04V213H53.5592V207.06H47.5792V213H44.7792V199.04H47.5792V204.78H53.5592V199.04H56.3592ZM60.5351 200.6C60.0418 200.6 59.6285 200.447 59.2951 200.14C58.9751 199.82 58.8151 199.427 58.8151 198.96C58.8151 198.493 58.9751 198.107 59.2951 197.8C59.6285 197.48 60.0418 197.32 60.5351 197.32C61.0285 197.32 61.4351 197.48 61.7551 197.8C62.0885 198.107 62.2551 198.493 62.2551 198.96C62.2551 199.427 62.0885 199.82 61.7551 200.14C61.4351 200.447 61.0285 200.6 60.5351 200.6ZM61.9151 201.92V213H59.1151V201.92H61.9151ZM68.9215 213.18C68.0149 213.18 67.2015 213.02 66.4815 212.7C65.7615 212.367 65.1882 211.92 64.7615 211.36C64.3482 210.8 64.1215 210.18 64.0815 209.5H66.9015C66.9549 209.927 67.1615 210.28 67.5215 210.56C67.8949 210.84 68.3549 210.98 68.9015 210.98C69.4349 210.98 69.8482 210.873 70.1415 210.66C70.4482 210.447 70.6015 210.173 70.6015 209.84C70.6015 209.48 70.4149 209.213 70.0415 209.04C69.6815 208.853 69.1015 208.653 68.3015 208.44C67.4749 208.24 66.7949 208.033 66.2615 207.82C65.7415 207.607 65.2882 207.28 64.9015 206.84C64.5282 206.4 64.3415 205.807 64.3415 205.06C64.3415 204.447 64.5149 203.887 64.8615 203.38C65.2215 202.873 65.7282 202.473 66.3815 202.18C67.0482 201.887 67.8282 201.74 68.7215 201.74C70.0415 201.74 71.0949 202.073 71.8815 202.74C72.6682 203.393 73.1015 204.28 73.1815 205.4H70.5015C70.4615 204.96 70.2749 204.613 69.9415 204.36C69.6215 204.093 69.1882 203.96 68.6415 203.96C68.1349 203.96 67.7415 204.053 67.4615 204.24C67.1949 204.427 67.0615 204.687 67.0615 205.02C67.0615 205.393 67.2482 205.68 67.6215 205.88C67.9949 206.067 68.5749 206.26 69.3615 206.46C70.1615 206.66 70.8215 206.867 71.3415 207.08C71.8615 207.293 72.3082 207.627 72.6815 208.08C73.0682 208.52 73.2682 209.107 73.2815 209.84C73.2815 210.48 73.1015 211.053 72.7415 211.56C72.3949 212.067 71.8882 212.467 71.2215 212.76C70.5682 213.04 69.8015 213.18 68.9215 213.18ZM78.84 204.22V209.58C78.84 209.953 78.9267 210.227 79.1 210.4C79.2867 210.56 79.5933 210.64 80.02 210.64H81.32V213H79.56C77.2 213 76.02 211.853 76.02 209.56V204.22H74.7V201.92H76.02V199.18H78.84V201.92H81.32V204.22H78.84ZM88.2539 213.18C87.1872 213.18 86.2272 212.947 85.3739 212.48C84.5206 212 83.8472 211.327 83.3539 210.46C82.8739 209.593 82.6339 208.593 82.6339 207.46C82.6339 206.327 82.8806 205.327 83.3739 204.46C83.8806 203.593 84.5672 202.927 85.4339 202.46C86.3006 201.98 87.2672 201.74 88.3339 201.74C89.4006 201.74 90.3672 201.98 91.2339 202.46C92.1006 202.927 92.7806 203.593 93.2739 204.46C93.7806 205.327 94.0339 206.327 94.0339 207.46C94.0339 208.593 93.7739 209.593 93.2539 210.46C92.7472 211.327 92.0539 212 91.1739 212.48C90.3072 212.947 89.3339 213.18 88.2539 213.18ZM88.2539 210.74C88.7606 210.74 89.2339 210.62 89.6739 210.38C90.1272 210.127 90.4872 209.753 90.7539 209.26C91.0206 208.767 91.1539 208.167 91.1539 207.46C91.1539 206.407 90.8739 205.6 90.3139 205.04C89.7672 204.467 89.0939 204.18 88.2939 204.18C87.4939 204.18 86.8206 204.467 86.2739 205.04C85.7406 205.6 85.4739 206.407 85.4739 207.46C85.4739 208.513 85.7339 209.327 86.2539 209.9C86.7872 210.46 87.4539 210.74 88.2539 210.74ZM98.8878 203.64C99.2478 203.053 99.7145 202.593 100.288 202.26C100.874 201.927 101.541 201.76 102.288 201.76V204.7H101.548C100.668 204.7 100.001 204.907 99.5478 205.32C99.1078 205.733 98.8878 206.453 98.8878 207.48V213H96.0878V201.92H98.8878V203.64ZM114.774 201.92L107.914 218.24H104.934L107.334 212.72L102.894 201.92H106.034L108.894 209.66L111.794 201.92H114.774Z" fill="white"/>
</svg>
