<svg width="280" height="449" viewBox="0 0 280 449" fill="none" xmlns="http://www.w3.org/2000/svg">
<path d="M240.138 436.616L228.396 436.615L222.81 391.325L240.14 391.326L240.138 436.616Z" fill="#FFB6B6"/>
<path d="M240.551 448.865L204.444 448.863V448.407C204.444 440.645 210.736 434.353 218.498 434.353H218.499L225.094 429.349L237.4 434.354L240.551 434.354L240.551 448.865Z" fill="#2F2E41"/>
<path d="M188.083 436.616L176.341 436.615L170.756 391.325L188.085 391.326L188.083 436.616Z" fill="#FFB6B6"/>
<path d="M188.496 448.865L152.389 448.863V448.407C152.389 440.645 158.681 434.353 166.443 434.353H166.444L173.039 429.349L185.345 434.354L188.497 434.354L188.496 448.865Z" fill="#2F2E41"/>
<path d="M182.488 183.865L250.23 185.291C250.23 185.291 262.409 205.257 253.111 233.424L254.152 241.268L249.874 253.39L247.734 290.47L249.874 296.175L248.448 306.871C248.448 306.871 254.152 377.466 239.891 413.12L222.777 412.407L216.359 319.383L219.924 312.575L219.211 309.723L210.654 266.938L202.097 289.044V301.326L194.254 310.436C194.254 310.436 197.106 394.58 189.262 411.693H170.102L162.878 297.601L170.009 231.284L168.583 227.006L170.722 224.867L169.296 217.736L182.488 183.865L182.488 183.865Z" fill="#2F2E41"/>
<path d="M211.367 53.7276L232.047 48.736L237.751 62.2845C237.751 62.2845 267.266 77.9723 268.692 99.3647C268.692 99.3647 272.692 116.479 269.127 124.322C265.561 132.166 250.587 157.124 250.587 157.124C250.587 157.124 264.135 200.622 260.57 202.761C257.004 204.9 172.148 200.622 172.148 196.343C172.148 192.065 186.27 147.141 186.27 147.141L189.262 70.1284L208.515 62.9976L211.367 53.7276L211.367 53.7276V53.7276Z" fill="#6C63FF"/>
<path d="M266.497 229.263C262.169 227.082 260.428 221.805 262.609 217.477C262.829 217.041 263.087 216.639 263.365 216.258L251.858 137.365L267.789 137.874L276.122 214.743C279.143 217.305 280.144 221.682 278.283 225.375C276.102 229.703 270.826 231.444 266.497 229.263H266.497Z" fill="#FFB6B6"/>
<path d="M115.338 192.028C113.596 187.505 115.849 182.426 120.372 180.684C120.827 180.508 121.288 180.384 121.751 180.288L166.203 114.103L177.665 125.178L132.221 187.733C132.738 191.659 130.541 195.575 126.682 197.061C122.16 198.804 117.081 196.55 115.338 192.028V192.028Z" fill="#FFB6B6"/>
<path d="M237.468 117.466C232.967 102.002 240.443 86.2255 256.548 86.3017C261.203 86.3237 264.819 87.6745 265.822 91.4135C269.33 104.5 271.243 124.254 271.243 124.254L275.404 145.286L272.884 149.653L278.139 163.748L275.59 170.416L275.038 204.468L262.203 203.755L248.061 177.796L242.653 174.58C242.653 174.58 246.995 132.608 238.358 120.523L237.468 117.466H237.468V117.466Z" fill="#6C63FF"/>
<path d="M179.975 79.4096C187.481 65.16 206.695 61.7847 218.226 73.0281C221.559 76.2778 223.222 79.7618 221.346 83.1475C214.777 94.9975 199.553 107.756 199.553 107.756L180.804 137.898L175.957 139.288L169.945 153.076L157.061 168.224L139.997 177.223L130.013 167.24L132.133 154.407L157.824 120.177C157.824 120.177 176.308 96.9197 178.491 82.227L179.975 79.4096V79.4095V79.4096Z" fill="#6C63FF"/>
<path d="M215.297 49.56C215.769 49.6167 216.24 49.6593 216.708 49.6807C218.166 49.7606 219.605 49.6775 220.993 49.4423C225.209 48.7665 229.039 46.7696 231.995 43.8412C235.119 40.7512 237.258 36.6269 237.836 31.9317C239.19 20.8489 231.298 10.7532 220.215 9.39905C209.292 8.05644 199.334 15.6968 197.744 26.5252C197.719 26.6928 197.694 26.8534 197.676 27.0202C196.322 38.1101 204.206 48.1994 215.297 49.5599V49.56V49.56Z" fill="#FFB6B6"/>
<path d="M193.187 25.7833C196.058 27.203 200.749 22.7396 202.545 25.3076C202.837 24.7527 203.16 24.216 203.478 23.7084C203.766 23.2543 204.178 22.2848 204.655 22.1187C204.052 23.575 204.185 25.5473 204.811 27.237C207.643 28.2952 211.35 25.9529 213.971 23.1824C218.087 18.8383 224.807 29.9779 223.218 35.7429C225.241 33.2734 229.629 34.6662 231.116 37.4898C232.602 40.3063 230.091 42.563 229.554 45.7047L233.608 45.1899C236.166 42.6987 235.987 38.5008 238.093 35.6135C241.611 30.7814 242.975 25.8511 240.33 20.8642C237.984 16.4548 237.764 10.748 233.46 8.20582C235.341 7.2864 228.653 8.72276 230.44 5.72646C232.234 2.73645 222.671 2.37354 222.047 3.97542C219.314 0.704839 216.558 -1.45152 213.196 1.16915C209.895 3.74747 210.236 6.45758 206.359 6.21471C204.539 6.10198 204.739 9.49433 203.658 10.9733C202.582 12.4444 198.402 13.3888 198.199 13.2314C197.095 12.3676 193.338 19.7211 193.338 19.7211C193.338 19.7211 190.293 24.3446 193.187 25.7833H193.187Z" fill="#2F2E41"/>
<path d="M116.605 255.466H10.3947C4.66297 255.466 0 251.774 0 247.236V164.17C0 159.632 4.66297 155.94 10.3947 155.94H116.605C122.337 155.94 127 159.632 127 164.17V247.236C127 251.774 122.337 255.466 116.605 255.466Z" fill="#E6E6E6"/>
<path d="M30.1744 158.392C15.22 158.392 3.09705 167.991 3.09705 179.831V245.474C3.09705 249.638 7.3609 253.014 12.6206 253.014H77.5655C103.157 253.014 123.903 236.588 123.903 216.327V165.932C123.903 161.768 119.639 158.392 114.379 158.392H30.1744V158.392V158.392Z" fill="white"/>
<path d="M25.169 213H22.369L16.029 203.42V213H13.229V199.02H16.029L22.369 208.62V199.02H25.169V213ZM32.856 213.18C31.7894 213.18 30.8294 212.947 29.976 212.48C29.1227 212 28.4494 211.327 27.956 210.46C27.476 209.593 27.236 208.593 27.236 207.46C27.236 206.327 27.4827 205.327 27.976 204.46C28.4827 203.593 29.1694 202.927 30.036 202.46C30.9027 201.98 31.8694 201.74 32.936 201.74C34.0027 201.74 34.9694 201.98 35.836 202.46C36.7027 202.927 37.3827 203.593 37.876 204.46C38.3827 205.327 38.636 206.327 38.636 207.46C38.636 208.593 38.376 209.593 37.856 210.46C37.3494 211.327 36.656 212 35.776 212.48C34.9094 212.947 33.936 213.18 32.856 213.18ZM32.856 210.74C33.3627 210.74 33.836 210.62 34.276 210.38C34.7294 210.127 35.0894 209.753 35.356 209.26C35.6227 208.767 35.756 208.167 35.756 207.46C35.756 206.407 35.476 205.6 34.916 205.04C34.3694 204.467 33.696 204.18 32.896 204.18C32.096 204.18 31.4227 204.467 30.876 205.04C30.3427 205.6 30.076 206.407 30.076 207.46C30.076 208.513 30.336 209.327 30.856 209.9C31.3894 210.46 32.056 210.74 32.856 210.74ZM57.0356 199.04V213H54.2356V207.06H48.2556V213H45.4556V199.04H48.2556V204.78H54.2356V199.04H57.0356ZM61.2115 200.6C60.7182 200.6 60.3048 200.447 59.9715 200.14C59.6515 199.82 59.4915 199.427 59.4915 198.96C59.4915 198.493 59.6515 198.107 59.9715 197.8C60.3048 197.48 60.7182 197.32 61.2115 197.32C61.7048 197.32 62.1115 197.48 62.4315 197.8C62.7648 198.107 62.9315 198.493 62.9315 198.96C62.9315 199.427 62.7648 199.82 62.4315 200.14C62.1115 200.447 61.7048 200.6 61.2115 200.6ZM62.5915 201.92V213H59.7915V201.92H62.5915ZM69.5979 213.18C68.6913 213.18 67.8779 213.02 67.1579 212.7C66.4379 212.367 65.8646 211.92 65.4379 211.36C65.0246 210.8 64.7979 210.18 64.7579 209.5H67.5779C67.6313 209.927 67.8379 210.28 68.1979 210.56C68.5713 210.84 69.0313 210.98 69.5779 210.98C70.1113 210.98 70.5246 210.873 70.8179 210.66C71.1246 210.447 71.2779 210.173 71.2779 209.84C71.2779 209.48 71.0913 209.213 70.7179 209.04C70.3579 208.853 69.7779 208.653 68.9779 208.44C68.1513 208.24 67.4713 208.033 66.9379 207.82C66.4179 207.607 65.9646 207.28 65.5779 206.84C65.2046 206.4 65.0179 205.807 65.0179 205.06C65.0179 204.447 65.1913 203.887 65.5379 203.38C65.8979 202.873 66.4046 202.473 67.0579 202.18C67.7246 201.887 68.5046 201.74 69.3979 201.74C70.7179 201.74 71.7713 202.073 72.5579 202.74C73.3446 203.393 73.7779 204.28 73.8579 205.4H71.1779C71.1379 204.96 70.9513 204.613 70.6179 204.36C70.2979 204.093 69.8646 203.96 69.3179 203.96C68.8113 203.96 68.4179 204.053 68.1379 204.24C67.8713 204.427 67.7379 204.687 67.7379 205.02C67.7379 205.393 67.9246 205.68 68.2979 205.88C68.6713 206.067 69.2513 206.26 70.0379 206.46C70.8379 206.66 71.4979 206.867 72.0179 207.08C72.5379 207.293 72.9846 207.627 73.3579 208.08C73.7446 208.52 73.9446 209.107 73.9579 209.84C73.9579 210.48 73.7779 211.053 73.4179 211.56C73.0713 212.067 72.5646 212.467 71.8979 212.76C71.2446 213.04 70.4779 213.18 69.5979 213.18ZM79.5164 204.22V209.58C79.5164 209.953 79.603 210.227 79.7764 210.4C79.963 210.56 80.2697 210.64 80.6964 210.64H81.9964V213H80.2364C77.8764 213 76.6964 211.853 76.6964 209.56V204.22H75.3764V201.92H76.6964V199.18H79.5164V201.92H81.9964V204.22H79.5164ZM88.9303 213.18C87.8636 213.18 86.9036 212.947 86.0503 212.48C85.1969 212 84.5236 211.327 84.0303 210.46C83.5503 209.593 83.3103 208.593 83.3103 207.46C83.3103 206.327 83.5569 205.327 84.0503 204.46C84.5569 203.593 85.2436 202.927 86.1103 202.46C86.9769 201.98 87.9436 201.74 89.0103 201.74C90.0769 201.74 91.0436 201.98 91.9103 202.46C92.7769 202.927 93.4569 203.593 93.9503 204.46C94.4569 205.327 94.7103 206.327 94.7103 207.46C94.7103 208.593 94.4503 209.593 93.9303 210.46C93.4236 211.327 92.7303 212 91.8503 212.48C90.9836 212.947 90.0103 213.18 88.9303 213.18ZM88.9303 210.74C89.4369 210.74 89.9103 210.62 90.3503 210.38C90.8036 210.127 91.1636 209.753 91.4303 209.26C91.6969 208.767 91.8303 208.167 91.8303 207.46C91.8303 206.407 91.5503 205.6 90.9903 205.04C90.4436 204.467 89.7703 204.18 88.9703 204.18C88.1703 204.18 87.4969 204.467 86.9503 205.04C86.4169 205.6 86.1503 206.407 86.1503 207.46C86.1503 208.513 86.4103 209.327 86.9303 209.9C87.4636 210.46 88.1303 210.74 88.9303 210.74ZM99.5642 203.64C99.9242 203.053 100.391 202.593 100.964 202.26C101.551 201.927 102.218 201.76 102.964 201.76V204.7H102.224C101.344 204.7 100.678 204.907 100.224 205.32C99.7842 205.733 99.5642 206.453 99.5642 207.48V213H96.7642V201.92H99.5642V203.64ZM115.45 201.92L108.59 218.24H105.61L108.01 212.72L103.57 201.92H106.71L109.57 209.66L112.47 201.92H115.45Z" fill="#2F2E41"/>
</svg>
