<svg width="363" height="476" viewBox="0 0 363 476" fill="none" xmlns="http://www.w3.org/2000/svg">
<path d="M247.676 463.637L234.92 463.636L228.851 414.433L247.679 414.434L247.676 463.637Z" fill="#FFB6B6"/>
<path d="M247.336 459.47L233.716 453.931L233.326 453.771L225.806 459.47C221.56 459.471 217.488 461.158 214.486 464.16C211.484 467.163 209.797 471.235 209.796 475.48V476.001H250.926V459.47H247.336Z" fill="white"/>
<path d="M355.496 452.952L343.314 456.737L322.916 411.551L340.896 405.965L355.496 452.952Z" fill="#FFB6B6"/>
<path d="M353.934 449.074L339.284 447.826L338.864 447.789L333.374 455.464C329.32 456.725 325.932 459.544 323.956 463.302C321.98 467.06 321.577 471.449 322.837 475.504L322.991 476L362.268 463.794L357.362 448.009L353.934 449.074Z" fill="white"/>
<path d="M304.456 211.586L309.644 226.342V234.318L308.921 243.089L316.952 272.343L323.251 336.851L354.952 432.343L330.644 439.343L268.585 283.319L248.983 441.132L226.754 440.539C226.754 440.539 222.952 431.343 223.952 426.343C224.952 421.343 224.952 427.343 224.952 421.343C224.952 415.343 220.616 417.949 223.784 413.146C226.951 408.343 226.557 404.138 226.754 401.24C226.951 398.343 224.952 281.343 224.952 277.343C224.952 273.343 224.259 274.219 224.605 270.281C224.951 266.342 229.346 267.961 228.149 261.152C226.952 254.343 226.557 255.533 226.754 250.438C226.951 245.343 229.707 215.468 229.707 215.468L304.456 211.586Z" fill="white"/>
<path d="M221.262 216.386L265.825 173.411L278.176 138.439L259.957 130.517C250.6 139.481 240.484 167.401 240.484 167.401L209.819 206.414C209.58 206.496 209.342 206.583 209.107 206.687C207.725 207.296 206.525 208.251 205.62 209.46C204.716 210.669 204.139 212.09 203.945 213.587C203.751 215.084 203.946 216.606 204.511 218.005C205.077 219.405 205.994 220.635 207.174 221.576C208.354 222.518 209.757 223.139 211.247 223.38C212.737 223.62 214.264 223.473 215.681 222.951C217.097 222.429 218.355 221.551 219.333 220.401C220.311 219.251 220.975 217.868 221.262 216.386V216.386Z" fill="#FFB8B8"/>
<path d="M254.831 134.422L277.94 141.758L278.027 141.744C286.628 140.303 293.765 126.255 298.237 114.725C299.709 110.921 299.681 106.701 298.16 102.917C296.64 99.1331 293.739 96.0679 290.044 94.3409C287.31 93.0854 284.28 92.6195 281.295 92.9961C278.31 93.3727 275.49 94.5767 273.154 96.4719L261.288 106.168L254.831 134.422Z" fill="#6C63FF"/>
<path d="M308.382 230.542L308.517 230.362C315.727 220.8 305.866 197.12 304.375 193.686L311.079 191.7L309.911 178.935L309.348 173.244L314.56 168.294L314.578 168.167L318.163 142.656L322.853 125.772C324.621 119.389 324.658 112.65 322.961 106.248C321.264 99.8454 317.894 94.01 313.197 89.3405L303.608 79.8206L292.121 61.8398L272.86 61.3426L265.934 73.6462C259.493 74.9607 253.718 78.4931 249.613 83.6281C245.509 88.7631 243.336 95.1752 243.474 101.747L244.126 134.502L237.215 175.085L237.021 182.457L230.238 189.615L231.492 196.851L226.418 198.872L223.935 209.156C222.986 210.342 216.725 218.256 216.668 220.463C216.66 220.794 216.896 221.12 217.411 221.489C221.464 224.389 244.117 230.672 254.312 226.895C265.171 222.874 307.732 230.425 308.161 230.502L308.382 230.542Z" fill="#6C63FF"/>
<path d="M261.168 126.707L251.329 107.092C237.048 108.068 208.705 124.579 208.705 124.579L155.079 135.949C153.49 135.339 151.769 135.157 150.088 135.423C148.407 135.69 146.825 136.394 145.503 137.465C144.181 138.537 143.164 139.938 142.555 141.527C141.947 143.117 141.767 144.838 142.035 146.519C142.303 148.2 143.01 149.78 144.083 151.101C145.156 152.422 146.558 153.437 148.148 154.044C149.738 154.651 151.46 154.828 153.14 154.558C154.821 154.288 156.4 153.58 157.72 152.505L225.936 147.615L261.168 126.707Z" fill="#FFB8B8"/>
<path d="M257.199 129.928L282.894 110.833L287.42 94.5223C288.297 91.317 288.26 87.9303 287.313 84.7449C286.366 81.5596 284.548 78.7026 282.062 76.4967V76.4967C278.673 73.5293 274.283 71.9594 269.781 72.1047C265.278 72.25 260.999 74.0995 257.808 77.2793C248.139 86.9307 237.11 100.395 239.479 109.732L239.503 109.827L257.199 129.928Z" fill="#6C63FF"/>
<path d="M283.125 56.8842C295.744 56.8842 305.973 46.6545 305.973 34.0355C305.973 21.4165 295.744 11.1868 283.125 11.1868C270.506 11.1868 260.276 21.4165 260.276 34.0355C260.276 46.6545 270.506 56.8842 283.125 56.8842Z" fill="#FFB8B8"/>
<path d="M298.161 57.9312C294.34 56.1361 289.876 57.227 285.657 57.393C281.438 57.5591 276.326 55.9685 275.43 51.8422C274.769 48.7911 276.758 45.447 275.504 42.5878C274.137 39.4697 270.034 39.0259 266.743 38.1529C262.618 36.961 258.98 34.4855 256.358 31.0858C253.735 27.6861 252.264 23.5391 252.159 19.2467C251.93 20.9503 254.845 21.5099 255.803 20.0823C256.76 18.6548 256.101 16.6789 255.045 15.3225C253.989 13.966 252.564 12.8827 251.768 11.3593C250.972 9.83585 251.127 7.57339 252.681 6.84026C253.478 8.44862 254.607 9.86978 255.993 11.01C257.379 12.1502 258.991 12.9836 260.723 13.4551C260.016 11.3069 261.016 8.89182 262.625 7.30291C264.335 5.81422 266.305 4.6541 268.436 3.88091C273.703 1.59778 279.852 -0.674185 284.953 1.96002C286.27 2.65303 287.413 3.63458 288.297 4.83135C289.181 6.02813 289.783 7.4092 290.059 8.87141C299.494 9.66918 309.182 19.8893 308.645 29.3425C308.066 39.5192 307.645 40.3426 299.173 57.4676" fill="#4B5563"/>
<path d="M138.822 231H12.3752C5.55139 231 0 226.771 0 221.573V126.427C0 121.229 5.55139 117 12.3752 117H138.822C145.645 117 151.197 121.229 151.197 126.427V221.573C151.197 226.771 145.645 231 138.822 231Z" fill="#374151"/>
<path d="M35.9236 119.809C18.1199 119.809 3.68726 130.803 3.68726 144.365V219.554C3.68726 224.324 8.76349 228.191 15.0253 228.191H92.3439C122.811 228.191 147.51 209.377 147.51 186.168V128.445C147.51 123.675 142.433 119.809 136.172 119.809H35.9236V119.809V119.809Z" fill="#4B5563"/>
<path d="M44.1942 168H41.3942L35.0542 158.42V168H32.2542V154.02H35.0542L41.3942 163.62V154.02H44.1942V168ZM51.8812 168.18C50.8146 168.18 49.8546 167.947 49.0012 167.48C48.1479 167 47.4746 166.327 46.9812 165.46C46.5012 164.593 46.2612 163.593 46.2612 162.46C46.2612 161.327 46.5079 160.327 47.0012 159.46C47.5079 158.593 48.1946 157.927 49.0612 157.46C49.9279 156.98 50.8946 156.74 51.9612 156.74C53.0279 156.74 53.9946 156.98 54.8612 157.46C55.7279 157.927 56.4079 158.593 56.9012 159.46C57.4079 160.327 57.6612 161.327 57.6612 162.46C57.6612 163.593 57.4012 164.593 56.8812 165.46C56.3746 166.327 55.6812 167 54.8012 167.48C53.9346 167.947 52.9612 168.18 51.8812 168.18ZM51.8812 165.74C52.3879 165.74 52.8612 165.62 53.3012 165.38C53.7546 165.127 54.1146 164.753 54.3812 164.26C54.6479 163.767 54.7812 163.167 54.7812 162.46C54.7812 161.407 54.5012 160.6 53.9412 160.04C53.3946 159.467 52.7212 159.18 51.9212 159.18C51.1212 159.18 50.4479 159.467 49.9012 160.04C49.3679 160.6 49.1012 161.407 49.1012 162.46C49.1012 163.513 49.3612 164.327 49.8812 164.9C50.4146 165.46 51.0812 165.74 51.8812 165.74ZM67.2808 154.04V168H64.4808V154.04H67.2808ZM73.3072 159.22V164.58C73.3072 164.953 73.3938 165.227 73.5672 165.4C73.7538 165.56 74.0605 165.64 74.4872 165.64H75.7872V168H74.0272C71.6672 168 70.4872 166.853 70.4872 164.56V159.22H69.1672V156.92H70.4872V154.18H73.3072V156.92H75.7872V159.22H73.3072ZM88.1011 162.22C88.1011 162.62 88.0744 162.98 88.0211 163.3H79.9211C79.9877 164.1 80.2677 164.727 80.7611 165.18C81.2544 165.633 81.8611 165.86 82.5811 165.86C83.6211 165.86 84.3611 165.413 84.8011 164.52H87.8211C87.5011 165.587 86.8877 166.467 85.9811 167.16C85.0744 167.84 83.9611 168.18 82.6411 168.18C81.5744 168.18 80.6144 167.947 79.7611 167.48C78.9211 167 78.2611 166.327 77.7811 165.46C77.3144 164.593 77.0811 163.593 77.0811 162.46C77.0811 161.313 77.3144 160.307 77.7811 159.44C78.2477 158.573 78.9011 157.907 79.7411 157.44C80.5811 156.973 81.5477 156.74 82.6411 156.74C83.6944 156.74 84.6344 156.967 85.4611 157.42C86.3011 157.873 86.9477 158.52 87.4011 159.36C87.8677 160.187 88.1011 161.14 88.1011 162.22ZM85.2011 161.42C85.1877 160.7 84.9277 160.127 84.4211 159.7C83.9144 159.26 83.2944 159.04 82.5611 159.04C81.8677 159.04 81.2811 159.253 80.8011 159.68C80.3344 160.093 80.0477 160.673 79.9411 161.42H85.2011ZM103.905 156.76C105.265 156.76 106.358 157.18 107.185 158.02C108.025 158.847 108.445 160.007 108.445 161.5V168H105.645V161.88C105.645 161.013 105.425 160.353 104.985 159.9C104.545 159.433 103.945 159.2 103.185 159.2C102.425 159.2 101.818 159.433 101.365 159.9C100.925 160.353 100.705 161.013 100.705 161.88V168H97.9048V161.88C97.9048 161.013 97.6848 160.353 97.2448 159.9C96.8048 159.433 96.2048 159.2 95.4448 159.2C94.6715 159.2 94.0582 159.433 93.6048 159.9C93.1648 160.353 92.9448 161.013 92.9448 161.88V168H90.1448V156.92H92.9448V158.26C93.3048 157.793 93.7648 157.427 94.3248 157.16C94.8982 156.893 95.5248 156.76 96.2048 156.76C97.0715 156.76 97.8448 156.947 98.5248 157.32C99.2048 157.68 99.7315 158.2 100.105 158.88C100.465 158.24 100.985 157.727 101.665 157.34C102.358 156.953 103.105 156.76 103.905 156.76ZM115.342 168.18C114.435 168.18 113.622 168.02 112.902 167.7C112.182 167.367 111.609 166.92 111.182 166.36C110.769 165.8 110.542 165.18 110.502 164.5H113.322C113.375 164.927 113.582 165.28 113.942 165.56C114.315 165.84 114.775 165.98 115.322 165.98C115.855 165.98 116.269 165.873 116.562 165.66C116.869 165.447 117.022 165.173 117.022 164.84C117.022 164.48 116.835 164.213 116.462 164.04C116.102 163.853 115.522 163.653 114.722 163.44C113.895 163.24 113.215 163.033 112.682 162.82C112.162 162.607 111.709 162.28 111.322 161.84C110.949 161.4 110.762 160.807 110.762 160.06C110.762 159.447 110.935 158.887 111.282 158.38C111.642 157.873 112.149 157.473 112.802 157.18C113.469 156.887 114.249 156.74 115.142 156.74C116.462 156.74 117.515 157.073 118.302 157.74C119.089 158.393 119.522 159.28 119.602 160.4H116.922C116.882 159.96 116.695 159.613 116.362 159.36C116.042 159.093 115.609 158.96 115.062 158.96C114.555 158.96 114.162 159.053 113.882 159.24C113.615 159.427 113.482 159.687 113.482 160.02C113.482 160.393 113.669 160.68 114.042 160.88C114.415 161.067 114.995 161.26 115.782 161.46C116.582 161.66 117.242 161.867 117.762 162.08C118.282 162.293 118.729 162.627 119.102 163.08C119.489 163.52 119.689 164.107 119.702 164.84C119.702 165.48 119.522 166.053 119.162 166.56C118.815 167.067 118.309 167.467 117.642 167.76C116.989 168.04 116.222 168.18 115.342 168.18ZM40.231 189.22V194.58C40.231 194.953 40.3177 195.227 40.491 195.4C40.6777 195.56 40.9843 195.64 41.411 195.64H42.711V198H40.951C38.591 198 37.411 196.853 37.411 194.56V189.22H36.091V186.92H37.411V184.18H40.231V186.92H42.711V189.22H40.231ZM49.6449 198.18C48.5782 198.18 47.6182 197.947 46.7649 197.48C45.9116 197 45.2382 196.327 44.7449 195.46C44.2649 194.593 44.0249 193.593 44.0249 192.46C44.0249 191.327 44.2716 190.327 44.7649 189.46C45.2716 188.593 45.9582 187.927 46.8249 187.46C47.6916 186.98 48.6582 186.74 49.7249 186.74C50.7916 186.74 51.7582 186.98 52.6249 187.46C53.4916 187.927 54.1716 188.593 54.6649 189.46C55.1716 190.327 55.4249 191.327 55.4249 192.46C55.4249 193.593 55.1649 194.593 54.6449 195.46C54.1382 196.327 53.4449 197 52.5649 197.48C51.6982 197.947 50.7249 198.18 49.6449 198.18ZM49.6449 195.74C50.1516 195.74 50.6249 195.62 51.0649 195.38C51.5182 195.127 51.8782 194.753 52.1449 194.26C52.4116 193.767 52.5449 193.167 52.5449 192.46C52.5449 191.407 52.2649 190.6 51.7049 190.04C51.1582 189.467 50.4849 189.18 49.6849 189.18C48.8849 189.18 48.2116 189.467 47.6649 190.04C47.1316 190.6 46.8649 191.407 46.8649 192.46C46.8649 193.513 47.1249 194.327 47.6449 194.9C48.1782 195.46 48.8449 195.74 49.6449 195.74ZM67.0644 198.14C66.0911 198.14 65.2111 197.973 64.4244 197.64C63.6511 197.307 63.0378 196.827 62.5844 196.2C62.1311 195.573 61.8978 194.833 61.8844 193.98H64.8844C64.9244 194.553 65.1244 195.007 65.4844 195.34C65.8578 195.673 66.3644 195.84 67.0044 195.84C67.6578 195.84 68.1711 195.687 68.5444 195.38C68.9178 195.06 69.1044 194.647 69.1044 194.14C69.1044 193.727 68.9778 193.387 68.7244 193.12C68.4711 192.853 68.1511 192.647 67.7644 192.5C67.3911 192.34 66.8711 192.167 66.2044 191.98C65.2978 191.713 64.5578 191.453 63.9844 191.2C63.4244 190.933 62.9378 190.54 62.5244 190.02C62.1244 189.487 61.9244 188.78 61.9244 187.9C61.9244 187.073 62.1311 186.353 62.5444 185.74C62.9578 185.127 63.5378 184.66 64.2844 184.34C65.0311 184.007 65.8844 183.84 66.8444 183.84C68.2844 183.84 69.4511 184.193 70.3444 184.9C71.2511 185.593 71.7511 186.567 71.8444 187.82H68.7644C68.7378 187.34 68.5311 186.947 68.1444 186.64C67.7711 186.32 67.2711 186.16 66.6444 186.16C66.0978 186.16 65.6578 186.3 65.3244 186.58C65.0044 186.86 64.8444 187.267 64.8444 187.8C64.8444 188.173 64.9644 188.487 65.2044 188.74C65.4578 188.98 65.7644 189.18 66.1244 189.34C66.4978 189.487 67.0178 189.66 67.6844 189.86C68.5911 190.127 69.3311 190.393 69.9044 190.66C70.4778 190.927 70.9711 191.327 71.3844 191.86C71.7978 192.393 72.0044 193.093 72.0044 193.96C72.0044 194.707 71.8111 195.4 71.4244 196.04C71.0378 196.68 70.4711 197.193 69.7244 197.58C68.9778 197.953 68.0911 198.14 67.0644 198.14ZM80.6719 186.76C81.5119 186.76 82.2586 186.947 82.9119 187.32C83.5653 187.68 84.0719 188.22 84.4319 188.94C84.8053 189.647 84.9919 190.5 84.9919 191.5V198H82.1919V191.88C82.1919 191 81.9719 190.327 81.5319 189.86C81.0919 189.38 80.4919 189.14 79.7319 189.14C78.9586 189.14 78.3453 189.38 77.8919 189.86C77.4519 190.327 77.2319 191 77.2319 191.88V198H74.4319V183.2H77.2319V188.3C77.5919 187.82 78.0719 187.447 78.6719 187.18C79.2719 186.9 79.9386 186.76 80.6719 186.76ZM92.5746 198.18C91.5079 198.18 90.5479 197.947 89.6946 197.48C88.8413 197 88.1679 196.327 87.6746 195.46C87.1946 194.593 86.9546 193.593 86.9546 192.46C86.9546 191.327 87.2013 190.327 87.6946 189.46C88.2013 188.593 88.8879 187.927 89.7546 187.46C90.6213 186.98 91.5879 186.74 92.6546 186.74C93.7213 186.74 94.6879 186.98 95.5546 187.46C96.4213 187.927 97.1013 188.593 97.5946 189.46C98.1013 190.327 98.3546 191.327 98.3546 192.46C98.3546 193.593 98.0946 194.593 97.5746 195.46C97.0679 196.327 96.3746 197 95.4946 197.48C94.6279 197.947 93.6546 198.18 92.5746 198.18ZM92.5746 195.74C93.0813 195.74 93.5546 195.62 93.9946 195.38C94.4479 195.127 94.8079 194.753 95.0746 194.26C95.3413 193.767 95.4746 193.167 95.4746 192.46C95.4746 191.407 95.1946 190.6 94.6346 190.04C94.0879 189.467 93.4146 189.18 92.6146 189.18C91.8146 189.18 91.1413 189.467 90.5946 190.04C90.0613 190.6 89.7946 191.407 89.7946 192.46C89.7946 193.513 90.0546 194.327 90.5746 194.9C91.1079 195.46 91.7746 195.74 92.5746 195.74ZM115.769 186.92L112.529 198H109.509L107.489 190.26L105.469 198H102.429L99.1685 186.92H102.009L103.969 195.36L106.089 186.92H109.049L111.129 195.34L113.089 186.92H115.769Z" fill="white"/>
</svg>
