<svg width="359" height="456" viewBox="0 0 359 456" fill="none" xmlns="http://www.w3.org/2000/svg">
<path d="M221.923 445.303L212.022 445.302L207.312 407.112L221.925 407.113L221.923 445.303Z" fill="#FFB6B6"/>
<path d="M222.272 455.632L191.825 455.631V455.246C191.825 452.103 193.074 449.089 195.296 446.866C197.519 444.644 200.533 443.395 203.676 443.395H203.676L209.238 439.176L219.615 443.396H222.272L222.272 455.632Z" fill="white"/>
<path d="M350.291 391.013L343.896 398.571L311.697 377.503L321.135 366.347L350.291 391.013Z" fill="#FFB6B6"/>
<path d="M358.402 397.417L338.738 420.662L338.444 420.413C336.044 418.383 334.549 415.483 334.288 412.351C334.027 409.219 335.02 406.112 337.05 403.712L337.05 403.711L337.421 396.74L347.344 391.543L349.061 389.514L358.402 397.417Z" fill="white"/>
<path d="M270.261 164.404L217.182 170.562L196.261 206.404L193.261 218.404L194.619 226.654L191.261 232.404L193.261 243.404L185.261 330.404L207.261 428.404H227.761L221.261 337.404L238.261 259.404L253.261 335.404L322.631 395.816L338.789 372.652L285.261 327.404L280.261 311.404L286.998 297.876L292.261 208.404L270.261 164.404Z" fill="white"/>
<path d="M247.761 201.903C247.761 201.903 282.769 203.701 283.261 191.403C283.753 179.106 275.877 166.077 272.261 165.403C268.646 164.73 269.958 153.903 271.86 146.403C273.761 138.903 272.282 135.424 270.022 135.164C267.761 134.903 215.261 63.4034 215.261 63.4034L203.761 63.9034L192.261 55.4034L174.261 62.4034L170.261 78.4034L159.261 88.4034L165.56 132.366C165.56 132.366 172.537 150.11 182.125 168.201C185.109 173.83 188.345 179.492 191.703 184.664C199.612 196.846 208.194 206.307 215.734 206.201C236.761 205.903 247.761 201.903 247.761 201.903Z" fill="#6C63FF"/>
<path d="M117.931 155.189L111.627 158.1L110.168 158.771L107.832 159.859L59.1805 182.322C58.0938 183.503 56.6463 184.29 55.0646 184.56C53.4829 184.831 51.8562 184.569 50.439 183.817C48.8176 182.938 47.6113 181.451 47.0853 179.683C46.5593 177.916 46.7565 176.011 47.6337 174.389C47.6648 174.331 47.7016 174.283 47.7327 174.225C48.6658 172.572 50.2068 171.347 52.0284 170.811C53.85 170.275 55.8086 170.471 57.4885 171.356C57.8248 171.546 58.1458 171.762 58.4484 172.002L59.7111 171.199L63.6733 168.686L66.6667 166.788L72.6187 163.001L74.9276 161.537L82.413 156.785L89.6335 152.204L98.3816 146.65L105.105 142.377L107.199 144.469L117.931 155.189Z" fill="#FFB6B6"/>
<path d="M130.524 154.165C129.667 154.536 128.772 154.809 127.855 154.98C124.948 155.021 127.52 152.458 122.128 156.593C117.747 159.943 116.371 156.286 116.073 158.073C115.577 161.024 113.233 158.754 111.627 158.1C110.915 157.804 110.357 157.834 110.168 158.771C110.089 159.205 110.07 159.647 110.113 160.086C110.206 161.784 109.251 161.344 107.832 159.859C105.489 157.393 101.888 152.062 99.7789 148.802C99.1673 147.883 98.6882 147.121 98.3815 146.65C98.1592 146.298 98.0385 146.095 98.0385 146.095C98.2773 145.039 98.8876 144.105 99.7579 143.463C101.552 142.008 103.647 140.969 105.89 140.419C107.445 140.032 109.035 139.801 110.636 139.73C111.239 139.708 111.823 139.515 112.32 139.173L112.33 139.168C112.594 138.917 112.8 138.611 112.933 138.272C113.066 137.933 113.123 137.569 113.099 137.205C113.193 135.383 115.452 135.022 117.776 135.014C119.965 135.02 122.226 135.325 122.787 134.991C123.594 134.511 141.487 108.159 152.902 91.2727C155.411 87.5618 159.268 84.9762 163.654 84.0659C168.039 83.1555 172.607 83.9923 176.385 86.3982L184.378 91.4886C187.374 92.6767 189.787 94.9894 191.101 97.9326C192.08 100.457 192.262 103.221 191.623 105.852C190.726 109.553 189.162 113.06 187.006 116.199C175.961 133.339 140.774 150.322 130.524 154.165Z" fill="#6C63FF"/>
<path d="M276.011 121.858L280.059 127.499L280.993 128.805L282.503 130.894L313.748 174.429C315.113 175.273 316.159 176.546 316.723 178.048C317.287 179.55 317.338 181.197 316.866 182.731C316.309 184.489 315.077 185.954 313.441 186.805C311.804 187.655 309.897 187.821 308.138 187.266C308.075 187.246 308.021 187.219 307.959 187.199C306.159 186.595 304.665 185.313 303.795 183.626C302.925 181.938 302.747 179.978 303.299 178.161C303.422 177.795 303.573 177.439 303.752 177.096L302.725 176.008L299.509 172.591L297.08 170.01L292.237 164.88L290.363 162.889L284.284 156.436L278.422 150.21L271.315 142.668L265.85 136.872L267.509 134.421L276.011 121.858Z" fill="#FFB6B6"/>
<path d="M272.627 109.685C273.153 110.456 273.59 111.284 273.932 112.152C274.52 114.999 271.518 112.957 276.597 117.472C280.714 121.141 277.382 123.182 279.193 123.138C282.185 123.068 280.398 125.798 280.059 127.499C279.903 128.255 280.038 128.796 280.994 128.805C281.434 128.801 281.873 128.735 282.296 128.611C283.945 128.199 283.694 129.219 282.503 130.894C280.523 133.661 275.969 138.203 273.165 140.89C272.379 141.664 271.721 142.278 271.316 142.668C271.012 142.953 270.835 143.11 270.835 143.11C269.754 143.075 268.722 142.652 267.926 141.918C266.159 140.431 264.743 138.57 263.779 136.471C263.106 135.017 262.579 133.499 262.206 131.941C262.071 131.353 261.771 130.816 261.342 130.392L261.335 130.384C261.039 130.171 260.699 130.026 260.341 129.96C259.983 129.893 259.615 129.906 259.262 129.998C257.455 130.25 256.674 128.101 256.227 125.82C255.82 123.669 255.692 121.391 255.259 120.903C254.34 119.869 227.819 104.105 227.819 104.105L200.909 68.6335C201.51 65.4669 203.326 62.6607 205.968 60.8147C208.263 59.3771 210.942 58.6764 213.647 58.8068C217.451 58.9887 221.189 59.8629 224.68 61.3867C243.596 68.9972 266.918 100.345 272.627 109.685Z" fill="#6C63FF"/>
<path d="M172.729 54.4415C185.462 54.4415 195.785 44.1191 195.785 31.3858C195.785 18.6525 185.462 8.33008 172.729 8.33008C159.996 8.33008 149.673 18.6525 149.673 31.3858C149.673 44.1191 159.996 54.4415 172.729 54.4415Z" fill="#FFB6B6"/>
<path d="M198.991 36.2434C198.991 36.2434 194.231 42.9934 191.261 45.4034C191.291 41.8934 190.711 36.0434 190.741 32.5434C190.851 30.7057 190.665 28.8622 190.191 27.0834C189.942 26.1968 189.485 25.3828 188.857 24.7094C188.229 24.0361 187.448 23.5231 186.581 23.2134C185.727 22.9689 184.817 22.9994 183.98 23.3008C183.144 23.6021 182.424 24.1588 181.922 24.8922C181.42 25.6256 181.161 26.4985 181.182 27.3871C181.204 28.2757 181.504 29.135 182.041 29.8434C180.541 30.1534 179.241 28.7034 178.651 27.2834C178.061 25.8634 177.751 24.2234 176.591 23.2034C175.996 22.7432 175.293 22.4428 174.549 22.3308C173.806 22.2188 173.045 22.2988 172.341 22.5634C170.936 23.1016 169.666 23.9413 168.621 25.0234C165.471 27.9534 162.861 31.5134 159.251 33.8734C158.527 34.3473 157.761 34.7524 156.961 35.0834C156.323 32.6806 154.879 30.5697 152.871 29.1034C153.278 31.3943 153.254 33.7411 152.801 36.0234C150.788 36.1845 148.789 35.5731 147.211 34.3134C145.517 32.7762 144.449 30.6685 144.211 28.3934C144.076 27.3624 144.046 26.3204 144.121 25.2834C144.665 24.981 145.177 24.626 145.651 24.2234C146.705 23.3628 147.578 22.3025 148.221 21.1034C147.01 21.4962 145.759 21.7511 144.491 21.8634C144.501 21.7834 144.511 21.7134 144.521 21.6334C144.659 19.9123 145.23 18.2541 146.181 16.8134C147.241 15.4634 149.251 14.6934 150.741 15.5634C151.588 12.7753 152.982 10.1838 154.841 7.94019C156.7 5.6966 158.988 3.84587 161.57 2.49603C164.153 1.1462 166.978 0.324288 169.882 0.0783098C172.785 -0.167668 175.709 0.16722 178.481 1.06339C177.893 2.28846 177.55 3.61667 177.471 4.97336C178.595 3.93309 179.849 3.04239 181.201 2.32337C181.864 2.6819 182.433 3.19066 182.864 3.80887C183.295 4.42708 183.574 5.13753 183.681 5.88336C185.591 6.23336 189.251 6.68337 187.951 8.01337C192.98 10.4947 196.901 14.7657 198.943 19.9884C200.986 25.2112 201.003 31.0087 198.991 36.2434Z" fill="#2F2E41"/>
<path d="M121.67 264H8.33001C6.12152 263.996 4.00421 262.569 2.44257 260.032C0.880932 257.495 0.00249487 254.055 0 250.467V177.533C0.00249487 173.945 0.880933 170.505 2.44257 167.968C4.00421 165.431 6.12152 164.004 8.33001 164H121.67C123.878 164.004 125.996 165.431 127.557 167.968C129.119 170.505 129.998 173.945 130 177.533V250.467C129.998 254.055 129.119 257.495 127.557 260.032C125.996 262.569 123.878 263.996 121.67 264V264Z" fill="#4B5563"/>
<path d="M121.67 264H8.33001C6.12152 263.996 4.00421 262.569 2.44257 260.032C0.880932 257.495 0.00249487 254.055 0 250.467V177.533C0.00249487 173.945 0.880933 170.505 2.44257 167.968C4.00421 165.431 6.12152 164.004 8.33001 164H121.67C123.878 164.004 125.996 165.431 127.557 167.968C129.119 170.505 129.998 173.945 130 177.533V250.467C129.998 254.055 129.119 257.495 127.557 260.032C125.996 262.569 123.878 263.996 121.67 264V264ZM30.2348 165.493C22.4597 165.493 15.003 170.51 9.50521 179.442C4.00737 188.373 0.918728 200.487 0.918728 213.119V250.467C0.918728 252.048 1.11043 253.614 1.48288 255.075C1.85533 256.536 2.40123 257.863 3.08944 258.981C3.77764 260.099 4.59466 260.986 5.49383 261.591C6.39301 262.196 7.35675 262.507 8.33001 262.507H121.67C122.643 262.507 123.607 262.196 124.506 261.591C125.405 260.986 126.222 260.099 126.911 258.981C127.599 257.863 128.145 256.536 128.517 255.075C128.89 253.614 129.081 252.048 129.081 250.467V177.533C129.081 174.339 128.3 171.277 126.911 169.019C125.521 166.761 123.636 165.493 121.67 165.493H30.2348Z" fill="#374151"/>
<path d="M33.32 221.86H30.52L24.18 212.28V221.86H21.38V207.88H24.18L30.52 217.48V207.88H33.32V221.86ZM41.007 222.04C39.9404 222.04 38.9804 221.807 38.127 221.34C37.2737 220.86 36.6004 220.187 36.107 219.32C35.627 218.453 35.387 217.453 35.387 216.32C35.387 215.187 35.6337 214.187 36.127 213.32C36.6337 212.453 37.3204 211.787 38.187 211.32C39.0537 210.84 40.0204 210.6 41.087 210.6C42.1537 210.6 43.1204 210.84 43.987 211.32C44.8537 211.787 45.5337 212.453 46.027 213.32C46.5337 214.187 46.787 215.187 46.787 216.32C46.787 217.453 46.527 218.453 46.007 219.32C45.5004 220.187 44.807 220.86 43.927 221.34C43.0604 221.807 42.087 222.04 41.007 222.04ZM41.007 219.6C41.5137 219.6 41.987 219.48 42.427 219.24C42.8804 218.987 43.2404 218.613 43.507 218.12C43.7737 217.627 43.907 217.027 43.907 216.32C43.907 215.267 43.627 214.46 43.067 213.9C42.5204 213.327 41.847 213.04 41.047 213.04C40.247 213.04 39.5737 213.327 39.027 213.9C38.4937 214.46 38.227 215.267 38.227 216.32C38.227 217.373 38.487 218.187 39.007 218.76C39.5404 219.32 40.207 219.6 41.007 219.6ZM52.8866 216.32C52.8866 215.173 53.1199 214.173 53.5866 213.32C54.0532 212.453 54.6999 211.787 55.5266 211.32C56.3532 210.84 57.2999 210.6 58.3666 210.6C59.7399 210.6 60.8732 210.947 61.7666 211.64C62.6732 212.32 63.2799 213.28 63.5866 214.52H60.5666C60.4066 214.04 60.1332 213.667 59.7466 213.4C59.3732 213.12 58.9066 212.98 58.3466 212.98C57.5466 212.98 56.9132 213.273 56.4466 213.86C55.9799 214.433 55.7466 215.253 55.7466 216.32C55.7466 217.373 55.9799 218.193 56.4466 218.78C56.9132 219.353 57.5466 219.64 58.3466 219.64C59.4799 219.64 60.2199 219.133 60.5666 218.12H63.5866C63.2799 219.32 62.6732 220.273 61.7666 220.98C60.8599 221.687 59.7266 222.04 58.3666 222.04C57.2999 222.04 56.3532 221.807 55.5266 221.34C54.6999 220.86 54.0532 220.193 53.5866 219.34C53.1199 218.473 52.8866 217.467 52.8866 216.32ZM71.8778 210.62C72.7178 210.62 73.4645 210.807 74.1178 211.18C74.7711 211.54 75.2778 212.08 75.6378 212.8C76.0111 213.507 76.1978 214.36 76.1978 215.36V221.86H73.3978V215.74C73.3978 214.86 73.1778 214.187 72.7378 213.72C72.2978 213.24 71.6978 213 70.9378 213C70.1645 213 69.5511 213.24 69.0978 213.72C68.6578 214.187 68.4378 214.86 68.4378 215.74V221.86H65.6378V207.06H68.4378V212.16C68.7978 211.68 69.2778 211.307 69.8778 211.04C70.4778 210.76 71.1445 210.62 71.8778 210.62ZM78.1405 216.28C78.1405 215.16 78.3605 214.167 78.8005 213.3C79.2538 212.433 79.8605 211.767 80.6205 211.3C81.3938 210.833 82.2538 210.6 83.2005 210.6C84.0271 210.6 84.7471 210.767 85.3605 211.1C85.9871 211.433 86.4871 211.853 86.8605 212.36V210.78H89.6805V221.86H86.8605V220.24C86.5005 220.76 86.0005 221.193 85.3605 221.54C84.7338 221.873 84.0071 222.04 83.1805 222.04C82.2471 222.04 81.3938 221.8 80.6205 221.32C79.8605 220.84 79.2538 220.167 78.8005 219.3C78.3605 218.42 78.1405 217.413 78.1405 216.28ZM86.8605 216.32C86.8605 215.64 86.7271 215.06 86.4605 214.58C86.1938 214.087 85.8338 213.713 85.3805 213.46C84.9271 213.193 84.4405 213.06 83.9205 213.06C83.4005 213.06 82.9205 213.187 82.4805 213.44C82.0405 213.693 81.6805 214.067 81.4005 214.56C81.1338 215.04 81.0005 215.613 81.0005 216.28C81.0005 216.947 81.1338 217.533 81.4005 218.04C81.6805 218.533 82.0405 218.913 82.4805 219.18C82.9338 219.447 83.4138 219.58 83.9205 219.58C84.4405 219.58 84.9271 219.453 85.3805 219.2C85.8338 218.933 86.1938 218.56 86.4605 218.08C86.7271 217.587 86.8605 217 86.8605 216.32ZM95.6752 213.08V218.44C95.6752 218.813 95.7618 219.087 95.9352 219.26C96.1218 219.42 96.4285 219.5 96.8552 219.5H98.1552V221.86H96.3952C94.0352 221.86 92.8552 220.713 92.8552 218.42V213.08H91.5352V210.78H92.8552V208.04H95.6752V210.78H98.1552V213.08H95.6752ZM104.409 222.04C103.502 222.04 102.689 221.88 101.969 221.56C101.249 221.227 100.676 220.78 100.249 220.22C99.8357 219.66 99.6091 219.04 99.5691 218.36H102.389C102.442 218.787 102.649 219.14 103.009 219.42C103.382 219.7 103.842 219.84 104.389 219.84C104.922 219.84 105.336 219.733 105.629 219.52C105.936 219.307 106.089 219.033 106.089 218.7C106.089 218.34 105.902 218.073 105.529 217.9C105.169 217.713 104.589 217.513 103.789 217.3C102.962 217.1 102.282 216.893 101.749 216.68C101.229 216.467 100.776 216.14 100.389 215.7C100.016 215.26 99.8291 214.667 99.8291 213.92C99.8291 213.307 100.002 212.747 100.349 212.24C100.709 211.733 101.216 211.333 101.869 211.04C102.536 210.747 103.316 210.6 104.209 210.6C105.529 210.6 106.582 210.933 107.369 211.6C108.156 212.253 108.589 213.14 108.669 214.26H105.989C105.949 213.82 105.762 213.473 105.429 213.22C105.109 212.953 104.676 212.82 104.129 212.82C103.622 212.82 103.229 212.913 102.949 213.1C102.682 213.287 102.549 213.547 102.549 213.88C102.549 214.253 102.736 214.54 103.109 214.74C103.482 214.927 104.062 215.12 104.849 215.32C105.649 215.52 106.309 215.727 106.829 215.94C107.349 216.153 107.796 216.487 108.169 216.94C108.556 217.38 108.756 217.967 108.769 218.7C108.769 219.34 108.589 219.913 108.229 220.42C107.882 220.927 107.376 221.327 106.709 221.62C106.056 221.9 105.289 222.04 104.409 222.04Z" fill="white"/>
</svg>
