<svg width="357" height="456" viewBox="0 0 357 456" fill="none" xmlns="http://www.w3.org/2000/svg">
<path d="M219.662 445.39L209.761 445.389L205.051 407.199L219.664 407.2L219.662 445.39Z" fill="#FFB6B6"/>
<path d="M220.011 455.719L189.564 455.718V455.333C189.564 452.19 190.813 449.176 193.035 446.953C195.257 444.731 198.272 443.482 201.414 443.482H201.415L206.977 439.263L217.353 443.483H220.011L220.011 455.719Z" fill="#2F2E41"/>
<path d="M348.03 391.1L341.635 398.658L309.436 377.59L318.874 366.434L348.03 391.1Z" fill="#FFB6B6"/>
<path d="M356.141 397.504L336.477 420.749L336.183 420.501C333.783 418.471 332.288 415.571 332.027 412.439C331.765 409.307 332.759 406.199 334.788 403.799L334.789 403.799L335.159 396.828L345.083 391.631L346.799 389.602L356.141 397.504Z" fill="#2F2E41"/>
<path d="M268 164.491L214.921 170.649L194 206.491L191 218.491L192.358 226.741L189 232.491L191 243.491L183 330.491L205 428.491H225.5L219 337.491L236 259.491L251 335.491L320.37 395.903L336.528 372.739L283 327.491L278 311.491L284.737 297.963L290 208.491L268 164.491Z" fill="#2F2E41"/>
<path d="M245.5 201.991C245.5 201.991 280.508 203.788 281 191.491C281.492 179.193 273.616 166.164 270 165.491C266.384 164.817 267.697 153.991 269.598 146.491C271.5 138.991 270.021 135.511 267.76 135.251C265.5 134.991 213 63.4907 213 63.4907L201.5 63.9907L190 55.4907L172 62.4907L168 78.4907L157 88.4907L163.299 132.453C163.299 132.453 170.275 150.197 179.864 168.288C182.848 173.917 186.084 179.579 189.442 184.751C197.351 196.933 205.933 206.395 213.472 206.288C234.5 205.991 245.5 201.991 245.5 201.991Z" fill="#6C63FF"/>
<path d="M115.669 155.277L109.366 158.187L107.907 158.858L105.571 159.946L56.9192 182.409C55.8325 183.59 54.385 184.377 52.8033 184.647C51.2217 184.918 49.595 184.656 48.1777 183.904C46.5563 183.025 45.35 181.538 44.824 179.771C44.298 178.003 44.4953 176.099 45.3724 174.476C45.4035 174.418 45.4403 174.37 45.4714 174.313C46.4046 172.659 47.9456 171.434 49.7671 170.899C51.5887 170.363 53.5474 170.558 55.2272 171.443C55.5636 171.633 55.8845 171.849 56.1871 172.089L57.4499 171.286L61.412 168.773L64.4055 166.876L70.3574 163.088L72.6663 161.624L80.1517 156.872L87.3722 152.291L96.1204 146.737L102.844 142.464L104.938 144.556L115.669 155.277Z" fill="#FFB6B6"/>
<path d="M128.263 154.253C127.406 154.623 126.511 154.896 125.594 155.068C122.687 155.108 125.259 152.545 119.866 156.68C115.486 160.031 114.11 156.374 113.812 158.161C113.316 161.112 110.972 158.842 109.366 158.187C108.653 157.891 108.096 157.922 107.907 158.858C107.828 159.292 107.809 159.735 107.851 160.174C107.945 161.871 106.99 161.431 105.571 159.946C103.227 157.48 99.6264 152.15 97.5177 148.889C96.9061 147.971 96.427 147.209 96.1203 146.737C95.898 146.385 95.7773 146.182 95.7773 146.182C96.0161 145.127 96.6264 144.193 97.4967 143.55C99.2913 142.096 101.385 141.056 103.629 140.506C105.184 140.119 106.774 139.889 108.375 139.817C108.977 139.795 109.561 139.602 110.059 139.261L110.069 139.255C110.333 139.004 110.539 138.699 110.672 138.36C110.805 138.02 110.862 137.656 110.838 137.292C110.932 135.47 113.19 135.109 115.515 135.101C117.704 135.108 119.965 135.412 120.526 135.078C121.333 134.599 139.225 108.246 150.641 91.3599C153.15 87.6491 157.007 85.0635 161.392 84.1531C165.778 83.2428 170.346 84.0796 174.124 86.4855L182.117 91.5758C185.113 92.764 187.526 95.0767 188.84 98.0198C189.818 100.545 190 103.308 189.362 105.94C188.465 109.641 186.9 113.147 184.745 116.287C173.7 133.426 138.512 150.409 128.263 154.253Z" fill="#6C63FF"/>
<path d="M273.749 121.946L277.798 127.586L278.732 128.892L280.242 130.981L311.487 174.516C312.851 175.36 313.898 176.633 314.462 178.135C315.026 179.637 315.076 181.284 314.605 182.818C314.048 184.576 312.816 186.041 311.179 186.892C309.543 187.742 307.635 187.908 305.877 187.353C305.814 187.333 305.76 187.306 305.697 187.287C303.897 186.682 302.404 185.4 301.534 183.713C300.663 182.025 300.485 180.065 301.037 178.248C301.16 177.882 301.312 177.526 301.491 177.184L300.464 176.095L297.248 172.679L294.819 170.097L289.976 164.968L288.102 162.977L282.023 156.523L276.161 150.297L269.054 142.755L263.589 136.96L265.248 134.508L273.749 121.946Z" fill="#FFB6B6"/>
<path d="M270.366 109.772C270.891 110.543 271.329 111.371 271.67 112.239C272.259 115.086 269.257 113.045 274.335 117.559C278.452 121.228 275.121 123.27 276.932 123.225C279.924 123.155 278.137 125.885 277.798 127.586C277.642 128.342 277.777 128.884 278.732 128.892C279.173 128.888 279.611 128.823 280.034 128.698C281.684 128.286 281.432 129.307 280.242 130.981C278.262 133.748 273.708 138.29 270.904 140.977C270.117 141.751 269.46 142.365 269.054 142.756C268.751 143.04 268.574 143.197 268.574 143.197C267.493 143.162 266.46 142.739 265.665 142.006C263.898 140.518 262.482 138.658 261.518 136.558C260.845 135.104 260.318 133.587 259.945 132.028C259.81 131.44 259.51 130.903 259.081 130.479L259.073 130.471C258.777 130.258 258.438 130.114 258.08 130.047C257.722 129.98 257.353 129.994 257.001 130.086C255.194 130.337 254.412 128.188 253.966 125.907C253.559 123.756 253.431 121.478 252.998 120.99C252.079 119.956 225.558 104.193 225.558 104.193L198.648 68.7208C199.249 65.5541 201.065 62.748 203.707 60.902C206.001 59.4644 208.681 58.7637 211.386 58.894C215.19 59.076 218.928 59.9502 222.418 61.4739C241.335 69.0845 264.656 100.433 270.366 109.772Z" fill="#6C63FF"/>
<path d="M170.468 54.5288C183.201 54.5288 193.524 44.2064 193.524 31.4731C193.524 18.7397 183.201 8.41736 170.468 8.41736C157.735 8.41736 147.412 18.7397 147.412 31.4731C147.412 44.2064 157.735 54.5288 170.468 54.5288Z" fill="#FFB6B6"/>
<path d="M196.73 36.3307C196.73 36.3307 191.97 43.0807 189 45.4907C189.03 41.9807 188.45 36.1306 188.48 32.6306C188.59 30.7929 188.404 28.9495 187.93 27.1707C187.681 26.2841 187.224 25.4701 186.596 24.7967C185.967 24.1234 185.187 23.6104 184.32 23.3007C183.465 23.0562 182.556 23.0867 181.719 23.388C180.883 23.6894 180.163 24.2461 179.661 24.9795C179.158 25.7129 178.9 26.5858 178.921 27.4744C178.943 28.363 179.243 29.2223 179.78 29.9307C178.28 30.2407 176.98 28.7906 176.39 27.3706C175.8 25.9506 175.49 24.3107 174.33 23.2907C173.735 22.8305 173.032 22.5301 172.288 22.4181C171.544 22.306 170.784 22.3861 170.08 22.6507C168.675 23.1889 167.405 24.0286 166.36 25.1107C163.21 28.0407 160.6 31.6007 156.99 33.9607C156.266 34.4346 155.499 34.8397 154.7 35.1707C154.061 32.7679 152.618 30.6569 150.61 29.1906C151.017 31.4816 150.993 33.8284 150.54 36.1107C148.527 36.2718 146.528 35.6604 144.95 34.4007C143.256 32.8635 142.188 30.7558 141.95 28.4807C141.815 27.4497 141.785 26.4077 141.86 25.3706C142.403 25.0683 142.916 24.7133 143.39 24.3106C144.444 23.4501 145.317 22.3898 145.96 21.1906C144.749 21.5834 143.498 21.8384 142.23 21.9507C142.24 21.8707 142.25 21.8006 142.26 21.7206C142.397 19.9996 142.968 18.3414 143.92 16.9007C144.98 15.5507 146.99 14.7807 148.48 15.6507C149.327 12.8626 150.721 10.2711 152.58 8.02747C154.439 5.78388 156.727 3.93315 159.309 2.58331C161.892 1.23348 164.717 0.411568 167.62 0.16559C170.524 -0.0803882 173.447 0.2545 176.22 1.15067C175.632 2.37574 175.289 3.70395 175.21 5.06064C176.334 4.02037 177.588 3.12967 178.94 2.41065C179.603 2.76918 180.172 3.27794 180.603 3.89615C181.033 4.51436 181.313 5.22481 181.42 5.97064C183.33 6.32064 186.99 6.77065 185.69 8.10065C190.719 10.5819 194.639 14.853 196.682 20.0757C198.724 25.2985 198.742 31.0959 196.73 36.3307Z" fill="#2F2E41"/>
<path d="M121.67 264H8.33001C6.12152 263.996 4.00421 262.569 2.44257 260.032C0.880932 257.495 0.00249487 254.055 0 250.467V177.533C0.00249487 173.945 0.880933 170.505 2.44257 167.968C4.00421 165.431 6.12152 164.004 8.33001 164H121.67C123.878 164.004 125.996 165.431 127.557 167.968C129.119 170.505 129.998 173.945 130 177.533V250.467C129.998 254.055 129.119 257.495 127.557 260.032C125.996 262.569 123.878 263.996 121.67 264V264Z" fill="white"/>
<path d="M121.67 264H8.33001C6.12152 263.996 4.00421 262.569 2.44257 260.032C0.880932 257.495 0.00249487 254.055 0 250.467V177.533C0.00249487 173.945 0.880933 170.505 2.44257 167.968C4.00421 165.431 6.12152 164.004 8.33001 164H121.67C123.878 164.004 125.996 165.431 127.557 167.968C129.119 170.505 129.998 173.945 130 177.533V250.467C129.998 254.055 129.119 257.495 127.557 260.032C125.996 262.569 123.878 263.996 121.67 264V264ZM30.2348 165.493C22.4597 165.493 15.003 170.51 9.50521 179.442C4.00737 188.373 0.918728 200.487 0.918728 213.119V250.467C0.918728 252.048 1.11043 253.614 1.48288 255.075C1.85533 256.536 2.40123 257.863 3.08944 258.981C3.77764 260.099 4.59466 260.986 5.49383 261.591C6.39301 262.196 7.35675 262.507 8.33001 262.507H121.67C122.643 262.507 123.607 262.196 124.506 261.591C125.405 260.986 126.222 260.099 126.911 258.981C127.599 257.863 128.145 256.536 128.517 255.075C128.89 253.614 129.081 252.048 129.081 250.467V177.533C129.081 174.339 128.3 171.277 126.911 169.019C125.521 166.761 123.636 165.493 121.67 165.493H30.2348Z" fill="#E6E6E6"/>
<path d="M33.5812 221.78H30.7812L24.4412 212.2V221.78H21.6412V207.8H24.4412L30.7812 217.4V207.8H33.5812V221.78ZM41.2682 221.96C40.2016 221.96 39.2416 221.726 38.3882 221.26C37.5349 220.78 36.8616 220.106 36.3682 219.24C35.8882 218.373 35.6482 217.373 35.6482 216.24C35.6482 215.106 35.8949 214.106 36.3882 213.24C36.8949 212.373 37.5816 211.706 38.4482 211.24C39.3149 210.76 40.2816 210.52 41.3482 210.52C42.4149 210.52 43.3816 210.76 44.2482 211.24C45.1149 211.706 45.7949 212.373 46.2882 213.24C46.7949 214.106 47.0482 215.106 47.0482 216.24C47.0482 217.373 46.7882 218.373 46.2682 219.24C45.7616 220.106 45.0682 220.78 44.1882 221.26C43.3216 221.726 42.3482 221.96 41.2682 221.96ZM41.2682 219.52C41.7749 219.52 42.2482 219.4 42.6882 219.16C43.1416 218.906 43.5016 218.533 43.7682 218.04C44.0349 217.546 44.1682 216.946 44.1682 216.24C44.1682 215.186 43.8882 214.38 43.3282 213.82C42.7816 213.246 42.1082 212.96 41.3082 212.96C40.5082 212.96 39.8349 213.246 39.2882 213.82C38.7549 214.38 38.4882 215.186 38.4882 216.24C38.4882 217.293 38.7482 218.106 39.2682 218.68C39.8016 219.24 40.4682 219.52 41.2682 219.52ZM53.1478 216.24C53.1478 215.093 53.3811 214.093 53.8478 213.24C54.3144 212.373 54.9611 211.706 55.7878 211.24C56.6144 210.76 57.5611 210.52 58.6278 210.52C60.0011 210.52 61.1344 210.866 62.0278 211.56C62.9344 212.24 63.5411 213.2 63.8478 214.44H60.8278C60.6678 213.96 60.3944 213.586 60.0078 213.32C59.6344 213.04 59.1678 212.9 58.6078 212.9C57.8078 212.9 57.1744 213.193 56.7078 213.78C56.2411 214.353 56.0078 215.173 56.0078 216.24C56.0078 217.293 56.2411 218.113 56.7078 218.7C57.1744 219.273 57.8078 219.56 58.6078 219.56C59.7411 219.56 60.4811 219.053 60.8278 218.04H63.8478C63.5411 219.24 62.9344 220.193 62.0278 220.9C61.1211 221.606 59.9878 221.96 58.6278 221.96C57.5611 221.96 56.6144 221.726 55.7878 221.26C54.9611 220.78 54.3144 220.113 53.8478 219.26C53.3811 218.393 53.1478 217.386 53.1478 216.24ZM72.139 210.54C72.979 210.54 73.7257 210.726 74.379 211.1C75.0323 211.46 75.539 212 75.899 212.72C76.2723 213.426 76.459 214.28 76.459 215.28V221.78H73.659V215.66C73.659 214.78 73.439 214.106 72.999 213.64C72.559 213.16 71.959 212.92 71.199 212.92C70.4257 212.92 69.8123 213.16 69.359 213.64C68.919 214.106 68.699 214.78 68.699 215.66V221.78H65.899V206.98H68.699V212.08C69.059 211.6 69.539 211.226 70.139 210.96C70.739 210.68 71.4057 210.54 72.139 210.54ZM78.4017 216.2C78.4017 215.08 78.6217 214.086 79.0617 213.22C79.515 212.353 80.1217 211.686 80.8817 211.22C81.655 210.753 82.515 210.52 83.4617 210.52C84.2883 210.52 85.0083 210.686 85.6217 211.02C86.2483 211.353 86.7483 211.773 87.1217 212.28V210.7H89.9417V221.78H87.1217V220.16C86.7617 220.68 86.2617 221.113 85.6217 221.46C84.995 221.793 84.2683 221.96 83.4417 221.96C82.5083 221.96 81.655 221.72 80.8817 221.24C80.1217 220.76 79.515 220.086 79.0617 219.22C78.6217 218.34 78.4017 217.333 78.4017 216.2ZM87.1217 216.24C87.1217 215.56 86.9883 214.98 86.7217 214.5C86.455 214.006 86.095 213.633 85.6417 213.38C85.1883 213.113 84.7017 212.98 84.1817 212.98C83.6617 212.98 83.1817 213.106 82.7417 213.36C82.3017 213.613 81.9417 213.986 81.6617 214.48C81.395 214.96 81.2617 215.533 81.2617 216.2C81.2617 216.866 81.395 217.453 81.6617 217.96C81.9417 218.453 82.3017 218.833 82.7417 219.1C83.195 219.366 83.675 219.5 84.1817 219.5C84.7017 219.5 85.1883 219.373 85.6417 219.12C86.095 218.853 86.455 218.48 86.7217 218C86.9883 217.506 87.1217 216.92 87.1217 216.24ZM95.9364 213V218.36C95.9364 218.733 96.023 219.006 96.1964 219.18C96.383 219.34 96.6897 219.42 97.1164 219.42H98.4164V221.78H96.6564C94.2964 221.78 93.1164 220.633 93.1164 218.34V213H91.7964V210.7H93.1164V207.96H95.9364V210.7H98.4164V213H95.9364ZM104.67 221.96C103.764 221.96 102.95 221.8 102.23 221.48C101.51 221.146 100.937 220.7 100.51 220.14C100.097 219.58 99.8703 218.96 99.8303 218.28H102.65C102.704 218.706 102.91 219.06 103.27 219.34C103.644 219.62 104.104 219.76 104.65 219.76C105.184 219.76 105.597 219.653 105.89 219.44C106.197 219.226 106.35 218.953 106.35 218.62C106.35 218.26 106.164 217.993 105.79 217.82C105.43 217.633 104.85 217.433 104.05 217.22C103.224 217.02 102.544 216.813 102.01 216.6C101.49 216.386 101.037 216.06 100.65 215.62C100.277 215.18 100.09 214.586 100.09 213.84C100.09 213.226 100.264 212.666 100.61 212.16C100.97 211.653 101.477 211.253 102.13 210.96C102.797 210.666 103.577 210.52 104.47 210.52C105.79 210.52 106.844 210.853 107.63 211.52C108.417 212.173 108.85 213.06 108.93 214.18H106.25C106.21 213.74 106.024 213.393 105.69 213.14C105.37 212.873 104.937 212.74 104.39 212.74C103.884 212.74 103.49 212.833 103.21 213.02C102.944 213.206 102.81 213.466 102.81 213.8C102.81 214.173 102.997 214.46 103.37 214.66C103.744 214.846 104.324 215.04 105.11 215.24C105.91 215.44 106.57 215.646 107.09 215.86C107.61 216.073 108.057 216.406 108.43 216.86C108.817 217.3 109.017 217.886 109.03 218.62C109.03 219.26 108.85 219.833 108.49 220.34C108.144 220.846 107.637 221.246 106.97 221.54C106.317 221.82 105.55 221.96 104.67 221.96Z" fill="#2F2E41"/>
</svg>
