<svg width="238" height="554" viewBox="0 0 238 554" fill="none" xmlns="http://www.w3.org/2000/svg">
<path d="M197.584 6.39279C197.569 6.44439 197.554 6.48972 197.539 6.54132C197.504 6.64026 197.476 6.74142 197.454 6.84411C197.27 7.50282 197.169 8.18221 197.154 8.86619C197.145 9.15801 197.153 9.4501 197.176 9.7411C197.204 10.1145 197.258 10.4855 197.336 10.8516C197.419 11.2591 197.534 11.6595 197.679 12.049C197.745 12.2341 197.82 12.4157 197.904 12.5933C198.444 13.8047 199.258 14.8744 200.282 15.718C201.306 16.5616 202.511 17.1563 203.804 17.4553L203.81 17.4548C203.937 17.4876 204.065 17.5136 204.195 17.5328C204.915 17.6638 205.649 17.7013 206.379 17.6444L206.391 17.6435C208.171 17.5085 209.864 16.8174 211.23 15.6678C212.066 14.9736 212.158 14.2404 213.202 14.5657C216.534 15.6034 218.76 10.1131 217.094 7.10568C217.096 6.99233 217.092 6.87894 217.081 6.76608C216.922 4.66548 213.759 4.12998 211.915 3.01503L211.906 3.0522C211.82 3.37797 211.634 3.66867 211.375 3.88368C211.115 4.09868 210.795 4.22724 210.459 4.25135C210.123 4.27547 209.788 4.19394 209.5 4.01817C209.213 3.8424 208.987 3.58118 208.855 3.27104C208.518 2.45871 208.212 1.63527 207.937 0.800717C204.403 -1.74549 194.959 2.23287 197.584 6.39279Z" fill="#2F2E41"/>
<path d="M175.42 25.4553C174.938 26.5768 160.099 26.4567 159.42 27.4553C154.18 35.1653 173.069 67.9695 167.829 75.6896L167.099 76.5596C168.808 75.7717 170.451 74.8453 172.009 73.7896C172.149 70.6296 172.289 67.4596 172.439 64.2996C174.008 66.3074 175.275 68.5344 176.199 70.9096C177.419 70.0496 178.42 68.4553 183.649 65.3196C185.766 62.994 188.206 60.985 190.895 59.3544L175.42 25.4553Z" fill="#2F2E41"/>
<path d="M186.195 88.6431C184.558 87.5764 182.689 86.9156 180.745 86.7155C178.801 86.5154 176.838 86.7817 175.017 87.4925C173.197 88.2033 171.572 89.338 170.278 90.8025C168.983 92.2669 168.057 94.0189 167.576 95.913L145.026 154.669L106.264 132.664C106.094 130.134 105.127 127.724 103.502 125.778C101.878 123.832 99.6783 122.451 97.2198 121.832C94.7613 121.213 92.17 121.389 89.8176 122.334C87.4652 123.279 85.4726 124.945 84.1255 127.093C82.7783 129.24 82.146 131.759 82.319 134.289C82.4921 136.818 83.4617 139.227 85.0887 141.171C86.7158 143.115 88.9168 144.494 91.376 145.11C93.8351 145.726 96.4262 145.547 98.7775 144.599C106.94 153.311 142.329 189.031 156.979 175.074C169.294 163.343 187.065 117.878 191.343 102.178C192.028 99.6677 191.899 97.0045 190.974 94.5721C190.049 92.1397 188.376 90.0637 186.195 88.6431Z" fill="#FFB6B6"/>
<path d="M197.594 531.961L186.117 531.96L180.656 487.69H197.596L197.594 531.961Z" fill="#A0616A"/>
<path d="M162.952 548.895C162.957 550.181 163.47 551.413 164.378 552.323C165.286 553.233 166.517 553.748 167.803 553.756H189.409L190.078 552.369L193.134 546.062L194.318 552.369L194.58 553.756H202.73L202.613 552.359L200.44 526.299L197.597 526.125L185.315 525.397L182.297 525.213V532.994C180.008 535.429 162.04 544.636 162.952 548.895Z" fill="#2F2E41"/>
<path d="M152.775 523.056L141.944 526.854L122.141 486.885L138.127 481.28L152.775 523.056Z" fill="#A0616A"/>
<path d="M125.689 550.501C126.12 551.713 127.011 552.705 128.169 553.263C129.327 553.822 130.659 553.9 131.875 553.483L152.264 546.332L152.436 544.802L153.233 537.839L156.437 543.399L157.144 544.621L164.834 541.924L164.262 540.644L153.587 516.772L150.847 517.548L139.016 520.926L136.107 521.751L138.682 529.094C137.327 532.149 123.419 546.784 125.689 550.501Z" fill="#2F2E41"/>
<path d="M143.852 177.536L150.968 209.7L203.004 214.407L207.786 186.401L143.852 177.536Z" fill="#FFB6B6"/>
<path d="M206.478 200.135L147.922 199.157L146.663 216.251L101.445 352.176L93.4103 385.595L116.44 509.68L155.44 509.655C155.44 509.655 154.631 477.055 153.075 475.704C151.518 474.353 148.269 475.724 150.678 468.763C153.087 461.801 154.865 459.553 152.015 456.755C149.164 453.957 145.718 456.304 147.834 449.639C149.949 442.974 167.208 351.973 167.208 351.973V515.124H207.334C207.334 515.124 215.735 507.45 211.868 503.453C208.001 499.457 204.863 498.672 208.001 493.181C211.139 487.689 217.948 489.073 212.19 482.105C207.616 476.57 218.559 323.913 223.251 261.397C224.518 244.502 219.125 227.781 208.223 214.812L206.478 200.135Z" fill="#2F2E41"/>
<path d="M176.329 73.0557L202.23 71.7214L214.26 90.7305C214.26 90.7305 236.895 94.5148 235.326 121.187C233.757 147.86 207.786 171.265 207.786 171.265L208.896 167.459L206.968 172.968L207.215 176.062L209.846 179.338L210.116 182.726L207.786 188.087L210.955 193.219L144.326 186.764L141.889 177.888L145.443 173.122L143.458 166.905L146.443 160.926L147.999 159.629C147.999 159.629 130.972 134.049 150.518 114.782L158.363 101.446L167.141 90.7366L176.329 73.0557Z" fill="#6C63FF"/>
<path d="M182.776 61.8345C196.34 61.8345 207.337 50.8382 207.337 37.2736C207.337 23.7089 196.34 12.7126 182.776 12.7126C169.211 12.7126 158.215 23.7089 158.215 37.2736C158.215 50.8382 169.211 61.8345 182.776 61.8345Z" fill="#FFB6B6"/>
<path d="M201.43 72.6555C199.43 70.9842 198.038 68.6992 197.47 66.1555C197.016 69.244 197.134 72.3899 197.82 75.4355C196.49 76.4355 195.2 77.3855 193.98 78.2455C193.056 75.8703 191.789 73.6433 190.22 71.6355C190.07 74.7955 189.93 77.9655 189.79 81.1255C188.231 82.1812 186.589 83.1076 184.88 83.8955L185.61 83.0255C190.85 75.3055 177.29 61.0955 182.53 53.3855C184 51.2255 177.36 34.1555 172.3 33.3855C167.8 32.7055 167.99 34.0055 163.63 34.9555C163.177 33.0672 162.474 31.2477 161.54 29.5455C161.789 31.4423 161.731 33.3668 161.37 35.2455C159.82 35.3055 158.6 34.3178 156.95 34.0655C146.42 32.4555 147.49 21.0655 150.42 17.4555C153.36 13.8555 163.12 12.7755 167.62 11.6055C168.03 11.2055 168.96 11.4555 169.37 11.0755C177.994 3.18293 189.528 1.87587 199.907 5.37401C200.84 5.69572 201.746 6.09004 202.617 6.55336C211.427 11.1699 218.967 17.5243 218.42 27.4555C218.163 32.107 217.108 32.831 218.42 35.4555C218.742 36.0995 215.921 42.1632 220.67 42.8093C225.42 43.4555 223.278 47.1224 224.42 48.4555C228.843 53.62 212.991 68.6833 201.43 72.6555Z" fill="#2F2E41"/>
<path d="M237.242 189.019L236.275 113.712C236.225 110.521 234.922 107.478 232.648 105.24C230.374 103.002 227.311 101.747 224.12 101.747C222.469 101.747 220.836 102.083 219.32 102.735C217.803 103.387 216.435 104.341 215.299 105.539C214.164 106.737 213.284 108.153 212.713 109.702C212.143 111.251 211.893 112.9 211.981 114.548L215.384 192.743L215.448 240.344C213.443 241.195 211.748 242.642 210.593 244.489C209.439 246.336 208.882 248.494 208.996 250.67C209.111 252.845 209.893 254.932 211.235 256.648C212.578 258.363 214.415 259.624 216.499 260.258C218.583 260.893 220.812 260.871 222.882 260.195C224.953 259.519 226.765 258.221 228.073 256.479C229.381 254.738 230.121 252.635 230.192 250.458C230.264 248.281 229.663 246.135 228.472 244.311L237.242 189.019Z" fill="#FFB6B6"/>
<path d="M92.3218 150.526H8.22998C3.69189 150.526 0 146.834 0 142.296V59.23C0 54.6919 3.69189 51 8.22998 51H92.3218C96.8599 51 100.552 54.6919 100.552 59.23V142.296C100.552 146.834 96.8599 150.526 92.3218 150.526Z" fill="#E6E6E6"/>
<path d="M23.8906 53.4522C12.0504 53.4522 2.45215 63.0505 2.45215 74.8906V140.534C2.45215 144.698 5.82804 148.074 9.99237 148.074H61.4123C81.6741 148.074 98.0996 131.648 98.0996 111.386V60.9924C98.0996 56.828 94.7237 53.4521 90.5594 53.4521H23.8906V53.4522Z" fill="white"/>
<path d="M25.4402 108.14C24.4669 108.14 23.5869 107.973 22.8002 107.64C22.0269 107.307 21.4136 106.827 20.9602 106.2C20.5069 105.573 20.2736 104.833 20.2602 103.98H23.2602C23.3002 104.553 23.5002 105.007 23.8602 105.34C24.2336 105.673 24.7402 105.84 25.3802 105.84C26.0336 105.84 26.5469 105.687 26.9202 105.38C27.2936 105.06 27.4802 104.647 27.4802 104.14C27.4802 103.727 27.3536 103.387 27.1002 103.12C26.8469 102.853 26.5269 102.647 26.1402 102.5C25.7669 102.34 25.2469 102.167 24.5802 101.98C23.6736 101.713 22.9336 101.453 22.3602 101.2C21.8002 100.933 21.3136 100.54 20.9002 100.02C20.5002 99.4867 20.3002 98.78 20.3002 97.9C20.3002 97.0733 20.5069 96.3533 20.9202 95.74C21.3336 95.1267 21.9136 94.66 22.6602 94.34C23.4069 94.0067 24.2602 93.84 25.2202 93.84C26.6602 93.84 27.8269 94.1933 28.7202 94.9C29.6269 95.5933 30.1269 96.5667 30.2202 97.82H27.1402C27.1136 97.34 26.9069 96.9467 26.5202 96.64C26.1469 96.32 25.6469 96.16 25.0202 96.16C24.4736 96.16 24.0336 96.3 23.7002 96.58C23.3802 96.86 23.2202 97.2667 23.2202 97.8C23.2202 98.1733 23.3402 98.4867 23.5802 98.74C23.8336 98.98 24.1402 99.18 24.5002 99.34C24.8736 99.4867 25.3936 99.66 26.0602 99.86C26.9669 100.127 27.7069 100.393 28.2802 100.66C28.8536 100.927 29.3469 101.327 29.7602 101.86C30.1736 102.393 30.3802 103.093 30.3802 103.96C30.3802 104.707 30.1869 105.4 29.8002 106.04C29.4136 106.68 28.8469 107.193 28.1002 107.58C27.3536 107.953 26.4669 108.14 25.4402 108.14ZM32.0877 102.42C32.0877 101.3 32.3077 100.307 32.7477 99.44C33.2011 98.5733 33.8077 97.9067 34.5677 97.44C35.3411 96.9733 36.2011 96.74 37.1477 96.74C37.9744 96.74 38.6944 96.9067 39.3077 97.24C39.9344 97.5733 40.4344 97.9933 40.8077 98.5V96.92H43.6277V108H40.8077V106.38C40.4477 106.9 39.9477 107.333 39.3077 107.68C38.6811 108.013 37.9544 108.18 37.1277 108.18C36.1944 108.18 35.3411 107.94 34.5677 107.46C33.8077 106.98 33.2011 106.307 32.7477 105.44C32.3077 104.56 32.0877 103.553 32.0877 102.42ZM40.8077 102.46C40.8077 101.78 40.6744 101.2 40.4077 100.72C40.1411 100.227 39.7811 99.8533 39.3277 99.6C38.8744 99.3333 38.3877 99.2 37.8677 99.2C37.3477 99.2 36.8677 99.3267 36.4277 99.58C35.9877 99.8333 35.6277 100.207 35.3477 100.7C35.0811 101.18 34.9477 101.753 34.9477 102.42C34.9477 103.087 35.0811 103.673 35.3477 104.18C35.6277 104.673 35.9877 105.053 36.4277 105.32C36.8811 105.587 37.3611 105.72 37.8677 105.72C38.3877 105.72 38.8744 105.593 39.3277 105.34C39.7811 105.073 40.1411 104.7 40.4077 104.22C40.6744 103.727 40.8077 103.14 40.8077 102.46ZM56.9624 96.92L50.1024 113.24H47.1224L49.5224 107.72L45.0824 96.92H48.2224L51.0824 104.66L53.9824 96.92H56.9624ZM74.8174 94.04V108H72.0174V102.06H66.0374V108H63.2374V94.04H66.0374V99.78H72.0174V94.04H74.8174ZM78.9934 95.6C78.5 95.6 78.0867 95.4467 77.7534 95.14C77.4334 94.82 77.2734 94.4267 77.2734 93.96C77.2734 93.4933 77.4334 93.1067 77.7534 92.8C78.0867 92.48 78.5 92.32 78.9934 92.32C79.4867 92.32 79.8934 92.48 80.2134 92.8C80.5467 93.1067 80.7134 93.4933 80.7134 93.96C80.7134 94.4267 80.5467 94.82 80.2134 95.14C79.8934 95.4467 79.4867 95.6 78.9934 95.6ZM80.3734 96.92V108H77.5734V96.92H80.3734Z" fill="#2F2E41"/>
</svg>
