<svg width="350" height="481" viewBox="0 0 350 481" fill="none" xmlns="http://www.w3.org/2000/svg">
<path d="M110.724 77.3395C111.382 78.3363 112.249 79.1782 113.264 79.8072C114.28 80.4361 115.419 80.837 116.605 80.9821C117.79 81.1272 118.993 81.013 120.13 80.6476C121.267 80.2821 122.311 79.6739 123.19 78.8653L160.655 95.768L167.878 86.5547L123.234 66.8044C121.763 65.4263 119.837 64.6357 117.822 64.5825C115.806 64.5292 113.842 65.2171 112.3 66.5157C110.758 67.8143 109.746 69.6334 109.456 71.6283C109.165 73.6232 109.617 75.6552 110.724 77.3395H110.724Z" fill="#FFB6B6"/>
<path d="M271.508 87.8792L275.224 108.936C275.397 109.918 275.363 110.926 275.124 111.894C274.885 112.862 274.446 113.77 273.835 114.559C273.225 115.348 272.456 116 271.578 116.474C270.701 116.948 269.733 117.233 268.739 117.312L205.6 122.277L131.384 89.0612L140.248 72.234L204.675 92.6362L271.508 87.8792Z" fill="#6C63FF"/>
<path d="M263.531 180.687L240.531 229.687L329.008 220.726L310.539 173.687L263.531 180.687Z" fill="#FFB6B6"/>
<path d="M284.101 462.32L275.712 462.249L271.999 429.138L284.379 429.243L284.101 462.32Z" fill="#FFB6B6"/>
<path d="M257.231 475.659C257.223 476.654 257.611 477.61 258.308 478.32C259.005 479.029 259.955 479.433 260.949 479.442L277.628 479.582L280.548 473.663L281.62 479.612L287.913 479.669L286.324 458.452L284.135 458.307L275.204 457.691L272.323 457.498L272.272 463.501L258.874 472.588C258.372 472.929 257.961 473.386 257.674 473.921C257.388 474.456 257.236 475.053 257.231 475.659Z" fill="#6C63FF"/>
<path d="M191.266 462.358L183.268 459.825L189.447 427.085L201.251 430.822L191.266 462.358Z" fill="#FFB6B6"/>
<path d="M161.663 467.214C161.363 468.162 161.452 469.19 161.91 470.073C162.368 470.956 163.158 471.621 164.105 471.922L180.007 476.956L184.537 472.156L183.814 478.158L189.813 480.061L194.528 459.314L192.477 458.532L184.122 455.319L181.424 454.288L179.612 460.011L164.136 464.761C163.556 464.939 163.028 465.256 162.597 465.683C162.166 466.11 161.846 466.635 161.663 467.214Z" fill="#6C63FF"/>
<path d="M324.978 206.946L244.531 221.687C244.531 221.687 231.628 231.339 235.08 234.796C238.531 238.252 239.067 237.717 236.799 239.985C234.531 242.253 229.628 245.284 229.58 247.268C229.531 249.252 193.531 338.252 193.531 338.252C193.531 338.252 197.531 336.252 194.531 339.252C191.531 342.252 191.531 344.731 191.531 344.731L177.531 439.252L200.268 440.591L222.531 354.418L272.191 273.914C272.191 273.914 277.118 345.703 277.325 350.478C277.531 355.252 280.531 349.252 277.531 355.252C274.531 361.252 272.531 357.252 274.531 361.252C276.531 365.252 267.327 446.687 267.327 446.687H288.08L332.589 277.896C332.589 277.896 348.425 229.64 324.978 206.946Z" fill="white"/>
<path d="M301.28 71.9345L269.055 68.5862L260.706 79.4255L250.98 84.6057C246.864 86.7979 243.466 90.1293 241.194 94.2014C238.921 98.2736 237.87 102.914 238.165 107.568L249.531 173.687C249.531 173.687 239.93 195.306 246.531 200.687C253.132 206.068 241.428 219.394 255.531 212.687C269.635 205.98 330.531 213.687 330.531 213.687L317.531 176.687L327.243 140.33L328.312 109.844C328.511 104.148 326.821 98.5449 323.504 93.9095C320.186 89.274 315.429 85.8663 309.972 84.2174L308.614 83.8071L301.28 71.9345Z" fill="#6C63FF"/>
<path d="M345.644 47.2301C345.855 56.3131 342.461 65.1081 337.584 72.8331C336.135 68.3234 333.531 64.2189 330.814 60.3063C332.183 68.7705 330.725 77.4501 326.664 85.0018C326.521 85.1042 326.373 85.1993 326.22 85.2867C322.245 87.6777 317.206 88.6462 312.906 86.9193C321.79 77.3425 322.921 61.4754 315.472 50.7336C313.363 47.6856 310.636 44.9899 309.33 41.5211C307.268 35.9866 309.25 29.893 310.501 24.1227C311.67 18.7523 311.875 12.3614 308.272 8.42558C308.657 7.87555 309.181 7.43773 309.791 7.15698C310.4 6.87622 311.074 6.76264 311.742 6.82784C313.963 7.14163 315.58 9.0725 316.61 11.0612C317.64 13.0498 318.319 15.2538 319.754 16.9715C322.412 20.1865 326.939 20.9466 330.753 22.641C339.991 26.7556 345.423 37.1232 345.644 47.2301Z" fill="#4B5563"/>
<path d="M267.886 42.0369C268.414 40.1893 264.776 51.4832 266.531 51.6871C274.528 52.6045 285.505 57.3803 291.075 59.6083C291.326 59.5791 291.576 59.55 291.82 59.5136C292.417 59.4481 293 59.3534 293.576 59.2442C306.544 56.7905 311.531 36.8691 311.531 36.6871C311.531 35.7915 309.382 11.1941 305.996 10.8301C305.107 10.7336 304.213 10.685 303.318 10.6845H294.916C293.177 10.3098 291.415 10.0544 289.641 9.91997H289.627C272.711 8.6312 259.374 18.9412 260.62 31.4866C260.628 31.5011 260.643 31.5157 260.65 31.5303C261.011 32.0691 261.329 32.5788 261.609 33.0666C261.882 33.5253 262.111 33.9621 262.31 34.3772C263.851 37.5809 259.888 41.6121 262.516 42.3646C266.011 43.3653 253.324 76.2581 267.158 76.2581C260.429 78.1713 266.43 47.1336 267.886 42.0369Z" fill="#4B5563"/>
<path d="M282.986 61.337C293.973 61.337 302.88 52.4304 302.88 41.4435C302.88 30.4566 293.973 21.5499 282.986 21.5499C271.999 21.5499 263.093 30.4566 263.093 41.4435C263.093 52.4304 271.999 61.337 282.986 61.337Z" fill="#FFB6B6"/>
<path d="M260.62 32.5714C260.952 32.7461 261.277 32.9063 261.609 33.0665C261.956 33.2339 262.302 33.4014 262.649 33.5543C269.31 36.576 274.732 36.9109 278.023 32.5714C278.111 30.288 278.623 28.041 279.535 25.9456C279.374 28.2873 279.991 30.6166 281.291 32.5714H287.915C294.739 37.1002 298.243 37.5735 293.507 52.4415C292.186 56.5844 286.936 80.6922 289.001 84.2672C289.599 84.2017 295.956 57.7963 296.531 57.6871C309.5 55.2333 317.74 33.8674 316.685 32.6588C316.69 29.2217 315.9 25.83 314.376 22.7492C312.448 18.846 309.443 15.5765 305.716 13.3274C303.494 12.2501 301.177 11.38 298.796 10.7281C298.737 10.7135 298.685 10.6989 298.626 10.6844C297.896 10.4878 297.151 10.3058 296.406 10.1528C294.867 9.82784 293.31 9.59203 291.744 9.44659C291.633 9.4393 291.522 9.43201 291.419 9.43201C290.794 9.43347 290.18 9.60189 289.641 9.91988C289.634 9.91988 289.634 9.92712 289.626 9.92712C289.242 10.152 288.905 10.4516 288.638 10.8081C288.167 11.4081 287.912 12.1495 287.915 12.9124H280.538C280.265 12.9124 279.992 12.9196 279.719 12.9342C274.796 13.1024 270.112 15.1019 266.585 18.5413C263.058 21.9807 260.942 26.6125 260.65 31.5302C260.628 31.8797 260.62 32.2219 260.62 32.5714Z" fill="#4B5563"/>
<path d="M304.117 26.212C311.355 26.212 317.223 20.3442 317.223 13.106C317.223 5.86775 311.355 0 304.117 0C296.878 0 291.011 5.86775 291.011 13.106C291.011 20.3442 296.878 26.212 304.117 26.212Z" fill="#4B5563"/>
<path d="M347.739 252.459C348.379 251.45 348.792 250.315 348.95 249.131C349.107 247.947 349.006 246.743 348.652 245.602C348.299 244.461 347.702 243.411 346.902 242.524C346.103 241.636 345.121 240.933 344.023 240.463L344.088 199.361L332.723 196.548L333.003 245.366C332.349 247.272 332.417 249.353 333.194 251.213C333.972 253.073 335.404 254.583 337.221 255.458C339.037 256.332 341.111 256.51 343.05 255.957C344.989 255.404 346.657 254.16 347.739 252.459V252.459Z" fill="#FFB6B6"/>
<path d="M291.463 101.477L309.148 89.4588C309.973 88.8981 310.906 88.5161 311.887 88.3374C312.869 88.1586 313.876 88.1871 314.846 88.4209C315.816 88.6547 316.726 89.0886 317.518 89.695C318.31 90.3013 318.967 91.0665 319.446 91.9416L349.849 147.5L349.966 228.811L330.984 227.621L323.191 160.491L291.463 101.477Z" fill="#6C63FF"/>
<path d="M116.99 159H8.00962C5.88608 158.996 3.8502 157.44 2.34863 154.675C0.84705 151.909 0.00239892 148.16 0 144.249V64.7506C0.00239891 60.8399 0.847051 57.0906 2.34863 54.3252C3.8502 51.5599 5.88608 50.0044 8.00962 50H116.99C119.114 50.0044 121.15 51.5599 122.651 54.3252C124.153 57.0906 124.998 60.8399 125 64.7506V144.249C124.998 148.16 124.153 151.909 122.651 154.675C121.15 157.44 119.114 158.996 116.99 159V159Z" fill="#4B5563"/>
<path d="M116.99 159H8.00962C5.88608 158.996 3.8502 157.44 2.34863 154.675C0.84705 151.909 0.00239892 148.16 0 144.249V64.7506C0.00239891 60.8399 0.847051 57.0906 2.34863 54.3252C3.8502 51.5599 5.88608 50.0044 8.00962 50H116.99C119.114 50.0044 121.15 51.5599 122.651 54.3252C124.153 57.0906 124.998 60.8399 125 64.7506V144.249C124.998 148.16 124.153 151.909 122.651 154.675C121.15 157.44 119.114 158.996 116.99 159V159ZM29.072 51.6269C21.5959 51.6269 14.426 57.0962 9.13962 66.8316C3.85324 76.5671 0.883392 89.7712 0.883392 103.539V144.249C0.883392 145.973 1.06772 147.679 1.42585 149.272C1.78397 150.864 2.30888 152.311 2.97061 153.529C3.63234 154.748 4.41794 155.715 5.28253 156.374C6.14713 157.034 7.07379 157.373 8.00962 157.373H116.99C117.926 157.373 118.853 157.034 119.717 156.374C120.582 155.715 121.368 154.748 122.029 153.529C122.691 152.311 123.216 150.864 123.574 149.272C123.932 147.679 124.117 145.973 124.117 144.249V64.7506C124.117 61.27 123.366 57.9319 122.029 55.4707C120.693 53.0095 118.88 51.6269 116.99 51.6269H29.072Z" fill="#374151"/>
<path d="M62.4467 96H59.6467L53.3067 86.42V96H50.5067V82.02H53.3067L59.6467 91.62V82.02H62.4467V96ZM70.1337 96.18C69.067 96.18 68.107 95.9467 67.2537 95.48C66.4004 95 65.727 94.3267 65.2337 93.46C64.7537 92.5933 64.5137 91.5933 64.5137 90.46C64.5137 89.3267 64.7604 88.3267 65.2537 87.46C65.7604 86.5933 66.447 85.9267 67.3137 85.46C68.1804 84.98 69.147 84.74 70.2137 84.74C71.2804 84.74 72.247 84.98 73.1137 85.46C73.9804 85.9267 74.6604 86.5933 75.1537 87.46C75.6604 88.3267 75.9137 89.3267 75.9137 90.46C75.9137 91.5933 75.6537 92.5933 75.1337 93.46C74.627 94.3267 73.9337 95 73.0537 95.48C72.187 95.9467 71.2137 96.18 70.1337 96.18ZM70.1337 93.74C70.6404 93.74 71.1137 93.62 71.5537 93.38C72.007 93.1267 72.367 92.7533 72.6337 92.26C72.9004 91.7667 73.0337 91.1667 73.0337 90.46C73.0337 89.4067 72.7537 88.6 72.1937 88.04C71.647 87.4667 70.9737 87.18 70.1737 87.18C69.3737 87.18 68.7004 87.4667 68.1537 88.04C67.6204 88.6 67.3537 89.4067 67.3537 90.46C67.3537 91.5133 67.6137 92.3267 68.1337 92.9C68.667 93.46 69.3337 93.74 70.1337 93.74ZM34.6891 126L31.6091 120.56H30.2891V126H27.4891V112.04H32.7291C33.8091 112.04 34.7291 112.233 35.4891 112.62C36.2491 112.993 36.8158 113.507 37.1891 114.16C37.5758 114.8 37.7691 115.52 37.7691 116.32C37.7691 117.24 37.5024 118.073 36.9691 118.82C36.4358 119.553 35.6424 120.06 34.5891 120.34L37.9291 126H34.6891ZM30.2891 118.46H32.6291C33.3891 118.46 33.9558 118.28 34.3291 117.92C34.7024 117.547 34.8891 117.033 34.8891 116.38C34.8891 115.74 34.7024 115.247 34.3291 114.9C33.9558 114.54 33.3891 114.36 32.6291 114.36H30.2891V118.46ZM50.6016 120.22C50.6016 120.62 50.5749 120.98 50.5216 121.3H42.4216C42.4883 122.1 42.7683 122.727 43.2616 123.18C43.7549 123.633 44.3616 123.86 45.0816 123.86C46.1216 123.86 46.8616 123.413 47.3016 122.52H50.3216C50.0016 123.587 49.3883 124.467 48.4816 125.16C47.5749 125.84 46.4616 126.18 45.1416 126.18C44.0749 126.18 43.1149 125.947 42.2616 125.48C41.4216 125 40.7616 124.327 40.2816 123.46C39.8149 122.593 39.5816 121.593 39.5816 120.46C39.5816 119.313 39.8149 118.307 40.2816 117.44C40.7483 116.573 41.4016 115.907 42.2416 115.44C43.0816 114.973 44.0483 114.74 45.1416 114.74C46.1949 114.74 47.1349 114.967 47.9616 115.42C48.8016 115.873 49.4483 116.52 49.9016 117.36C50.3683 118.187 50.6016 119.14 50.6016 120.22ZM47.7016 119.42C47.6883 118.7 47.4283 118.127 46.9216 117.7C46.4149 117.26 45.7949 117.04 45.0616 117.04C44.3683 117.04 43.7816 117.253 43.3016 117.68C42.8349 118.093 42.5483 118.673 42.4416 119.42H47.7016ZM56.8853 126.18C55.9787 126.18 55.1653 126.02 54.4453 125.7C53.7253 125.367 53.152 124.92 52.7253 124.36C52.312 123.8 52.0853 123.18 52.0453 122.5H54.8653C54.9187 122.927 55.1253 123.28 55.4853 123.56C55.8587 123.84 56.3187 123.98 56.8653 123.98C57.3987 123.98 57.812 123.873 58.1053 123.66C58.412 123.447 58.5653 123.173 58.5653 122.84C58.5653 122.48 58.3787 122.213 58.0053 122.04C57.6453 121.853 57.0653 121.653 56.2653 121.44C55.4387 121.24 54.7587 121.033 54.2253 120.82C53.7053 120.607 53.252 120.28 52.8653 119.84C52.492 119.4 52.3053 118.807 52.3053 118.06C52.3053 117.447 52.4787 116.887 52.8253 116.38C53.1853 115.873 53.692 115.473 54.3453 115.18C55.012 114.887 55.792 114.74 56.6853 114.74C58.0053 114.74 59.0587 115.073 59.8453 115.74C60.632 116.393 61.0653 117.28 61.1453 118.4H58.4653C58.4253 117.96 58.2387 117.613 57.9053 117.36C57.5853 117.093 57.152 116.96 56.6053 116.96C56.0987 116.96 55.7053 117.053 55.4253 117.24C55.1587 117.427 55.0253 117.687 55.0253 118.02C55.0253 118.393 55.212 118.68 55.5853 118.88C55.9587 119.067 56.5387 119.26 57.3253 119.46C58.1253 119.66 58.7853 119.867 59.3053 120.08C59.8253 120.293 60.272 120.627 60.6453 121.08C61.032 121.52 61.232 122.107 61.2453 122.84C61.2453 123.48 61.0653 124.053 60.7053 124.56C60.3587 125.067 59.852 125.467 59.1853 125.76C58.532 126.04 57.7653 126.18 56.8853 126.18ZM74.0038 114.92V126H71.1838V124.6C70.8238 125.08 70.3505 125.46 69.7638 125.74C69.1905 126.007 68.5638 126.14 67.8838 126.14C67.0171 126.14 66.2505 125.96 65.5838 125.6C64.9171 125.227 64.3905 124.687 64.0038 123.98C63.6305 123.26 63.4438 122.407 63.4438 121.42V114.92H66.2438V121.02C66.2438 121.9 66.4638 122.58 66.9038 123.06C67.3438 123.527 67.9438 123.76 68.7038 123.76C69.4771 123.76 70.0838 123.527 70.5238 123.06C70.9638 122.58 71.1838 121.9 71.1838 121.02V114.92H74.0038ZM79.5664 111.2V126H76.7664V111.2H79.5664ZM85.5928 117.22V122.58C85.5928 122.953 85.6795 123.227 85.8528 123.4C86.0395 123.56 86.3462 123.64 86.7728 123.64H88.0728V126H86.3128C83.9528 126 82.7728 124.853 82.7728 122.56V117.22H81.4528V114.92H82.7728V112.18H85.5928V114.92H88.0728V117.22H85.5928ZM94.3268 126.18C93.4201 126.18 92.6068 126.02 91.8868 125.7C91.1668 125.367 90.5934 124.92 90.1668 124.36C89.7534 123.8 89.5268 123.18 89.4868 122.5H92.3068C92.3601 122.927 92.5668 123.28 92.9268 123.56C93.3001 123.84 93.7601 123.98 94.3068 123.98C94.8401 123.98 95.2534 123.873 95.5468 123.66C95.8534 123.447 96.0068 123.173 96.0068 122.84C96.0068 122.48 95.8201 122.213 95.4468 122.04C95.0868 121.853 94.5068 121.653 93.7068 121.44C92.8801 121.24 92.2001 121.033 91.6668 120.82C91.1468 120.607 90.6934 120.28 90.3068 119.84C89.9334 119.4 89.7468 118.807 89.7468 118.06C89.7468 117.447 89.9201 116.887 90.2668 116.38C90.6268 115.873 91.1334 115.473 91.7868 115.18C92.4534 114.887 93.2334 114.74 94.1268 114.74C95.4468 114.74 96.5001 115.073 97.2868 115.74C98.0734 116.393 98.5068 117.28 98.5868 118.4H95.9068C95.8668 117.96 95.6801 117.613 95.3468 117.36C95.0268 117.093 94.5934 116.96 94.0468 116.96C93.5401 116.96 93.1468 117.053 92.8668 117.24C92.6001 117.427 92.4668 117.687 92.4668 118.02C92.4668 118.393 92.6534 118.68 93.0268 118.88C93.4001 119.067 93.9801 119.26 94.7668 119.46C95.5668 119.66 96.2268 119.867 96.7468 120.08C97.2668 120.293 97.7134 120.627 98.0868 121.08C98.4734 121.52 98.6734 122.107 98.6868 122.84C98.6868 123.48 98.5068 124.053 98.1468 124.56C97.8001 125.067 97.2934 125.467 96.6268 125.76C95.9734 126.04 95.2068 126.18 94.3268 126.18Z" fill="white"/>
</svg>
