<svg width="246" height="425" viewBox="0 0 246 425" fill="none" xmlns="http://www.w3.org/2000/svg">
<path d="M243.443 216.857L240.545 147.764C240.545 147.764 237.289 106.745 234.685 92.4206C232.08 78.0964 214.501 82.003 214.501 82.003L216.454 123.022L224.882 165L231.441 222.162C231.104 223.816 230.912 225.613 230.912 227.5C230.912 235.508 234.256 242 238.382 242C242.507 242 245.852 235.508 245.852 227.5C245.852 223.288 244.921 219.506 243.443 216.857V216.857Z" fill="#FFB6B6"/>
<path d="M102.367 198.955C105.449 195.284 109.139 192.789 112.454 191.829L151.434 147.764C151.434 147.764 154.69 106.745 157.294 92.4206C159.899 78.0964 177.478 82.003 177.478 82.003L175.525 123.022L164.456 167.297L118.843 206.022C118.047 207.473 117.07 208.924 115.9 210.317C110.351 216.927 102.823 219.741 99.0857 216.604C95.3485 213.466 96.8175 205.564 102.367 198.955V198.955Z" fill="#FFB6B6"/>
<path d="M188.131 76.4686L192.653 59.0851L210.269 58.2378L215.539 82.2003L188.131 76.4686Z" fill="#FFB6B6"/>
<path opacity="0.1" d="M188.131 76.4686L192.653 59.0851L210.269 58.2378L215.539 82.2003L188.131 76.4686Z" fill="black"/>
<path d="M143.149 361.257L126.65 360.314L128.814 410.949L139.994 411.589L143.149 361.257Z" fill="#FFB6B6"/>
<path d="M127.384 394.939L133.113 397.553L133.106 401.026C133.106 401.026 134.488 397.006 141.907 396.129L142.793 399.496C142.793 399.496 145.67 402.799 145.176 408.773L143.288 424.77L137.693 424.642L136.789 413.51C136.789 413.51 135.248 410.984 128.148 422.987C128.148 422.987 120.328 424.958 108.217 420.897C106.553 420.339 105.397 418.785 105.418 417.03C105.43 416.061 105.809 415.166 107.024 414.844C110.116 414.027 113.136 415.064 115.132 412.595C117.129 410.127 127.384 394.939 127.384 394.939V394.939Z" fill="#2F2E41"/>
<path d="M231.698 361.257L215.199 360.314L217.364 410.949L228.544 411.589L231.698 361.257Z" fill="#FFB6B6"/>
<path d="M215.934 394.939L221.663 397.553L221.655 401.026C221.655 401.026 223.038 397.006 230.457 396.129L231.342 399.496C231.342 399.496 234.219 402.799 233.726 408.773L231.837 424.77L226.242 424.642L225.339 413.51C225.339 413.51 223.797 410.984 216.698 422.987C216.698 422.987 208.878 424.958 196.767 420.897C195.102 420.339 193.946 418.785 193.968 417.03C193.98 416.061 194.359 415.166 195.573 414.844C198.666 414.027 201.685 415.064 203.682 412.595C205.679 410.127 215.934 394.939 215.934 394.939V394.939Z" fill="#2F2E41"/>
<path d="M201.675 69.3223C212.463 69.3223 221.208 60.5771 221.208 49.7893C221.208 39.0016 212.463 30.2563 201.675 30.2563C190.887 30.2563 182.142 39.0016 182.142 49.7893C182.142 60.5771 190.887 69.3223 201.675 69.3223Z" fill="#FFB6B6"/>
<path d="M212.752 53.0364C212.752 53.0364 204.164 38.9845 195.567 40.5354C186.971 42.0864 182.489 43.4867 182.489 43.4867C182.489 43.4867 178.989 32.2831 190.742 26.9079C190.742 26.9079 174.109 12.982 191.836 4.04482C209.563 -4.89236 220.594 3.76921 220.594 3.76921C220.594 3.76921 235.265 16.2121 218.998 27.7275C218.998 27.7275 233.078 43.7654 218.857 59.0852C218.857 59.0852 221.368 47.42 217.953 49.8114C214.538 52.2028 212.752 53.0364 212.752 53.0364V53.0364Z" fill="#2F2E41"/>
<path d="M214.826 77.7709L188.131 74.5154L167.622 91.1184C167.622 91.1184 157.421 119.539 165.017 136.695C165.199 137.106 165.343 165.669 165.343 165.669H222.06C222.06 165.669 222.005 146.228 224.173 139.187C224.482 138.181 224.837 137.428 225.244 137.021C228.5 133.765 236.313 112.93 232.406 103.815C228.499 94.6995 214.826 77.7709 214.826 77.7709V77.7709Z" fill="#6C63FF"/>
<path d="M165.017 164.367L129.207 278.309L121.394 368.161H143.205L161.762 284.82L187.316 236.578L212.547 374.672H234.564L234.034 187.807L222.014 164.367H165.017Z" fill="#2F2E41"/>
<path d="M136.132 303.526H14.868C8.32387 303.526 3 299.834 3 295.296V212.23C3 207.692 8.32387 204 14.868 204H136.132C142.676 204 148 207.692 148 212.23V295.296C148 299.834 142.676 303.526 136.132 303.526Z" fill="#E6E6E6"/>
<path d="M37.4513 206.452C20.3773 206.452 6.53613 216.05 6.53613 227.89V293.533C6.53613 297.698 11.4043 301.074 17.4095 301.074H91.5592C120.778 301.074 144.464 284.648 144.464 264.386V213.992C144.464 209.828 139.596 206.452 133.591 206.452H37.4513V206.452V206.452Z" fill="white"/>
<path d="M74.0895 240H71.2895L64.9495 230.42V240H62.1495V226.02H64.9495L71.2895 235.62V226.02H74.0895V240ZM81.7766 240.18C80.7099 240.18 79.7499 239.947 78.8966 239.48C78.0432 239 77.3699 238.327 76.8766 237.46C76.3966 236.593 76.1566 235.593 76.1566 234.46C76.1566 233.327 76.4032 232.327 76.8966 231.46C77.4032 230.593 78.0899 229.927 78.9566 229.46C79.8232 228.98 80.7899 228.74 81.8566 228.74C82.9232 228.74 83.8899 228.98 84.7566 229.46C85.6232 229.927 86.3032 230.593 86.7966 231.46C87.3032 232.327 87.5566 233.327 87.5566 234.46C87.5566 235.593 87.2966 236.593 86.7766 237.46C86.2699 238.327 85.5766 239 84.6966 239.48C83.8299 239.947 82.8566 240.18 81.7766 240.18ZM81.7766 237.74C82.2832 237.74 82.7566 237.62 83.1966 237.38C83.6499 237.127 84.0099 236.753 84.2766 236.26C84.5432 235.767 84.6766 235.167 84.6766 234.46C84.6766 233.407 84.3966 232.6 83.8366 232.04C83.2899 231.467 82.6166 231.18 81.8166 231.18C81.0166 231.18 80.3432 231.467 79.7966 232.04C79.2632 232.6 78.9966 233.407 78.9966 234.46C78.9966 235.513 79.2566 236.327 79.7766 236.9C80.3099 237.46 80.9766 237.74 81.7766 237.74ZM23.3083 270H20.5083L14.1683 260.42V270H11.3683V256.02H14.1683L20.5083 265.62V256.02H23.3083V270ZM30.9953 270.18C29.9286 270.18 28.9686 269.947 28.1153 269.48C27.262 269 26.5886 268.327 26.0953 267.46C25.6153 266.593 25.3753 265.593 25.3753 264.46C25.3753 263.327 25.622 262.327 26.1153 261.46C26.622 260.593 27.3086 259.927 28.1753 259.46C29.042 258.98 30.0086 258.74 31.0753 258.74C32.142 258.74 33.1086 258.98 33.9753 259.46C34.842 259.927 35.522 260.593 36.0153 261.46C36.522 262.327 36.7753 263.327 36.7753 264.46C36.7753 265.593 36.5153 266.593 35.9953 267.46C35.4886 268.327 34.7953 269 33.9153 269.48C33.0486 269.947 32.0753 270.18 30.9953 270.18ZM30.9953 267.74C31.502 267.74 31.9753 267.62 32.4153 267.38C32.8686 267.127 33.2286 266.753 33.4953 266.26C33.762 265.767 33.8953 265.167 33.8953 264.46C33.8953 263.407 33.6153 262.6 33.0553 262.04C32.5086 261.467 31.8353 261.18 31.0353 261.18C30.2353 261.18 29.562 261.467 29.0153 262.04C28.482 262.6 28.2153 263.407 28.2153 264.46C28.2153 265.513 28.4753 266.327 28.9953 266.9C29.5286 267.46 30.1953 267.74 30.9953 267.74ZM42.0892 261.22V266.58C42.0892 266.953 42.1759 267.227 42.3492 267.4C42.5359 267.56 42.8426 267.64 43.2692 267.64H44.5692V270H42.8092C40.4492 270 39.2692 268.853 39.2692 266.56V261.22H37.9492V258.92H39.2692V256.18H42.0892V258.92H44.5692V261.22H42.0892ZM48.0031 257.6C47.5098 257.6 47.0965 257.447 46.7631 257.14C46.4431 256.82 46.2831 256.427 46.2831 255.96C46.2831 255.493 46.4431 255.107 46.7631 254.8C47.0965 254.48 47.5098 254.32 48.0031 254.32C48.4965 254.32 48.9031 254.48 49.2231 254.8C49.5565 255.107 49.7231 255.493 49.7231 255.96C49.7231 256.427 49.5565 256.82 49.2231 257.14C48.9031 257.447 48.4965 257.6 48.0031 257.6ZM49.3831 258.92V270H46.5831V258.92H49.3831ZM57.2295 261.22H55.2895V270H52.4495V261.22H51.1895V258.92H52.4495V258.36C52.4495 257 52.8362 256 53.6095 255.36C54.3829 254.72 55.5495 254.42 57.1095 254.46V256.82C56.4295 256.807 55.9562 256.92 55.6895 257.16C55.4229 257.4 55.2895 257.833 55.2895 258.46V258.92H57.2295V261.22ZM60.4641 257.6C59.9707 257.6 59.5574 257.447 59.2241 257.14C58.9041 256.82 58.7441 256.427 58.7441 255.96C58.7441 255.493 58.9041 255.107 59.2241 254.8C59.5574 254.48 59.9707 254.32 60.4641 254.32C60.9574 254.32 61.3641 254.48 61.6841 254.8C62.0174 255.107 62.1841 255.493 62.1841 255.96C62.1841 256.427 62.0174 256.82 61.6841 257.14C61.3641 257.447 60.9574 257.6 60.4641 257.6ZM61.8441 258.92V270H59.0441V258.92H61.8441ZM63.8905 264.46C63.8905 263.313 64.1238 262.313 64.5905 261.46C65.0571 260.593 65.7038 259.927 66.5305 259.46C67.3571 258.98 68.3038 258.74 69.3705 258.74C70.7438 258.74 71.8771 259.087 72.7705 259.78C73.6771 260.46 74.2838 261.42 74.5905 262.66H71.5705C71.4105 262.18 71.1371 261.807 70.7505 261.54C70.3771 261.26 69.9105 261.12 69.3505 261.12C68.5505 261.12 67.9171 261.413 67.4505 262C66.9838 262.573 66.7505 263.393 66.7505 264.46C66.7505 265.513 66.9838 266.333 67.4505 266.92C67.9171 267.493 68.5505 267.78 69.3505 267.78C70.4838 267.78 71.2238 267.273 71.5705 266.26H74.5905C74.2838 267.46 73.6771 268.413 72.7705 269.12C71.8638 269.827 70.7305 270.18 69.3705 270.18C68.3038 270.18 67.3571 269.947 66.5305 269.48C65.7038 269 65.0571 268.333 64.5905 267.48C64.1238 266.613 63.8905 265.607 63.8905 264.46ZM75.9217 264.42C75.9217 263.3 76.1417 262.307 76.5817 261.44C77.0351 260.573 77.6417 259.907 78.4017 259.44C79.1751 258.973 80.0351 258.74 80.9817 258.74C81.8084 258.74 82.5284 258.907 83.1417 259.24C83.7684 259.573 84.2684 259.993 84.6417 260.5V258.92H87.4617V270H84.6417V268.38C84.2817 268.9 83.7817 269.333 83.1417 269.68C82.5151 270.013 81.7884 270.18 80.9617 270.18C80.0284 270.18 79.1751 269.94 78.4017 269.46C77.6417 268.98 77.0351 268.307 76.5817 267.44C76.1417 266.56 75.9217 265.553 75.9217 264.42ZM84.6417 264.46C84.6417 263.78 84.5084 263.2 84.2417 262.72C83.9751 262.227 83.6151 261.853 83.1617 261.6C82.7084 261.333 82.2217 261.2 81.7017 261.2C81.1817 261.2 80.7017 261.327 80.2617 261.58C79.8217 261.833 79.4617 262.207 79.1817 262.7C78.9151 263.18 78.7817 263.753 78.7817 264.42C78.7817 265.087 78.9151 265.673 79.1817 266.18C79.4617 266.673 79.8217 267.053 80.2617 267.32C80.7151 267.587 81.1951 267.72 81.7017 267.72C82.2217 267.72 82.7084 267.593 83.1617 267.34C83.6151 267.073 83.9751 266.7 84.2417 266.22C84.5084 265.727 84.6417 265.14 84.6417 264.46ZM93.4564 261.22V266.58C93.4564 266.953 93.5431 267.227 93.7164 267.4C93.9031 267.56 94.2097 267.64 94.6364 267.64H95.9364V270H94.1764C91.8164 270 90.6364 268.853 90.6364 266.56V261.22H89.3164V258.92H90.6364V256.18H93.4564V258.92H95.9364V261.22H93.4564ZM99.3703 257.6C98.877 257.6 98.4636 257.447 98.1303 257.14C97.8103 256.82 97.6503 256.427 97.6503 255.96C97.6503 255.493 97.8103 255.107 98.1303 254.8C98.4636 254.48 98.877 254.32 99.3703 254.32C99.8636 254.32 100.27 254.48 100.59 254.8C100.924 255.107 101.09 255.493 101.09 255.96C101.09 256.427 100.924 256.82 100.59 257.14C100.27 257.447 99.8636 257.6 99.3703 257.6ZM100.75 258.92V270H97.9503V258.92H100.75ZM108.437 270.18C107.37 270.18 106.41 269.947 105.557 269.48C104.703 269 104.03 268.327 103.537 267.46C103.057 266.593 102.817 265.593 102.817 264.46C102.817 263.327 103.063 262.327 103.557 261.46C104.063 260.593 104.75 259.927 105.617 259.46C106.483 258.98 107.45 258.74 108.517 258.74C109.583 258.74 110.55 258.98 111.417 259.46C112.283 259.927 112.963 260.593 113.457 261.46C113.963 262.327 114.217 263.327 114.217 264.46C114.217 265.593 113.957 266.593 113.437 267.46C112.93 268.327 112.237 269 111.357 269.48C110.49 269.947 109.517 270.18 108.437 270.18ZM108.437 267.74C108.943 267.74 109.417 267.62 109.857 267.38C110.31 267.127 110.67 266.753 110.937 266.26C111.203 265.767 111.337 265.167 111.337 264.46C111.337 263.407 111.057 262.6 110.497 262.04C109.95 261.467 109.277 261.18 108.477 261.18C107.677 261.18 107.003 261.467 106.457 262.04C105.923 262.6 105.657 263.407 105.657 264.46C105.657 265.513 105.917 266.327 106.437 266.9C106.97 267.46 107.637 267.74 108.437 267.74ZM122.411 258.76C123.731 258.76 124.797 259.18 125.611 260.02C126.424 260.847 126.831 262.007 126.831 263.5V270H124.031V263.88C124.031 263 123.811 262.327 123.371 261.86C122.931 261.38 122.331 261.14 121.571 261.14C120.797 261.14 120.184 261.38 119.731 261.86C119.291 262.327 119.071 263 119.071 263.88V270H116.271V258.92H119.071V260.3C119.444 259.82 119.917 259.447 120.491 259.18C121.077 258.9 121.717 258.76 122.411 258.76ZM133.733 270.18C132.827 270.18 132.013 270.02 131.293 269.7C130.573 269.367 130 268.92 129.573 268.36C129.16 267.8 128.933 267.18 128.893 266.5H131.713C131.767 266.927 131.973 267.28 132.333 267.56C132.707 267.84 133.167 267.98 133.713 267.98C134.247 267.98 134.66 267.873 134.953 267.66C135.26 267.447 135.413 267.173 135.413 266.84C135.413 266.48 135.227 266.213 134.853 266.04C134.493 265.853 133.913 265.653 133.113 265.44C132.287 265.24 131.607 265.033 131.073 264.82C130.553 264.607 130.1 264.28 129.713 263.84C129.34 263.4 129.153 262.807 129.153 262.06C129.153 261.447 129.327 260.887 129.673 260.38C130.033 259.873 130.54 259.473 131.193 259.18C131.86 258.887 132.64 258.74 133.533 258.74C134.853 258.74 135.907 259.073 136.693 259.74C137.48 260.393 137.913 261.28 137.993 262.4H135.313C135.273 261.96 135.087 261.613 134.753 261.36C134.433 261.093 134 260.96 133.453 260.96C132.947 260.96 132.553 261.053 132.273 261.24C132.007 261.427 131.873 261.687 131.873 262.02C131.873 262.393 132.06 262.68 132.433 262.88C132.807 263.067 133.387 263.26 134.173 263.46C134.973 263.66 135.633 263.867 136.153 264.08C136.673 264.293 137.12 264.627 137.493 265.08C137.88 265.52 138.08 266.107 138.093 266.84C138.093 267.48 137.913 268.053 137.553 268.56C137.207 269.067 136.7 269.467 136.033 269.76C135.38 270.04 134.613 270.18 133.733 270.18Z" fill="#2F2E41"/>
</svg>
