<svg width="243" height="525" viewBox="0 0 243 525" fill="none" xmlns="http://www.w3.org/2000/svg">
<path d="M141.607 0.328464C141.607 0.328464 119.697 -4.98154 106.437 27.0985C95.3867 53.8385 87.5467 68.1185 96.5167 77.8185C99.7267 81.2885 104.307 83.1585 109.027 83.3185L159.527 84.9785C159.527 84.9785 178.067 36.3585 166.797 18.7785C155.527 1.18846 141.607 0.328464 141.607 0.328464Z" fill="#2F2E41"/>
<path d="M152.067 80.9385L127.777 88.9285V53.9585H149.817L152.067 80.9385Z" fill="#F6A6A9"/>
<path d="M133.427 504.688H110.667L97.4768 383.108H132.647L133.427 504.688Z" fill="#F6A6A9"/>
<path d="M88.5068 524.228C86.1168 524.228 83.9868 524.168 82.3768 524.018C76.3268 523.468 70.5668 519.008 67.6668 516.398C66.3668 515.228 65.9468 513.358 66.6268 511.748C67.1168 510.588 68.0868 509.728 69.2868 509.388L85.2568 504.828L111.117 487.378L111.407 487.898C111.517 488.088 114.057 492.668 114.907 495.758C115.227 496.938 115.147 497.918 114.657 498.668C114.317 499.198 113.847 499.498 113.457 499.668C113.927 500.158 115.397 501.148 119.907 501.868C126.507 502.918 127.887 496.078 127.947 495.788L127.987 495.558L128.187 495.428C131.327 493.408 133.257 492.488 133.927 492.678C134.347 492.798 135.037 493.008 136.907 511.628C137.097 512.208 138.407 516.498 137.517 520.588C136.547 525.048 117.077 523.508 113.177 523.158C113.067 523.168 98.4868 524.208 88.4968 524.208V524.228H88.5068Z" fill="#2F2E41"/>
<path d="M184.827 504.688H162.077L148.877 383.108H184.047L184.827 504.688Z" fill="#F6A6A9"/>
<path d="M139.917 524.228C137.527 524.228 135.397 524.168 133.787 524.018C127.737 523.468 121.977 519.008 119.077 516.398C117.777 515.228 117.357 513.358 118.037 511.748C118.527 510.588 119.497 509.728 120.697 509.388L136.667 504.828L162.527 487.378L162.817 487.898C162.927 488.088 165.467 492.668 166.317 495.758C166.637 496.938 166.557 497.918 166.067 498.668C165.727 499.198 165.257 499.498 164.867 499.668C165.337 500.158 166.807 501.148 171.317 501.868C177.917 502.918 179.297 496.078 179.357 495.788L179.397 495.558L179.597 495.428C182.737 493.408 184.667 492.488 185.337 492.678C185.757 492.798 186.447 493.008 188.317 511.628C188.507 512.208 189.817 516.498 188.927 520.588C187.957 525.048 168.487 523.508 164.587 523.158C164.477 523.168 149.897 524.208 139.907 524.208V524.228H139.917Z" fill="#2F2E41"/>
<path d="M191.377 206.069H80.8167L120.557 75.2786H164.637L191.377 206.069Z" fill="#6C63FF"/>
<path d="M77.8068 279.458C76.4868 287.468 71.1468 293.218 65.8768 292.288C60.6068 291.358 57.3968 284.118 58.7168 276.108C59.1968 272.898 60.4668 269.868 62.4168 267.258L68.4368 233.388L84.8268 236.818L77.1468 269.838C78.1568 272.958 78.3868 276.258 77.8168 279.458L77.8068 279.458Z" fill="#F6A6A9"/>
<path d="M127.517 75.2985C127.517 75.2985 100.057 74.5785 97.1669 81.7985C94.2769 89.0285 60.3169 261.008 60.3169 261.008H82.7169L127.517 75.2985Z" fill="#6C63FF"/>
<path d="M133.347 62.2183C146.718 62.2183 157.557 51.3792 157.557 38.0083C157.557 24.6375 146.718 13.7983 133.347 13.7983C119.976 13.7983 109.137 24.6375 109.137 38.0083C109.137 51.3792 119.976 62.2183 133.347 62.2183Z" fill="#F6A6A9"/>
<path d="M137.147 8.31835C137.147 8.31835 106.067 54.5484 111.297 83.3884L93.2168 72.0583C93.2168 72.0583 105.947 13.6783 124.917 9.14835L137.147 8.30835L137.147 8.31835Z" fill="#2F2E41"/>
<path d="M168.397 206.068H95.8467L56.1467 368.998C55.4167 375.878 59.7767 382.298 66.4667 384.088C88.2467 389.918 140.507 398.188 219.617 375.168C227.227 372.958 231.547 364.928 229.157 357.368L168.397 206.078V206.068Z" fill="#2F2E41"/>
<path d="M136.347 87.5184L156.447 77.2084C165.637 73.8084 175.887 74.9484 184.107 80.2984C209.107 96.5584 258.387 132.408 237.207 150.128C209.297 173.488 171.567 132.058 171.567 132.058L136.347 87.5184Z" fill="#6C63FF"/>
<path d="M135.907 105.139C128.917 101.019 125.487 93.9585 128.257 89.3685C131.027 84.7885 138.937 84.4185 145.937 88.5385C148.757 90.1485 151.127 92.4285 152.847 95.1885L182.247 113.049L173.127 127.089L145.107 107.989C141.827 107.799 138.667 106.819 135.897 105.129H135.907L135.907 105.139Z" fill="#F6A6A9"/>
<path d="M155.887 121.328L164.247 101.358L205.097 114.878L186.827 145.288L155.887 121.328Z" fill="#6C63FF"/>
<path d="M135.132 194.526H13.868C7.32387 194.526 2 190.834 2 186.296V103.23C2 98.6919 7.32387 95 13.868 95H135.132C141.676 95 147 98.6919 147 103.23V186.296C147 190.834 141.676 194.526 135.132 194.526Z" fill="#E6E6E6"/>
<path d="M36.4513 97.4522C19.3773 97.4522 5.53613 107.05 5.53613 118.891V184.534C5.53613 188.698 10.4043 192.074 16.4095 192.074H90.5592C119.778 192.074 143.464 175.648 143.464 155.386V104.992C143.464 100.828 138.596 97.4521 132.591 97.4521H36.4513V97.4522V97.4522Z" fill="white"/>
<path d="M23.3231 149.18C22.4165 149.18 21.6031 149.02 20.8831 148.7C20.1631 148.367 19.5898 147.92 19.1631 147.36C18.7498 146.8 18.5231 146.18 18.4831 145.5H21.3031C21.3565 145.927 21.5631 146.28 21.9231 146.56C22.2965 146.84 22.7565 146.98 23.3031 146.98C23.8365 146.98 24.2498 146.873 24.5431 146.66C24.8498 146.447 25.0031 146.173 25.0031 145.84C25.0031 145.48 24.8165 145.213 24.4431 145.04C24.0831 144.853 23.5031 144.653 22.7031 144.44C21.8765 144.24 21.1965 144.033 20.6631 143.82C20.1431 143.607 19.6898 143.28 19.3031 142.84C18.9298 142.4 18.7431 141.807 18.7431 141.06C18.7431 140.447 18.9165 139.887 19.2631 139.38C19.6231 138.873 20.1298 138.473 20.7831 138.18C21.4498 137.887 22.2298 137.74 23.1231 137.74C24.4431 137.74 25.4965 138.073 26.2831 138.74C27.0698 139.393 27.5031 140.28 27.5831 141.4H24.9031C24.8631 140.96 24.6765 140.613 24.3431 140.36C24.0231 140.093 23.5898 139.96 23.0431 139.96C22.5365 139.96 22.1431 140.053 21.8631 140.24C21.5965 140.427 21.4631 140.687 21.4631 141.02C21.4631 141.393 21.6498 141.68 22.0231 141.88C22.3965 142.067 22.9765 142.26 23.7631 142.46C24.5631 142.66 25.2231 142.867 25.7431 143.08C26.2631 143.293 26.7098 143.627 27.0831 144.08C27.4698 144.52 27.6698 145.107 27.6831 145.84C27.6831 146.48 27.5031 147.053 27.1431 147.56C26.7965 148.067 26.2898 148.467 25.6231 148.76C24.9698 149.04 24.2031 149.18 23.3231 149.18ZM40.4416 137.92V149H37.6216V147.6C37.2616 148.08 36.7882 148.46 36.2016 148.74C35.6282 149.007 35.0016 149.14 34.3216 149.14C33.4549 149.14 32.6882 148.96 32.0216 148.6C31.3549 148.227 30.8282 147.687 30.4416 146.98C30.0682 146.26 29.8816 145.407 29.8816 144.42V137.92H32.6816V144.02C32.6816 144.9 32.9016 145.58 33.3416 146.06C33.7816 146.527 34.3816 146.76 35.1416 146.76C35.9149 146.76 36.5216 146.527 36.9616 146.06C37.4016 145.58 37.6216 144.9 37.6216 144.02V137.92H40.4416ZM47.4442 149.18C46.5376 149.18 45.7242 149.02 45.0042 148.7C44.2842 148.367 43.7109 147.92 43.2842 147.36C42.8709 146.8 42.6442 146.18 42.6042 145.5H45.4242C45.4776 145.927 45.6842 146.28 46.0442 146.56C46.4176 146.84 46.8776 146.98 47.4242 146.98C47.9576 146.98 48.3709 146.873 48.6642 146.66C48.9709 146.447 49.1242 146.173 49.1242 145.84C49.1242 145.48 48.9376 145.213 48.5642 145.04C48.2042 144.853 47.6242 144.653 46.8242 144.44C45.9976 144.24 45.3176 144.033 44.7842 143.82C44.2642 143.607 43.8109 143.28 43.4242 142.84C43.0509 142.4 42.8642 141.807 42.8642 141.06C42.8642 140.447 43.0376 139.887 43.3842 139.38C43.7442 138.873 44.2509 138.473 44.9042 138.18C45.5709 137.887 46.3509 137.74 47.2442 137.74C48.5642 137.74 49.6176 138.073 50.4042 138.74C51.1909 139.393 51.6242 140.28 51.7042 141.4H49.0242C48.9842 140.96 48.7976 140.613 48.4642 140.36C48.1442 140.093 47.7109 139.96 47.1642 139.96C46.6576 139.96 46.2642 140.053 45.9842 140.24C45.7176 140.427 45.5842 140.687 45.5842 141.02C45.5842 141.393 45.7709 141.68 46.1442 141.88C46.5176 142.067 47.0976 142.26 47.8842 142.46C48.6842 142.66 49.3442 142.867 49.8642 143.08C50.3842 143.293 50.8309 143.627 51.2042 144.08C51.5909 144.52 51.7909 145.107 51.8042 145.84C51.8042 146.48 51.6242 147.053 51.2642 147.56C50.9176 148.067 50.4109 148.467 49.7442 148.76C49.0909 149.04 48.3242 149.18 47.4442 149.18ZM56.9027 139.52C57.2627 139.013 57.756 138.593 58.3827 138.26C59.0227 137.913 59.7493 137.74 60.5627 137.74C61.5093 137.74 62.3627 137.973 63.1227 138.44C63.896 138.907 64.5027 139.573 64.9427 140.44C65.396 141.293 65.6227 142.287 65.6227 143.42C65.6227 144.553 65.396 145.56 64.9427 146.44C64.5027 147.307 63.896 147.98 63.1227 148.46C62.3627 148.94 61.5093 149.18 60.5627 149.18C59.7493 149.18 59.0293 149.013 58.4027 148.68C57.7893 148.347 57.2893 147.927 56.9027 147.42V154.28H54.1027V137.92H56.9027V139.52ZM62.7627 143.42C62.7627 142.753 62.6227 142.18 62.3427 141.7C62.076 141.207 61.716 140.833 61.2627 140.58C60.8227 140.327 60.3427 140.2 59.8227 140.2C59.316 140.2 58.836 140.333 58.3827 140.6C57.9427 140.853 57.5827 141.227 57.3027 141.72C57.036 142.213 56.9027 142.793 56.9027 143.46C56.9027 144.127 57.036 144.707 57.3027 145.2C57.5827 145.693 57.9427 146.073 58.3827 146.34C58.836 146.593 59.316 146.72 59.8227 146.72C60.3427 146.72 60.8227 146.587 61.2627 146.32C61.716 146.053 62.076 145.673 62.3427 145.18C62.6227 144.687 62.7627 144.1 62.7627 143.42ZM77.9573 143.22C77.9573 143.62 77.9307 143.98 77.8773 144.3H69.7773C69.844 145.1 70.124 145.727 70.6173 146.18C71.1107 146.633 71.7173 146.86 72.4373 146.86C73.4773 146.86 74.2173 146.413 74.6573 145.52H77.6773C77.3573 146.587 76.744 147.467 75.8373 148.16C74.9307 148.84 73.8173 149.18 72.4973 149.18C71.4307 149.18 70.4707 148.947 69.6173 148.48C68.7773 148 68.1173 147.327 67.6373 146.46C67.1707 145.593 66.9373 144.593 66.9373 143.46C66.9373 142.313 67.1707 141.307 67.6373 140.44C68.104 139.573 68.7573 138.907 69.5973 138.44C70.4373 137.973 71.404 137.74 72.4973 137.74C73.5507 137.74 74.4907 137.967 75.3173 138.42C76.1573 138.873 76.804 139.52 77.2573 140.36C77.724 141.187 77.9573 142.14 77.9573 143.22ZM75.0573 142.42C75.044 141.7 74.784 141.127 74.2773 140.7C73.7707 140.26 73.1507 140.04 72.4173 140.04C71.724 140.04 71.1373 140.253 70.6573 140.68C70.1907 141.093 69.904 141.673 69.7973 142.42H75.0573ZM86.1411 137.76C87.4611 137.76 88.5278 138.18 89.3411 139.02C90.1544 139.847 90.5611 141.007 90.5611 142.5V149H87.7611V142.88C87.7611 142 87.5411 141.327 87.1011 140.86C86.6611 140.38 86.0611 140.14 85.3011 140.14C84.5278 140.14 83.9144 140.38 83.4611 140.86C83.0211 141.327 82.8011 142 82.8011 142.88V149H80.0011V137.92H82.8011V139.3C83.1744 138.82 83.6478 138.447 84.2211 138.18C84.8078 137.9 85.4478 137.76 86.1411 137.76ZM92.5037 143.42C92.5037 142.3 92.7237 141.307 93.1637 140.44C93.6171 139.573 94.2304 138.907 95.0038 138.44C95.7771 137.973 96.6371 137.74 97.5838 137.74C98.3038 137.74 98.9904 137.9 99.6438 138.22C100.297 138.527 100.817 138.94 101.204 139.46V134.2H104.044V149H101.204V147.36C100.857 147.907 100.37 148.347 99.7438 148.68C99.1171 149.013 98.3904 149.18 97.5638 149.18C96.6304 149.18 95.7771 148.94 95.0038 148.46C94.2304 147.98 93.6171 147.307 93.1637 146.44C92.7237 145.56 92.5037 144.553 92.5037 143.42ZM101.224 143.46C101.224 142.78 101.09 142.2 100.824 141.72C100.557 141.227 100.197 140.853 99.7438 140.6C99.2904 140.333 98.8038 140.2 98.2838 140.2C97.7638 140.2 97.2838 140.327 96.8438 140.58C96.4038 140.833 96.0438 141.207 95.7638 141.7C95.4971 142.18 95.3638 142.753 95.3638 143.42C95.3638 144.087 95.4971 144.673 95.7638 145.18C96.0438 145.673 96.4038 146.053 96.8438 146.32C97.2971 146.587 97.7771 146.72 98.2838 146.72C98.8038 146.72 99.2904 146.593 99.7438 146.34C100.197 146.073 100.557 145.7 100.824 145.22C101.09 144.727 101.224 144.14 101.224 143.46ZM117.078 143.22C117.078 143.62 117.052 143.98 116.998 144.3H108.898C108.965 145.1 109.245 145.727 109.738 146.18C110.232 146.633 110.838 146.86 111.558 146.86C112.598 146.86 113.338 146.413 113.778 145.52H116.798C116.478 146.587 115.865 147.467 114.958 148.16C114.052 148.84 112.938 149.18 111.618 149.18C110.552 149.18 109.592 148.947 108.738 148.48C107.898 148 107.238 147.327 106.758 146.46C106.292 145.593 106.058 144.593 106.058 143.46C106.058 142.313 106.292 141.307 106.758 140.44C107.225 139.573 107.878 138.907 108.718 138.44C109.558 137.973 110.525 137.74 111.618 137.74C112.672 137.74 113.612 137.967 114.438 138.42C115.278 138.873 115.925 139.52 116.378 140.36C116.845 141.187 117.078 142.14 117.078 143.22ZM114.178 142.42C114.165 141.7 113.905 141.127 113.398 140.7C112.892 140.26 112.272 140.04 111.538 140.04C110.845 140.04 110.258 140.253 109.778 140.68C109.312 141.093 109.025 141.673 108.918 142.42H114.178ZM118.402 143.42C118.402 142.3 118.622 141.307 119.062 140.44C119.516 139.573 120.129 138.907 120.902 138.44C121.676 137.973 122.536 137.74 123.482 137.74C124.202 137.74 124.889 137.9 125.542 138.22C126.196 138.527 126.716 138.94 127.102 139.46V134.2H129.942V149H127.102V147.36C126.756 147.907 126.269 148.347 125.642 148.68C125.016 149.013 124.289 149.18 123.462 149.18C122.529 149.18 121.676 148.94 120.902 148.46C120.129 147.98 119.516 147.307 119.062 146.44C118.622 145.56 118.402 144.553 118.402 143.42ZM127.122 143.46C127.122 142.78 126.989 142.2 126.722 141.72C126.456 141.227 126.096 140.853 125.642 140.6C125.189 140.333 124.702 140.2 124.182 140.2C123.662 140.2 123.182 140.327 122.742 140.58C122.302 140.833 121.942 141.207 121.662 141.7C121.396 142.18 121.262 142.753 121.262 143.42C121.262 144.087 121.396 144.673 121.662 145.18C121.942 145.673 122.302 146.053 122.742 146.32C123.196 146.587 123.676 146.72 124.182 146.72C124.702 146.72 125.189 146.593 125.642 146.34C126.096 146.073 126.456 145.7 126.722 145.22C126.989 144.727 127.122 144.14 127.122 143.46Z" fill="#2F2E41"/>
</svg>
