<svg width="364" height="492" viewBox="0 0 364 492" fill="none" xmlns="http://www.w3.org/2000/svg">
<path d="M240.206 140.416C246.985 137.027 250.732 130.782 248.575 126.468C246.417 122.153 239.173 121.404 232.391 124.796C229.664 126.113 227.291 128.065 225.473 130.487L196.928 145.21L204.123 158.458L231.499 142.537C234.529 142.536 237.514 141.809 240.206 140.416V140.416Z" fill="#FFB6B6"/>
<path d="M78.4789 482.896L92.0663 482.895L98.5299 430.486L78.4761 430.487L78.4789 482.896Z" fill="#FFB6B6"/>
<path d="M125.031 482.588C125.454 483.3 125.677 485.6 125.677 486.429C125.677 488.976 123.613 491.04 121.066 491.04H78.9871C77.2496 491.04 75.841 489.632 75.841 487.894V486.142C75.841 486.142 73.7594 480.877 78.045 474.387C78.045 474.387 83.3715 479.469 91.3306 471.51L93.6776 467.258L110.667 479.683L120.084 480.842C122.144 481.096 123.971 480.803 125.031 482.588H125.031H125.031Z" fill="#6C63FF"/>
<path d="M99.8152 425.269L111.882 431.515L141.718 387.945L123.909 378.726L99.8152 425.269Z" fill="#FFB6B6"/>
<path d="M141.297 446.398C141.345 447.226 140.486 449.37 140.105 450.106C138.934 452.368 136.151 453.252 133.89 452.081L96.5221 432.735C94.9792 431.936 94.3759 430.038 95.1747 428.495L95.9802 426.939C95.9802 426.939 96.5524 421.306 103.342 417.514C103.342 417.514 105.736 424.475 116.463 421.066L120.502 418.37L129.877 437.215L137.707 442.574C139.42 443.746 141.176 444.326 141.297 446.398L141.297 446.398V446.398Z" fill="#6C63FF"/>
<path d="M64.6804 66.9081H100.313L99.5358 78.5265L122.773 152.594L127.13 201.973L83.5604 209.234L63.2281 117.739L67.585 75.6219L64.6804 66.9081Z" fill="#6C63FF"/>
<path d="M127.13 86.1311C127.13 86.1311 136.57 79.2527 140.926 89.4188C145.283 99.585 173.603 151.142 173.603 151.142L217.899 131.536L225.16 147.511C225.16 147.511 188.853 182.367 167.068 178.01C145.283 173.653 127.856 135.893 127.856 135.893L127.13 86.1311H127.13Z" fill="#4B5563"/>
<path d="M52.3357 239.006C52.3357 239.006 50.8834 262.243 53.788 281.123C56.6927 300.003 76.2988 460.483 76.2988 460.483L100.988 459.031L103.166 270.957L138.022 326.145L107.523 408.926L128.582 418.366L172.877 327.597L142.379 224.483L133.665 198.342L68.3111 205.603L52.3357 239.006V239.006Z" fill="white"/>
<path d="M149.64 244.816C149.64 244.816 110.428 256.434 101.714 156.225L99.7433 75.4261L136.57 85.0619L132.213 157.677L149.64 244.816Z" fill="#4B5563"/>
<path d="M82.8342 57.4681C97.2718 57.4681 108.976 45.7641 108.976 31.3265C108.976 16.889 97.2718 5.185 82.8342 5.185C68.3966 5.185 56.6927 16.889 56.6927 31.3265C56.6927 45.7641 68.3966 57.4681 82.8342 57.4681Z" fill="#FFB6B6"/>
<path d="M66.1327 56.7419C66.1327 56.7419 54.5142 43.6712 53.0619 37.8619C51.6096 32.0527 51.6096 16.0773 53.0619 14.625C54.5143 13.1727 70.4896 -1.35037 76.2989 0.101932C82.1081 1.55423 93.6233 8.81577 103.893 8.81577C106.797 8.81577 108.25 23.3388 108.25 23.3388L96.6312 24.7912C96.6312 24.7912 82.1081 17.5296 83.5604 24.7912C85.0127 32.0527 73.3942 32.0527 73.3942 32.0527L74.8466 37.8619L70.4896 39.3142L67.585 33.505C67.585 33.505 69.0373 46.5758 73.3943 52.385C77.7512 58.1942 66.1327 56.7419 66.1327 56.7419H66.1327Z" fill="#4B5563"/>
<path d="M66.8589 76.3481L29.0989 95.2281L52.3358 173.653L47.9789 253.53C47.9789 253.53 107.523 272.41 104.619 218.674C101.714 164.939 101.714 156.225 101.714 156.225L66.8589 76.3481H66.8589Z" fill="#4B5563"/>
<path d="M54.5576 265.848C58.5433 272.295 65.1005 275.465 69.203 272.928C73.3056 270.39 73.3995 263.109 69.4116 256.66C67.8539 254.062 65.6967 251.875 63.1205 250.281L45.8882 223.178L33.3417 231.536L51.6618 257.368C51.9359 260.385 52.9289 263.293 54.5576 265.848V265.848Z" fill="#FFB6B6"/>
<path d="M34.9081 95.228H27.6465C27.6465 95.228 -1.3996 160.582 0.0527007 173.653C0.0527007 173.653 0.052701 185.271 7.31424 193.985C14.5758 202.699 45.0742 252.077 45.0742 252.077L58.145 241.911L32.0035 180.914L47.9788 117.013L34.9081 95.228V95.228Z" fill="#4B5563"/>
<path d="M352.132 194.526H230.868C224.324 194.526 219 190.834 219 186.296V103.23C219 98.6919 224.324 95 230.868 95H352.132C358.676 95 364 98.6919 364 103.23V186.296C364 190.834 358.676 194.526 352.132 194.526Z" fill="#292D34"/>
<path d="M253.451 97.452C236.377 97.452 222.536 107.05 222.536 118.89V184.533C222.536 188.698 227.404 192.074 233.409 192.074H307.559C336.778 192.074 360.464 175.648 360.464 155.386V104.992C360.464 100.828 355.596 97.452 349.591 97.452H253.451V97.452V97.452Z" fill="#4B5563"/>
<path d="M252.838 143H250.038L243.698 133.42V143H240.898V129.02H243.698L250.038 138.62V129.02H252.838V143ZM260.525 143.18C259.458 143.18 258.498 142.947 257.645 142.48C256.791 142 256.118 141.327 255.625 140.46C255.145 139.593 254.905 138.593 254.905 137.46C254.905 136.327 255.151 135.327 255.645 134.46C256.151 133.593 256.838 132.927 257.705 132.46C258.571 131.98 259.538 131.74 260.605 131.74C261.671 131.74 262.638 131.98 263.505 132.46C264.371 132.927 265.051 133.593 265.545 134.46C266.051 135.327 266.305 136.327 266.305 137.46C266.305 138.593 266.045 139.593 265.525 140.46C265.018 141.327 264.325 142 263.445 142.48C262.578 142.947 261.605 143.18 260.525 143.18ZM260.525 140.74C261.031 140.74 261.505 140.62 261.945 140.38C262.398 140.127 262.758 139.753 263.025 139.26C263.291 138.767 263.425 138.167 263.425 137.46C263.425 136.407 263.145 135.6 262.585 135.04C262.038 134.467 261.365 134.18 260.565 134.18C259.765 134.18 259.091 134.467 258.545 135.04C258.011 135.6 257.745 136.407 257.745 137.46C257.745 138.513 258.005 139.327 258.525 139.9C259.058 140.46 259.725 140.74 260.525 140.74ZM271.619 134.22V139.58C271.619 139.953 271.705 140.227 271.879 140.4C272.065 140.56 272.372 140.64 272.799 140.64H274.099V143H272.339C269.979 143 268.799 141.853 268.799 139.56V134.22H267.479V131.92H268.799V129.18H271.619V131.92H274.099V134.22H271.619ZM289.438 140.34H283.878L282.958 143H280.018L285.038 129.02H288.298L293.318 143H290.358L289.438 140.34ZM288.678 138.1L286.658 132.26L284.638 138.1H288.678ZM294.474 137.46C294.474 136.313 294.708 135.313 295.174 134.46C295.641 133.593 296.288 132.927 297.114 132.46C297.941 131.98 298.888 131.74 299.954 131.74C301.328 131.74 302.461 132.087 303.354 132.78C304.261 133.46 304.868 134.42 305.174 135.66H302.154C301.994 135.18 301.721 134.807 301.334 134.54C300.961 134.26 300.494 134.12 299.934 134.12C299.134 134.12 298.501 134.413 298.034 135C297.568 135.573 297.334 136.393 297.334 137.46C297.334 138.513 297.568 139.333 298.034 139.92C298.501 140.493 299.134 140.78 299.934 140.78C301.068 140.78 301.808 140.273 302.154 139.26H305.174C304.868 140.46 304.261 141.413 303.354 142.12C302.448 142.827 301.314 143.18 299.954 143.18C298.888 143.18 297.941 142.947 297.114 142.48C296.288 142 295.641 141.333 295.174 140.48C294.708 139.613 294.474 138.607 294.474 137.46ZM310.486 134.22V139.58C310.486 139.953 310.572 140.227 310.746 140.4C310.932 140.56 311.239 140.64 311.666 140.64H312.966V143H311.206C308.846 143 307.666 141.853 307.666 139.56V134.22H306.346V131.92H307.666V129.18H310.486V131.92H312.966V134.22H310.486ZM316.4 130.6C315.906 130.6 315.493 130.447 315.16 130.14C314.84 129.82 314.68 129.427 314.68 128.96C314.68 128.493 314.84 128.107 315.16 127.8C315.493 127.48 315.906 127.32 316.4 127.32C316.893 127.32 317.3 127.48 317.62 127.8C317.953 128.107 318.12 128.493 318.12 128.96C318.12 129.427 317.953 129.82 317.62 130.14C317.3 130.447 316.893 130.6 316.4 130.6ZM317.78 131.92V143H314.98V131.92H317.78ZM325.166 140.42L327.966 131.92H330.946L326.846 143H323.446L319.366 131.92H322.366L325.166 140.42ZM342.819 137.22C342.819 137.62 342.792 137.98 342.739 138.3H334.639C334.705 139.1 334.985 139.727 335.479 140.18C335.972 140.633 336.579 140.86 337.299 140.86C338.339 140.86 339.079 140.413 339.519 139.52H342.539C342.219 140.587 341.605 141.467 340.699 142.16C339.792 142.84 338.679 143.18 337.359 143.18C336.292 143.18 335.332 142.947 334.479 142.48C333.639 142 332.979 141.327 332.499 140.46C332.032 139.593 331.799 138.593 331.799 137.46C331.799 136.313 332.032 135.307 332.499 134.44C332.965 133.573 333.619 132.907 334.459 132.44C335.299 131.973 336.265 131.74 337.359 131.74C338.412 131.74 339.352 131.967 340.179 132.42C341.019 132.873 341.665 133.52 342.119 134.36C342.585 135.187 342.819 136.14 342.819 137.22ZM339.919 136.42C339.905 135.7 339.645 135.127 339.139 134.7C338.632 134.26 338.012 134.04 337.279 134.04C336.585 134.04 335.999 134.253 335.519 134.68C335.052 135.093 334.765 135.673 334.659 136.42H339.919ZM287.574 159.04L282.854 168.14V173H280.054V168.14L275.314 159.04H278.474L281.474 165.42L284.454 159.04H287.574ZM299.489 167.22C299.489 167.62 299.462 167.98 299.409 168.3H291.309C291.375 169.1 291.655 169.727 292.149 170.18C292.642 170.633 293.249 170.86 293.969 170.86C295.009 170.86 295.749 170.413 296.189 169.52H299.209C298.889 170.587 298.275 171.467 297.369 172.16C296.462 172.84 295.349 173.18 294.029 173.18C292.962 173.18 292.002 172.947 291.149 172.48C290.309 172 289.649 171.327 289.169 170.46C288.702 169.593 288.469 168.593 288.469 167.46C288.469 166.313 288.702 165.307 289.169 164.44C289.635 163.573 290.289 162.907 291.129 162.44C291.969 161.973 292.935 161.74 294.029 161.74C295.082 161.74 296.022 161.967 296.849 162.42C297.689 162.873 298.335 163.52 298.789 164.36C299.255 165.187 299.489 166.14 299.489 167.22ZM296.589 166.42C296.575 165.7 296.315 165.127 295.809 164.7C295.302 164.26 294.682 164.04 293.949 164.04C293.255 164.04 292.669 164.253 292.189 164.68C291.722 165.093 291.435 165.673 291.329 166.42H296.589ZM304.792 164.22V169.58C304.792 169.953 304.879 170.227 305.052 170.4C305.239 170.56 305.546 170.64 305.972 170.64H307.272V173H305.512C303.152 173 301.972 171.853 301.972 169.56V164.22H300.652V161.92H301.972V159.18H304.792V161.92H307.272V164.22H304.792Z" fill="white"/>
</svg>
