<svg width="365" height="492" viewBox="0 0 365 492" fill="none" xmlns="http://www.w3.org/2000/svg">
<path d="M240.516 140.416C247.296 137.027 251.043 130.782 248.885 126.468C246.728 122.153 239.484 121.404 232.702 124.796C229.974 126.113 227.602 128.065 225.783 130.487L197.239 145.21L204.433 158.458L231.809 142.537C234.839 142.536 237.825 141.809 240.516 140.416V140.416Z" fill="#FFB6B6"/>
<path d="M78.7894 482.896L92.3767 482.895L98.8403 430.486L78.7866 430.487L78.7894 482.896Z" fill="#FFB6B6"/>
<path d="M125.342 482.588C125.765 483.3 125.988 485.6 125.988 486.429C125.988 488.976 123.923 491.04 121.376 491.04H79.2976C77.5601 491.04 76.1515 489.632 76.1515 487.894V486.142C76.1515 486.142 74.07 480.877 78.3556 474.387C78.3556 474.387 83.682 479.469 91.6411 471.51L93.9882 467.258L110.978 479.683L120.395 480.842C122.455 481.096 124.282 480.803 125.341 482.588H125.342H125.342Z" fill="#2F2E41"/>
<path d="M100.126 425.269L112.193 431.515L142.028 387.945L124.219 378.726L100.126 425.269Z" fill="#FFB6B6"/>
<path d="M141.608 446.398C141.656 447.226 140.797 449.37 140.416 450.106C139.245 452.368 136.462 453.252 134.2 452.081L96.8326 432.735C95.2897 431.936 94.6863 430.038 95.4852 428.495L96.2906 426.939C96.2906 426.939 96.8629 421.306 103.652 417.514C103.652 417.514 106.046 424.475 116.774 421.066L120.813 418.37L130.187 437.215L138.017 442.574C139.73 443.746 141.487 444.326 141.607 446.398L141.608 446.398V446.398Z" fill="#2F2E41"/>
<path d="M64.9909 66.9081H100.624L99.8463 78.5265L123.083 152.594L127.44 201.973L83.8709 209.234L63.5386 117.739L67.8955 75.6219L64.9909 66.9081Z" fill="#6C63FF"/>
<path d="M67.1694 76.3481L29.4094 95.2281L52.6463 173.653L48.2894 253.53C48.2894 253.53 107.834 272.41 104.929 218.674C102.025 164.939 102.025 156.225 102.025 156.225L67.1694 76.3481H67.1694Z" fill="#2F2E41"/>
<path d="M127.44 86.1311C127.44 86.1311 136.88 79.2527 141.237 89.4188C145.594 99.585 173.914 151.142 173.914 151.142L218.209 131.536L225.471 147.511C225.471 147.511 189.163 182.367 167.379 178.01C145.594 173.653 128.166 135.893 128.166 135.893L127.44 86.1311H127.44Z" fill="#2F2E41"/>
<path d="M52.6463 239.006C52.6463 239.006 51.194 262.243 54.0986 281.123C57.0032 300.003 76.6094 460.483 76.6094 460.483L101.299 459.031L103.477 270.957L138.332 326.145L107.834 408.926L128.892 418.366L173.188 327.597L142.689 224.483L133.975 198.342L68.6217 205.603L52.6463 239.006V239.006Z" fill="#2F2E41"/>
<path d="M149.951 244.816C149.951 244.816 110.739 256.434 102.025 156.225L100.054 75.4261L136.88 85.0619L132.523 157.677L149.951 244.816V244.816Z" fill="#2F2E41"/>
<path d="M83.1447 57.4681C97.5823 57.4681 109.286 45.7641 109.286 31.3265C109.286 16.889 97.5823 5.185 83.1447 5.185C68.7071 5.185 57.0032 16.889 57.0032 31.3265C57.0032 45.7641 68.7071 57.4681 83.1447 57.4681Z" fill="#FFB6B6"/>
<path d="M66.4432 56.7419C66.4432 56.7419 54.8247 43.6712 53.3724 37.8619C51.9201 32.0527 51.9201 16.0773 53.3724 14.625C54.8247 13.1727 70.8001 -1.35037 76.6093 0.101932C82.4186 1.55423 93.9338 8.81577 104.203 8.81577C107.108 8.81577 108.56 23.3388 108.56 23.3388L96.9416 24.7912C96.9416 24.7912 82.4186 17.5296 83.8709 24.7912C85.3232 32.0527 73.7047 32.0527 73.7047 32.0527L75.157 37.8619L70.8001 39.3142L67.8955 33.505C67.8955 33.505 69.3478 46.5758 73.7047 52.385C78.0617 58.1942 66.4432 56.7419 66.4432 56.7419H66.4432Z" fill="#2F2E41"/>
<path d="M54.8682 265.848C58.8539 272.295 65.4111 275.465 69.5137 272.928C73.6162 270.39 73.7101 263.109 69.7222 256.66C68.1645 254.062 66.0073 251.875 63.4311 250.281L46.1988 223.178L33.6523 231.536L51.9724 257.368C52.2465 260.385 53.2395 263.293 54.8682 265.848V265.848Z" fill="#FFB6B6"/>
<path d="M35.2186 95.228H27.9571C27.9571 95.228 -1.08905 160.582 0.363248 173.653C0.363248 173.653 0.363248 185.271 7.62479 193.985C14.8863 202.699 45.3848 252.077 45.3848 252.077L58.4555 241.911L32.314 180.914L48.2894 117.013L35.2186 95.228V95.228Z" fill="#2F2E41"/>
<path d="M353.132 194.526H231.868C225.324 194.526 220 190.834 220 186.296V103.23C220 98.6919 225.324 95 231.868 95H353.132C359.676 95 365 98.6919 365 103.23V186.296C365 190.834 359.676 194.526 353.132 194.526Z" fill="#E6E6E6"/>
<path d="M254.451 97.452C237.377 97.452 223.536 107.05 223.536 118.89V184.533C223.536 188.698 228.404 192.074 234.409 192.074H308.559C337.778 192.074 361.464 175.648 361.464 155.386V104.992C361.464 100.828 356.596 97.452 350.591 97.452H254.451V97.452V97.452Z" fill="white"/>
<path d="M253.838 137H251.038L244.698 127.42V137H241.898V123.02H244.698L251.038 132.62V123.02H253.838V137ZM261.525 137.18C260.458 137.18 259.498 136.947 258.645 136.48C257.791 136 257.118 135.327 256.625 134.46C256.145 133.593 255.905 132.593 255.905 131.46C255.905 130.327 256.151 129.327 256.645 128.46C257.151 127.593 257.838 126.927 258.705 126.46C259.571 125.98 260.538 125.74 261.605 125.74C262.671 125.74 263.638 125.98 264.505 126.46C265.371 126.927 266.051 127.593 266.545 128.46C267.051 129.327 267.305 130.327 267.305 131.46C267.305 132.593 267.045 133.593 266.525 134.46C266.018 135.327 265.325 136 264.445 136.48C263.578 136.947 262.605 137.18 261.525 137.18ZM261.525 134.74C262.031 134.74 262.505 134.62 262.945 134.38C263.398 134.127 263.758 133.753 264.025 133.26C264.291 132.767 264.425 132.167 264.425 131.46C264.425 130.407 264.145 129.6 263.585 129.04C263.038 128.467 262.365 128.18 261.565 128.18C260.765 128.18 260.091 128.467 259.545 129.04C259.011 129.6 258.745 130.407 258.745 131.46C258.745 132.513 259.005 133.327 259.525 133.9C260.058 134.46 260.725 134.74 261.525 134.74ZM272.619 128.22V133.58C272.619 133.953 272.705 134.227 272.879 134.4C273.065 134.56 273.372 134.64 273.799 134.64H275.099V137H273.339C270.979 137 269.799 135.853 269.799 133.56V128.22H268.479V125.92H269.799V123.18H272.619V125.92H275.099V128.22H272.619ZM290.438 134.34H284.878L283.958 137H281.018L286.038 123.02H289.298L294.318 137H291.358L290.438 134.34ZM289.678 132.1L287.658 126.26L285.638 132.1H289.678ZM295.474 131.46C295.474 130.313 295.708 129.313 296.174 128.46C296.641 127.593 297.288 126.927 298.114 126.46C298.941 125.98 299.888 125.74 300.954 125.74C302.328 125.74 303.461 126.087 304.354 126.78C305.261 127.46 305.868 128.42 306.174 129.66H303.154C302.994 129.18 302.721 128.807 302.334 128.54C301.961 128.26 301.494 128.12 300.934 128.12C300.134 128.12 299.501 128.413 299.034 129C298.568 129.573 298.334 130.393 298.334 131.46C298.334 132.513 298.568 133.333 299.034 133.92C299.501 134.493 300.134 134.78 300.934 134.78C302.068 134.78 302.808 134.273 303.154 133.26H306.174C305.868 134.46 305.261 135.413 304.354 136.12C303.448 136.827 302.314 137.18 300.954 137.18C299.888 137.18 298.941 136.947 298.114 136.48C297.288 136 296.641 135.333 296.174 134.48C295.708 133.613 295.474 132.607 295.474 131.46ZM311.486 128.22V133.58C311.486 133.953 311.572 134.227 311.746 134.4C311.932 134.56 312.239 134.64 312.666 134.64H313.966V137H312.206C309.846 137 308.666 135.853 308.666 133.56V128.22H307.346V125.92H308.666V123.18H311.486V125.92H313.966V128.22H311.486ZM317.4 124.6C316.906 124.6 316.493 124.447 316.16 124.14C315.84 123.82 315.68 123.427 315.68 122.96C315.68 122.493 315.84 122.107 316.16 121.8C316.493 121.48 316.906 121.32 317.4 121.32C317.893 121.32 318.3 121.48 318.62 121.8C318.953 122.107 319.12 122.493 319.12 122.96C319.12 123.427 318.953 123.82 318.62 124.14C318.3 124.447 317.893 124.6 317.4 124.6ZM318.78 125.92V137H315.98V125.92H318.78ZM326.166 134.42L328.966 125.92H331.946L327.846 137H324.446L320.366 125.92H323.366L326.166 134.42ZM343.819 131.22C343.819 131.62 343.792 131.98 343.739 132.3H335.639C335.705 133.1 335.985 133.727 336.479 134.18C336.972 134.633 337.579 134.86 338.299 134.86C339.339 134.86 340.079 134.413 340.519 133.52H343.539C343.219 134.587 342.605 135.467 341.699 136.16C340.792 136.84 339.679 137.18 338.359 137.18C337.292 137.18 336.332 136.947 335.479 136.48C334.639 136 333.979 135.327 333.499 134.46C333.032 133.593 332.799 132.593 332.799 131.46C332.799 130.313 333.032 129.307 333.499 128.44C333.965 127.573 334.619 126.907 335.459 126.44C336.299 125.973 337.265 125.74 338.359 125.74C339.412 125.74 340.352 125.967 341.179 126.42C342.019 126.873 342.665 127.52 343.119 128.36C343.585 129.187 343.819 130.14 343.819 131.22ZM340.919 130.42C340.905 129.7 340.645 129.127 340.139 128.7C339.632 128.26 339.012 128.04 338.279 128.04C337.585 128.04 336.999 128.253 336.519 128.68C336.052 129.093 335.765 129.673 335.659 130.42H340.919ZM288.574 153.04L283.854 162.14V167H281.054V162.14L276.314 153.04H279.474L282.474 159.42L285.454 153.04H288.574ZM300.489 161.22C300.489 161.62 300.462 161.98 300.409 162.3H292.309C292.375 163.1 292.655 163.727 293.149 164.18C293.642 164.633 294.249 164.86 294.969 164.86C296.009 164.86 296.749 164.413 297.189 163.52H300.209C299.889 164.587 299.275 165.467 298.369 166.16C297.462 166.84 296.349 167.18 295.029 167.18C293.962 167.18 293.002 166.947 292.149 166.48C291.309 166 290.649 165.327 290.169 164.46C289.702 163.593 289.469 162.593 289.469 161.46C289.469 160.313 289.702 159.307 290.169 158.44C290.635 157.573 291.289 156.907 292.129 156.44C292.969 155.973 293.935 155.74 295.029 155.74C296.082 155.74 297.022 155.967 297.849 156.42C298.689 156.873 299.335 157.52 299.789 158.36C300.255 159.187 300.489 160.14 300.489 161.22ZM297.589 160.42C297.575 159.7 297.315 159.127 296.809 158.7C296.302 158.26 295.682 158.04 294.949 158.04C294.255 158.04 293.669 158.253 293.189 158.68C292.722 159.093 292.435 159.673 292.329 160.42H297.589ZM305.792 158.22V163.58C305.792 163.953 305.879 164.227 306.052 164.4C306.239 164.56 306.546 164.64 306.972 164.64H308.272V167H306.512C304.152 167 302.972 165.853 302.972 163.56V158.22H301.652V155.92H302.972V153.18H305.792V155.92H308.272V158.22H305.792Z" fill="#2F2E41"/>
</svg>
