<svg width="268" height="485" viewBox="0 0 268 485" fill="none" xmlns="http://www.w3.org/2000/svg">
<path d="M252.044 30.9301C250.704 35.8901 252.244 43.7001 252.824 48.3301C253.444 53.2801 244.864 57.7101 239.954 57.9901C240.075 56.3517 239.615 54.723 238.654 53.3901C238.643 54.9752 238.316 56.5422 237.694 58.0001H196.724C191.564 48.2901 187.174 35.0201 191.914 21.3001C192.154 18.5446 193.203 15.9215 194.929 13.7599C196.655 11.5983 198.98 9.99463 201.614 9.15012L223.954 2.00012C232.764 2.00012 243.574 3.25012 248.444 9.81012C250.6 12.8303 252.043 16.2994 252.667 19.9572C253.29 23.6149 253.078 27.3664 252.044 30.9301Z" fill="#4B5563"/>
<path d="M232.867 465.701H221.829L216.576 423.127H232.867V465.701Z" fill="#FFB6B6"/>
<path d="M238.692 484.825H230.777L229.364 477.352L225.745 484.825H204.751C203.745 484.825 202.765 484.504 201.954 483.908C201.144 483.311 200.545 482.471 200.246 481.511C199.946 480.55 199.962 479.519 200.29 478.567C200.618 477.616 201.242 476.794 202.07 476.223L218.835 464.644V457.089L236.469 458.141L238.692 484.825Z" fill="white"/>
<path d="M250.193 388.591L242.443 396.451L208.438 370.302L219.875 358.702L250.193 388.591Z" fill="#FFB6B6"/>
<path d="M267.901 397.87L262.344 403.506L256.03 399.266L258.811 407.089L244.072 422.039C243.366 422.756 242.449 423.228 241.455 423.386C240.461 423.545 239.443 423.382 238.548 422.92C237.654 422.459 236.93 421.724 236.483 420.823C236.036 419.921 235.889 418.9 236.063 417.909L239.589 397.841L234.208 392.537L247.338 380.719L267.901 397.87Z" fill="white"/>
<path d="M161.898 158.267L195.285 105.149C196.693 102.894 197.158 100.176 196.579 97.5817C196.001 94.9873 194.426 92.7243 192.194 91.281C191.039 90.5344 189.744 90.0307 188.388 89.8008C187.033 89.5708 185.644 89.6194 184.308 89.9436C182.972 90.2677 181.715 90.8606 180.616 91.6861C179.516 92.5116 178.596 93.5524 177.911 94.7451L144.922 150.986L123.437 184.315C121.649 184.002 119.809 184.248 118.166 185.018C116.522 185.789 115.156 187.046 114.253 188.619C113.349 190.193 112.952 192.007 113.115 193.814C113.278 195.621 113.993 197.335 115.164 198.721C116.335 200.108 117.904 201.1 119.658 201.564C121.413 202.027 123.267 201.94 124.97 201.313C126.673 200.686 128.141 199.55 129.176 198.059C130.211 196.568 130.761 194.795 130.753 192.98L161.898 158.267Z" fill="#FFB6B6"/>
<path d="M193.363 119.04L196.177 118.51C195.798 117.819 195.64 117.028 195.724 116.245C195.807 115.461 196.129 114.722 196.646 114.127C197.162 113.532 197.848 113.11 198.612 112.916C199.376 112.723 200.181 112.769 200.918 113.047C197.526 109.509 199.174 103.685 201.355 99.2973C202.932 96.1256 204.705 92.9916 205.477 89.5345C206.648 84.2864 205.138 77.9344 198.138 76.6778C195.277 76.2301 192.35 76.8228 189.888 78.3484C185.489 80.9477 184.499 79.816 181.724 84.0001L180.142 86.9397C178.111 90.1222 175.687 93.0359 172.926 95.612C170.953 97.5777 169.362 99.8935 168.235 102.441C168.088 102.756 167.869 103.033 167.596 103.25C166.514 104.087 165.042 104.129 163.686 104.307C161.976 104.532 160.02 105.256 160.064 107.377C160.089 107.884 160.218 108.381 160.444 108.835C160.67 109.29 160.987 109.693 161.376 110.019C168.596 116.337 177.045 121.094 186.192 123.991C188.224 124.633 190.507 125.165 192.419 124.223C194.33 123.281 195.15 120.201 193.363 119.04Z" fill="#6C63FF"/>
<path d="M235.724 220L170.724 219L168.724 204L174.724 170H225.724L235.724 220Z" fill="#FFB6B6"/>
<path d="M168.724 203L166.724 230L128.992 297.592C127.179 300.601 126.384 304.115 126.724 307.611C127.064 311.108 128.521 314.402 130.879 317.006L190.051 370.623C190.051 370.623 201.684 371.004 200.704 376.502C199.724 382 205.941 381.74 205.941 381.74L212.938 386.795L216.724 358C204.002 329.594 185.137 320.929 168.724 307.825C168.724 307.825 175.645 305.768 174.185 303.384C172.724 301 177.31 300.842 177.31 300.842C177.31 300.842 180.353 300.431 180.539 298.216C180.724 296 183.675 295.665 183.675 295.665L200.23 279L243.724 277C243.724 277 262.13 230.89 231.724 201L168.724 203Z" fill="white"/>
<path d="M200.327 266.478L214.724 438L235.929 436.716L243.724 277L200.327 266.478Z" fill="white"/>
<path d="M201.361 61.8958L225.634 60.6454L236.909 78.4602C236.909 78.4602 258.122 82.0068 256.651 107.004C255.181 132.001 230.841 153.935 230.841 153.935L231.882 166.953L230.075 172.116L230.307 175.015L232.772 178.085L233.025 181.26L230.841 186.284L231.724 193C231.724 193 209.762 197.36 198.243 188.68C186.724 180 169.724 185 169.724 185L169.084 176.727L172.415 172.26L170.555 166.434L173.352 160.83L174.811 143.03C174.811 143.03 158.853 119.057 177.172 101.001L184.524 88.5024L192.75 78.4659L201.361 61.8958Z" fill="#6C63FF"/>
<path d="M260.883 170.305L259.096 107.59C259.013 104.934 257.888 102.416 255.965 100.581C254.042 98.7466 251.474 97.7415 248.816 97.7831C247.441 97.8046 246.085 98.1059 244.83 98.6686C243.576 99.2313 242.449 100.044 241.518 101.056C240.588 102.069 239.873 103.26 239.418 104.558C238.963 105.855 238.777 107.232 238.872 108.604L242.724 173.692L243.398 213.34C241.739 214.075 240.346 215.302 239.408 216.856C238.471 218.41 238.035 220.214 238.159 222.025C238.283 223.835 238.961 225.563 240.101 226.975C241.242 228.386 242.789 229.413 244.533 229.914C246.277 230.416 248.133 230.368 249.849 229.778C251.565 229.188 253.058 228.084 254.124 226.616C255.191 225.148 255.78 223.387 255.811 221.572C255.842 219.758 255.314 217.978 254.298 216.475L260.883 170.305Z" fill="#FFB6B6"/>
<path d="M265.223 120.206C265.682 119.74 265.975 119.136 266.057 118.487C266.14 117.838 266.007 117.181 265.68 116.615C265.289 115.909 265.128 115.098 265.22 114.297C265.239 114.142 265.269 113.988 265.309 113.838C265.57 112.934 265.609 111.981 265.423 111.059C265.236 110.137 264.83 109.274 264.239 108.542C262.258 106.163 261.302 102.562 260.888 99.3517C260.435 95.8386 260.166 92.2482 258.885 88.9457C257.038 84.1817 252.623 79.9361 246.597 81.9681C244.048 82.872 241.888 84.6272 240.482 86.9377C237.477 91.7294 237.445 97.523 237.466 103.066L236.386 100.876C236.515 106.929 235.421 112.947 233.168 118.567C234.511 118.307 235.461 120.111 235.027 121.408C234.593 122.706 233.393 123.559 232.365 124.461C231.069 125.599 229.845 127.288 231.061 129.027C231.364 129.434 231.747 129.775 232.188 130.027C232.628 130.28 233.116 130.438 233.621 130.493C243.135 131.73 252.803 130.986 262.016 128.307C264.062 127.711 266.255 126.884 267.32 125.038C268.385 123.192 267.354 120.176 265.223 120.206Z" fill="#6C63FF"/>
<path d="M214.724 57.0001C227.427 57.0001 237.724 46.7027 237.724 34.0001C237.724 21.2976 227.427 11.0001 214.724 11.0001C202.022 11.0001 191.724 21.2976 191.724 34.0001C191.724 46.7027 202.022 57.0001 214.724 57.0001Z" fill="#FFB6B6"/>
<path d="M243.724 28.0002V33.0002H223.824C224.026 32.0349 224.027 31.0383 223.825 30.0729C223.624 29.1075 223.225 28.1942 222.654 27.3902C222.638 29.347 222.151 31.2712 221.234 33.0002C209.727 36.4028 200.069 36.3376 192.155 33.0002C190.98 33.0002 189.853 32.5334 189.022 31.7024C188.191 30.8715 187.724 29.7445 187.724 28.5693C187.724 13.2395 199.808 0.322205 215.135 0.00627507C218.861 -0.0726226 222.565 0.593166 226.03 1.96459C229.495 3.33601 232.652 5.38547 235.315 7.9928C237.977 10.6001 240.093 13.7129 241.537 17.1485C242.981 20.5841 243.725 24.2734 243.724 28.0002V28.0002Z" fill="#4B5563"/>
<path d="M116.605 263.526H10.3947C4.66297 263.526 0 259.834 0 255.296V172.23C0 167.692 4.66297 164 10.3947 164H116.605C122.337 164 127 167.692 127 172.23V255.296C127 259.834 122.337 263.526 116.605 263.526Z" fill="#292D34"/>
<path d="M30.1744 166.452C15.22 166.452 3.09706 176.05 3.09706 187.89V253.533C3.09706 257.698 7.36092 261.074 12.6206 261.074H77.5655C103.157 261.074 123.903 244.648 123.903 224.386V173.992C123.903 169.828 119.639 166.452 114.379 166.452H30.1744V166.452Z" fill="#4B5563"/>
<path d="M25.9227 221H23.1227L16.7827 211.42V221H13.9827V207.02H16.7827L23.1227 216.62V207.02H25.9227V221ZM33.6097 221.18C32.543 221.18 31.583 220.947 30.7297 220.48C29.8764 220 29.203 219.327 28.7097 218.46C28.2297 217.593 27.9897 216.593 27.9897 215.46C27.9897 214.327 28.2364 213.327 28.7297 212.46C29.2364 211.593 29.923 210.927 30.7897 210.46C31.6564 209.98 32.623 209.74 33.6897 209.74C34.7564 209.74 35.723 209.98 36.5897 210.46C37.4564 210.927 38.1364 211.593 38.6297 212.46C39.1364 213.327 39.3897 214.327 39.3897 215.46C39.3897 216.593 39.1297 217.593 38.6097 218.46C38.103 219.327 37.4097 220 36.5297 220.48C35.663 220.947 34.6897 221.18 33.6097 221.18ZM33.6097 218.74C34.1164 218.74 34.5897 218.62 35.0297 218.38C35.483 218.127 35.843 217.753 36.1097 217.26C36.3764 216.767 36.5097 216.167 36.5097 215.46C36.5097 214.407 36.2297 213.6 35.6697 213.04C35.123 212.467 34.4497 212.18 33.6497 212.18C32.8497 212.18 32.1764 212.467 31.6297 213.04C31.0964 213.6 30.8297 214.407 30.8297 215.46C30.8297 216.513 31.0897 217.327 31.6097 217.9C32.143 218.46 32.8097 218.74 33.6097 218.74ZM57.7892 207.04V221H54.9892V215.06H49.0092V221H46.2092V207.04H49.0092V212.78H54.9892V207.04H57.7892ZM61.9652 208.6C61.4718 208.6 61.0585 208.447 60.7252 208.14C60.4052 207.82 60.2452 207.427 60.2452 206.96C60.2452 206.493 60.4052 206.107 60.7252 205.8C61.0585 205.48 61.4718 205.32 61.9652 205.32C62.4585 205.32 62.8652 205.48 63.1852 205.8C63.5185 206.107 63.6852 206.493 63.6852 206.96C63.6852 207.427 63.5185 207.82 63.1852 208.14C62.8652 208.447 62.4585 208.6 61.9652 208.6ZM63.3452 209.92V221H60.5452V209.92H63.3452ZM70.3516 221.18C69.4449 221.18 68.6316 221.02 67.9116 220.7C67.1916 220.367 66.6183 219.92 66.1916 219.36C65.7783 218.8 65.5516 218.18 65.5116 217.5H68.3316C68.3849 217.927 68.5916 218.28 68.9516 218.56C69.3249 218.84 69.7849 218.98 70.3316 218.98C70.8649 218.98 71.2783 218.873 71.5716 218.66C71.8783 218.447 72.0316 218.173 72.0316 217.84C72.0316 217.48 71.8449 217.213 71.4716 217.04C71.1116 216.853 70.5316 216.653 69.7316 216.44C68.9049 216.24 68.2249 216.033 67.6916 215.82C67.1716 215.607 66.7183 215.28 66.3316 214.84C65.9583 214.4 65.7716 213.807 65.7716 213.06C65.7716 212.447 65.9449 211.887 66.2916 211.38C66.6516 210.873 67.1583 210.473 67.8116 210.18C68.4783 209.887 69.2583 209.74 70.1516 209.74C71.4716 209.74 72.5249 210.073 73.3116 210.74C74.0983 211.393 74.5316 212.28 74.6116 213.4H71.9316C71.8916 212.96 71.7049 212.613 71.3716 212.36C71.0516 212.093 70.6183 211.96 70.0716 211.96C69.5649 211.96 69.1716 212.053 68.8916 212.24C68.6249 212.427 68.4916 212.687 68.4916 213.02C68.4916 213.393 68.6783 213.68 69.0516 213.88C69.4249 214.067 70.0049 214.26 70.7916 214.46C71.5916 214.66 72.2516 214.867 72.7716 215.08C73.2916 215.293 73.7383 215.627 74.1116 216.08C74.4983 216.52 74.6983 217.107 74.7116 217.84C74.7116 218.48 74.5316 219.053 74.1716 219.56C73.8249 220.067 73.3183 220.467 72.6516 220.76C71.9983 221.04 71.2316 221.18 70.3516 221.18ZM80.27 212.22V217.58C80.27 217.953 80.3567 218.227 80.53 218.4C80.7167 218.56 81.0234 218.64 81.45 218.64H82.75V221H80.99C78.63 221 77.45 219.853 77.45 217.56V212.22H76.13V209.92H77.45V207.18H80.27V209.92H82.75V212.22H80.27ZM89.6839 221.18C88.6173 221.18 87.6573 220.947 86.8039 220.48C85.9506 220 85.2773 219.327 84.7839 218.46C84.3039 217.593 84.0639 216.593 84.0639 215.46C84.0639 214.327 84.3106 213.327 84.8039 212.46C85.3106 211.593 85.9973 210.927 86.8639 210.46C87.7306 209.98 88.6973 209.74 89.7639 209.74C90.8306 209.74 91.7973 209.98 92.6639 210.46C93.5306 210.927 94.2106 211.593 94.7039 212.46C95.2106 213.327 95.4639 214.327 95.4639 215.46C95.4639 216.593 95.2039 217.593 94.6839 218.46C94.1773 219.327 93.4839 220 92.6039 220.48C91.7373 220.947 90.7639 221.18 89.6839 221.18ZM89.6839 218.74C90.1906 218.74 90.6639 218.62 91.1039 218.38C91.5573 218.127 91.9173 217.753 92.1839 217.26C92.4506 216.767 92.5839 216.167 92.5839 215.46C92.5839 214.407 92.3039 213.6 91.7439 213.04C91.1973 212.467 90.5239 212.18 89.7239 212.18C88.9239 212.18 88.2506 212.467 87.7039 213.04C87.1706 213.6 86.9039 214.407 86.9039 215.46C86.9039 216.513 87.1639 217.327 87.6839 217.9C88.2173 218.46 88.8839 218.74 89.6839 218.74ZM100.318 211.64C100.678 211.053 101.144 210.593 101.718 210.26C102.304 209.927 102.971 209.76 103.718 209.76V212.7H102.978C102.098 212.7 101.431 212.907 100.978 213.32C100.538 213.733 100.318 214.453 100.318 215.48V221H97.5178V209.92H100.318V211.64ZM116.204 209.92L109.344 226.24H106.364L108.764 220.72L104.324 209.92H107.464L110.324 217.66L113.224 209.92H116.204Z" fill="white"/>
</svg>
