<svg width="268" height="485" viewBox="0 0 268 485" fill="none" xmlns="http://www.w3.org/2000/svg">
<path d="M252.044 30.93C250.704 35.89 252.244 43.7 252.824 48.33C253.444 53.28 244.864 57.71 239.954 57.99C240.075 56.3515 239.615 54.7229 238.654 53.39C238.643 54.9751 238.316 56.5421 237.694 58H196.724C191.564 48.29 187.174 35.02 191.914 21.3C192.154 18.5445 193.203 15.9214 194.929 13.7598C196.655 11.5982 198.98 9.99451 201.614 9.14999L223.954 2C232.764 2 243.574 3.25 248.444 9.81C250.6 12.8302 252.043 16.2993 252.667 19.957C253.29 23.6148 253.078 27.3663 252.044 30.93Z" fill="#2F2E41"/>
<path d="M232.867 465.701H221.829L216.576 423.127H232.867V465.701Z" fill="#FFB6B6"/>
<path d="M238.692 484.825H230.777L229.364 477.352L225.745 484.825H204.751C203.745 484.825 202.765 484.504 201.954 483.907C201.144 483.311 200.545 482.471 200.246 481.51C199.946 480.55 199.962 479.518 200.29 478.567C200.618 477.616 201.242 476.794 202.07 476.223L218.835 464.644V457.089L236.469 458.141L238.692 484.825Z" fill="#2F2E41"/>
<path d="M250.193 388.591L242.443 396.451L208.438 370.302L219.875 358.702L250.193 388.591Z" fill="#FFB6B6"/>
<path d="M267.901 397.869L262.344 403.506L256.03 399.266L258.811 407.089L244.072 422.039C243.366 422.756 242.449 423.228 241.455 423.386C240.461 423.545 239.443 423.382 238.548 422.92C237.654 422.459 236.93 421.724 236.483 420.822C236.036 419.921 235.889 418.9 236.063 417.909L239.589 397.841L234.208 392.537L247.338 380.719L267.901 397.869Z" fill="#2F2E41"/>
<path d="M161.898 158.267L195.285 105.148C196.693 102.894 197.158 100.176 196.579 97.5816C196.001 94.9871 194.426 92.7242 192.194 91.2809C191.039 90.5343 189.744 90.0306 188.388 89.8007C187.033 89.5707 185.644 89.6193 184.308 89.9434C182.972 90.2676 181.715 90.8604 180.616 91.686C179.516 92.5115 178.596 93.5523 177.911 94.745L144.922 150.986L123.437 184.315C121.649 184.002 119.809 184.248 118.166 185.018C116.522 185.788 115.156 187.046 114.253 188.619C113.349 190.193 112.952 192.007 113.115 193.814C113.278 195.621 113.993 197.334 115.164 198.721C116.335 200.107 117.904 201.1 119.658 201.564C121.413 202.027 123.267 201.94 124.97 201.313C126.673 200.686 128.141 199.549 129.176 198.059C130.211 196.568 130.761 194.795 130.753 192.98L161.898 158.267Z" fill="#FFB6B6"/>
<path d="M193.363 119.04L196.177 118.509C195.798 117.819 195.64 117.028 195.724 116.245C195.807 115.461 196.129 114.722 196.646 114.127C197.162 113.532 197.848 113.11 198.612 112.916C199.376 112.723 200.181 112.768 200.918 113.046C197.526 109.509 199.174 103.685 201.355 99.2972C202.932 96.1254 204.705 92.9915 205.477 89.5344C206.648 84.2863 205.138 77.9343 198.138 76.6777C195.277 76.23 192.35 76.8227 189.888 78.3483C185.489 80.9475 184.499 79.8159 181.724 84L180.142 86.9396C178.111 90.1221 175.687 93.0358 172.926 95.6119C170.953 97.5776 169.362 99.8934 168.235 102.441C168.088 102.756 167.869 103.033 167.596 103.25C166.514 104.087 165.042 104.129 163.686 104.307C161.976 104.532 160.02 105.256 160.064 107.377C160.089 107.884 160.218 108.38 160.444 108.835C160.67 109.29 160.987 109.693 161.376 110.019C168.596 116.337 177.045 121.094 186.192 123.991C188.224 124.633 190.507 125.165 192.419 124.223C194.33 123.281 195.15 120.2 193.363 119.04Z" fill="#6C63FF"/>
<path d="M235.724 220L170.724 219L168.724 204L174.724 170H225.724L235.724 220Z" fill="#FFB6B6"/>
<path d="M168.724 203L166.724 230L128.992 297.592C127.179 300.601 126.384 304.115 126.724 307.611C127.064 311.108 128.521 314.402 130.879 317.006L190.051 370.623C190.051 370.623 201.684 371.004 200.704 376.502C199.724 382 205.941 381.739 205.941 381.739L212.938 386.794L216.724 358C204.002 329.594 185.137 320.929 168.724 307.825C168.724 307.825 175.645 305.767 174.185 303.384C172.724 301 177.31 300.842 177.31 300.842C177.31 300.842 180.353 300.431 180.539 298.216C180.724 296 183.675 295.665 183.675 295.665L200.23 279L243.724 277C243.724 277 262.13 230.89 231.724 201L168.724 203Z" fill="#2F2E41"/>
<path d="M200.327 266.478L214.724 438L235.929 436.716L243.724 277L200.327 266.478Z" fill="#2F2E41"/>
<path d="M201.361 61.8957L225.634 60.6453L236.909 78.4601C236.909 78.4601 258.122 82.0066 256.651 107.004C255.181 132 230.841 153.935 230.841 153.935L231.882 166.953L230.075 172.116L230.307 175.015L232.772 178.085L233.025 181.26L230.841 186.284L231.724 193C231.724 193 209.762 197.36 198.243 188.68C186.724 180 169.724 185 169.724 185L169.084 176.727L172.415 172.26L170.555 166.434L173.352 160.83L174.811 143.03C174.811 143.03 158.853 119.057 177.172 101.001L184.524 88.5023L192.75 78.4658L201.361 61.8957Z" fill="#6C63FF"/>
<path d="M260.883 170.305L259.096 107.59C259.013 104.933 257.888 102.416 255.965 100.581C254.042 98.7465 251.474 97.7414 248.816 97.783C247.441 97.8045 246.085 98.1058 244.83 98.6685C243.576 99.2312 242.449 100.044 241.518 101.056C240.588 102.068 239.873 103.26 239.418 104.557C238.963 105.855 238.777 107.232 238.872 108.604L242.724 173.692L243.398 213.34C241.739 214.075 240.346 215.302 239.408 216.856C238.471 218.41 238.035 220.214 238.159 222.025C238.283 223.835 238.961 225.563 240.101 226.975C241.242 228.386 242.789 229.412 244.533 229.914C246.277 230.415 248.133 230.368 249.849 229.778C251.565 229.188 253.058 228.084 254.124 226.615C255.191 225.147 255.78 223.387 255.811 221.572C255.842 219.758 255.314 217.978 254.298 216.474L260.883 170.305Z" fill="#FFB6B6"/>
<path d="M265.223 120.205C265.682 119.739 265.975 119.136 266.057 118.487C266.14 117.838 266.007 117.181 265.68 116.615C265.289 115.909 265.128 115.098 265.22 114.296C265.239 114.142 265.269 113.988 265.309 113.837C265.57 112.934 265.609 111.981 265.423 111.059C265.236 110.137 264.83 109.274 264.239 108.542C262.258 106.163 261.302 102.562 260.888 99.3515C260.435 95.8385 260.166 92.2481 258.885 88.9455C257.038 84.1816 252.623 79.936 246.597 81.9679C244.048 82.8719 241.888 84.6271 240.482 86.9376C237.477 91.7293 237.445 97.5229 237.466 103.066L236.386 100.876C236.515 106.929 235.421 112.947 233.168 118.567C234.511 118.306 235.461 120.111 235.027 121.408C234.593 122.706 233.393 123.558 232.365 124.461C231.069 125.599 229.845 127.288 231.061 129.027C231.364 129.434 231.747 129.775 232.188 130.027C232.628 130.28 233.116 130.438 233.621 130.493C243.135 131.73 252.803 130.986 262.016 128.307C264.062 127.711 266.255 126.883 267.32 125.038C268.385 123.192 267.354 120.176 265.223 120.205Z" fill="#6C63FF"/>
<path d="M214.724 57C227.427 57 237.724 46.7025 237.724 34C237.724 21.2975 227.427 11 214.724 11C202.022 11 191.724 21.2975 191.724 34C191.724 46.7025 202.022 57 214.724 57Z" fill="#FFB6B6"/>
<path d="M243.724 28.0001V33.0001H223.824C224.026 32.0348 224.027 31.0382 223.825 30.0728C223.624 29.1074 223.225 28.1941 222.654 27.3901C222.638 29.3469 222.151 31.2711 221.234 33.0001C209.727 36.4027 200.069 36.3375 192.155 33.0001C190.98 33.0001 189.853 32.5332 189.022 31.7023C188.191 30.8713 187.724 29.7443 187.724 28.5692C187.724 13.2394 199.808 0.322083 215.135 0.006153C218.861 -0.0727446 222.565 0.593044 226.03 1.96447C229.495 3.33589 232.652 5.38535 235.315 7.99268C237.977 10.6 240.093 13.7127 241.537 17.1483C242.981 20.584 243.725 24.2733 243.724 28.0001V28.0001Z" fill="#2F2E41"/>
<path d="M116.605 263.526H10.3947C4.66297 263.526 0 259.834 0 255.296V172.23C0 167.692 4.66297 164 10.3947 164H116.605C122.337 164 127 167.692 127 172.23V255.296C127 259.834 122.337 263.526 116.605 263.526Z" fill="#E6E6E6"/>
<path d="M30.1745 166.452C15.22 166.452 3.09708 176.05 3.09708 187.89V253.533C3.09708 257.698 7.36093 261.074 12.6206 261.074H77.5655C103.157 261.074 123.903 244.648 123.903 224.386V173.992C123.903 169.828 119.639 166.452 114.379 166.452H30.1745V166.452Z" fill="white"/>
<path d="M24.9227 221H22.1227L15.7827 211.42V221H12.9827V207.02H15.7827L22.1227 216.62V207.02H24.9227V221ZM32.6097 221.18C31.543 221.18 30.583 220.947 29.7297 220.48C28.8764 220 28.203 219.327 27.7097 218.46C27.2297 217.593 26.9897 216.593 26.9897 215.46C26.9897 214.327 27.2364 213.327 27.7297 212.46C28.2364 211.593 28.923 210.927 29.7897 210.46C30.6564 209.98 31.623 209.74 32.6897 209.74C33.7564 209.74 34.723 209.98 35.5897 210.46C36.4564 210.927 37.1364 211.593 37.6297 212.46C38.1364 213.327 38.3897 214.327 38.3897 215.46C38.3897 216.593 38.1297 217.593 37.6097 218.46C37.103 219.327 36.4097 220 35.5297 220.48C34.663 220.947 33.6897 221.18 32.6097 221.18ZM32.6097 218.74C33.1164 218.74 33.5897 218.62 34.0297 218.38C34.483 218.127 34.843 217.753 35.1097 217.26C35.3764 216.767 35.5097 216.167 35.5097 215.46C35.5097 214.407 35.2297 213.6 34.6697 213.04C34.123 212.467 33.4497 212.18 32.6497 212.18C31.8497 212.18 31.1764 212.467 30.6297 213.04C30.0964 213.6 29.8297 214.407 29.8297 215.46C29.8297 216.513 30.0897 217.327 30.6097 217.9C31.143 218.46 31.8097 218.74 32.6097 218.74ZM56.7892 207.04V221H53.9892V215.06H48.0092V221H45.2092V207.04H48.0092V212.78H53.9892V207.04H56.7892ZM60.9652 208.6C60.4718 208.6 60.0585 208.447 59.7252 208.14C59.4052 207.82 59.2452 207.427 59.2452 206.96C59.2452 206.493 59.4052 206.107 59.7252 205.8C60.0585 205.48 60.4718 205.32 60.9652 205.32C61.4585 205.32 61.8652 205.48 62.1852 205.8C62.5185 206.107 62.6852 206.493 62.6852 206.96C62.6852 207.427 62.5185 207.82 62.1852 208.14C61.8652 208.447 61.4585 208.6 60.9652 208.6ZM62.3452 209.92V221H59.5452V209.92H62.3452ZM69.3516 221.18C68.4449 221.18 67.6316 221.02 66.9116 220.7C66.1916 220.367 65.6183 219.92 65.1916 219.36C64.7783 218.8 64.5516 218.18 64.5116 217.5H67.3316C67.3849 217.927 67.5916 218.28 67.9516 218.56C68.3249 218.84 68.7849 218.98 69.3316 218.98C69.8649 218.98 70.2783 218.873 70.5716 218.66C70.8783 218.447 71.0316 218.173 71.0316 217.84C71.0316 217.48 70.8449 217.213 70.4716 217.04C70.1116 216.853 69.5316 216.653 68.7316 216.44C67.9049 216.24 67.2249 216.033 66.6916 215.82C66.1716 215.607 65.7183 215.28 65.3316 214.84C64.9583 214.4 64.7716 213.807 64.7716 213.06C64.7716 212.447 64.9449 211.887 65.2916 211.38C65.6516 210.873 66.1583 210.473 66.8116 210.18C67.4783 209.887 68.2583 209.74 69.1516 209.74C70.4716 209.74 71.5249 210.073 72.3116 210.74C73.0983 211.393 73.5316 212.28 73.6116 213.4H70.9316C70.8916 212.96 70.7049 212.613 70.3716 212.36C70.0516 212.093 69.6183 211.96 69.0716 211.96C68.5649 211.96 68.1716 212.053 67.8916 212.24C67.6249 212.427 67.4916 212.687 67.4916 213.02C67.4916 213.393 67.6783 213.68 68.0516 213.88C68.4249 214.067 69.0049 214.26 69.7916 214.46C70.5916 214.66 71.2516 214.867 71.7716 215.08C72.2916 215.293 72.7383 215.627 73.1116 216.08C73.4983 216.52 73.6983 217.107 73.7116 217.84C73.7116 218.48 73.5316 219.053 73.1716 219.56C72.8249 220.067 72.3183 220.467 71.6516 220.76C70.9983 221.04 70.2316 221.18 69.3516 221.18ZM79.27 212.22V217.58C79.27 217.953 79.3567 218.227 79.53 218.4C79.7167 218.56 80.0234 218.64 80.45 218.64H81.75V221H79.99C77.63 221 76.45 219.853 76.45 217.56V212.22H75.13V209.92H76.45V207.18H79.27V209.92H81.75V212.22H79.27ZM88.6839 221.18C87.6173 221.18 86.6573 220.947 85.8039 220.48C84.9506 220 84.2773 219.327 83.7839 218.46C83.3039 217.593 83.0639 216.593 83.0639 215.46C83.0639 214.327 83.3106 213.327 83.8039 212.46C84.3106 211.593 84.9973 210.927 85.8639 210.46C86.7306 209.98 87.6973 209.74 88.7639 209.74C89.8306 209.74 90.7973 209.98 91.6639 210.46C92.5306 210.927 93.2106 211.593 93.7039 212.46C94.2106 213.327 94.4639 214.327 94.4639 215.46C94.4639 216.593 94.2039 217.593 93.6839 218.46C93.1773 219.327 92.4839 220 91.6039 220.48C90.7373 220.947 89.7639 221.18 88.6839 221.18ZM88.6839 218.74C89.1906 218.74 89.6639 218.62 90.1039 218.38C90.5573 218.127 90.9173 217.753 91.1839 217.26C91.4506 216.767 91.5839 216.167 91.5839 215.46C91.5839 214.407 91.3039 213.6 90.7439 213.04C90.1973 212.467 89.5239 212.18 88.7239 212.18C87.9239 212.18 87.2506 212.467 86.7039 213.04C86.1706 213.6 85.9039 214.407 85.9039 215.46C85.9039 216.513 86.1639 217.327 86.6839 217.9C87.2173 218.46 87.8839 218.74 88.6839 218.74ZM99.3178 211.64C99.6778 211.053 100.144 210.593 100.718 210.26C101.304 209.927 101.971 209.76 102.718 209.76V212.7H101.978C101.098 212.7 100.431 212.907 99.9778 213.32C99.5378 213.733 99.3178 214.453 99.3178 215.48V221H96.5178V209.92H99.3178V211.64ZM115.204 209.92L108.344 226.24H105.364L107.764 220.72L103.324 209.92H106.464L109.324 217.66L112.224 209.92H115.204Z" fill="#2F2E41"/>
</svg>
