<svg width="313" height="85" viewBox="0 0 313 85" fill="none" xmlns="http://www.w3.org/2000/svg">
<mask id="path-1-inside-1_106_57" fill="white">
<path d="M111.375 16.3338C111.409 14.6773 110.091 13.2933 108.438 13.401C100.241 13.9351 92.4549 17.3412 86.4816 23.073C79.7838 29.4999 75.9134 38.3243 75.7219 47.6049C75.5304 56.8855 79.0334 65.8621 85.4604 72.5599C91.1921 78.5331 98.8306 82.2576 106.999 83.1293C108.647 83.3052 110.02 81.9767 110.054 80.3202L110.183 74.0715C110.217 72.415 108.896 71.0647 107.258 70.8131C102.343 70.0577 97.7803 67.7061 94.2993 64.0784C90.1218 59.7248 87.8448 53.89 87.9693 47.8577C88.0938 41.8253 90.6095 36.0894 94.9631 31.9119C98.5908 28.4309 103.247 26.2695 108.189 25.7176C109.836 25.5337 111.212 24.239 111.246 22.5825L111.375 16.3338Z"/>
</mask>
<path d="M111.375 16.3338C111.409 14.6773 110.091 13.2933 108.438 13.401C100.241 13.9351 92.4549 17.3412 86.4816 23.073C79.7838 29.4999 75.9134 38.3243 75.7219 47.6049C75.5304 56.8855 79.0334 65.8621 85.4604 72.5599C91.1921 78.5331 98.8306 82.2576 106.999 83.1293C108.647 83.3052 110.02 81.9767 110.054 80.3202L110.183 74.0715C110.217 72.415 108.896 71.0647 107.258 70.8131C102.343 70.0577 97.7803 67.7061 94.2993 64.0784C90.1218 59.7248 87.8448 53.89 87.9693 47.8577C88.0938 41.8253 90.6095 36.0894 94.9631 31.9119C98.5908 28.4309 103.247 26.2695 108.189 25.7176C109.836 25.5337 111.212 24.239 111.246 22.5825L111.375 16.3338Z" stroke="#1C9BEF" stroke-width="18" mask="url(#path-1-inside-1_106_57)"/>
<mask id="path-2-inside-2_106_57" fill="#e2e2e2">
<path d="M141.96 30.1292C143.318 29.1795 143.658 27.2993 142.595 26.028C139.708 22.5732 136.174 19.7004 132.183 17.5761C128.192 15.4518 123.836 14.1253 119.357 13.6597C117.709 13.4883 116.34 14.8206 116.31 16.4772L116.199 22.7262C116.17 24.3828 117.495 25.7296 119.133 25.9768C121.677 26.3606 124.145 27.1743 126.429 28.3898C128.712 29.6053 130.765 31.1979 132.505 33.0936C133.625 34.3146 135.482 34.6616 136.839 33.7119L141.96 30.1292Z"/>
</mask>
<path d="M141.96 30.1292C143.318 29.1795 143.658 27.2993 142.595 26.028C139.708 22.5732 136.174 19.7004 132.183 17.5761C128.192 15.4518 123.836 14.1253 119.357 13.6597C117.709 13.4883 116.34 14.8206 116.31 16.4772L116.199 22.7262C116.17 24.3828 117.495 25.7296 119.133 25.9768C121.677 26.3606 124.145 27.1743 126.429 28.3898C128.712 29.6053 130.765 31.1979 132.505 33.0936C133.625 34.3146 135.482 34.6616 136.839 33.7119L141.96 30.1292Z" fill="#D9D9D9" stroke="white" stroke-width="18" mask="url(#path-2-inside-2_106_57)"/>
<mask id="path-3-inside-3_106_57" fill="#e2e2e2">
<path d="M114.367 80.7059C114.346 82.3625 115.675 83.7355 117.327 83.6141C121.818 83.2844 126.213 82.0906 130.266 80.0882C134.32 78.0859 137.939 75.3217 140.93 71.9562C142.03 70.7177 141.747 68.8282 140.419 67.8378L135.408 64.1019C134.08 63.1116 132.213 63.4021 131.056 64.5886C129.261 66.4306 127.16 67.9602 124.841 69.1059C122.521 70.2516 120.03 70.9901 117.475 71.2967C115.83 71.4942 114.465 72.8001 114.444 74.4567L114.367 80.7059Z"/>
</mask>
<path d="M114.367 80.7059C114.346 82.3625 115.675 83.7355 117.327 83.6141C121.818 83.2844 126.213 82.0906 130.266 80.0882C134.32 78.0859 137.939 75.3217 140.93 71.9562C142.03 70.7177 141.747 68.8282 140.419 67.8378L135.408 64.1019C134.08 63.1116 132.213 63.4021 131.056 64.5886C129.261 66.4306 127.16 67.9602 124.841 69.1059C122.521 70.2516 120.03 70.9901 117.475 71.2967C115.83 71.4942 114.465 72.8001 114.444 74.4567L114.367 80.7059Z" fill="#D9D9D9" stroke="white" stroke-width="18" mask="url(#path-3-inside-3_106_57)"/>
<rect x="166" y="45" width="11" height="40" rx="3" fill="#1C9BEF"/>
<rect x="174" y="45" width="33" height="11" fill="#1C9BEF"/>
<rect x="166" y="16.612" width="11" height="22" rx="3" fill="#e2e2e2"/>
<rect x="204" y="17" width="11" height="39" rx="3" fill="#1C9BEF"/>
<rect x="204" y="62" width="11" height="22" rx="3" fill="#e2e2e2"/>
<mask id="path-9-inside-4_106_57" fill="white">
<path d="M273.936 15.8951C273.971 14.2386 272.653 12.8546 271 12.9623C262.802 13.4963 255.017 16.9025 249.043 22.6342C242.346 29.0611 238.475 37.8855 238.284 47.1661C238.092 56.4467 241.595 65.4233 248.022 72.1211C253.754 78.0944 261.392 81.8188 269.561 82.6906C271.208 82.8664 272.582 81.5379 272.616 79.8814L272.745 73.6328C272.779 71.9763 271.458 70.6259 269.82 70.3743C264.905 69.6189 260.342 67.2673 256.861 63.6396C252.684 59.286 250.407 53.4513 250.531 47.4189C250.655 41.3865 253.171 35.6506 257.525 31.4731C261.153 27.9921 265.809 25.8307 270.751 25.2788C272.397 25.0949 273.773 23.8002 273.807 22.1437L273.936 15.8951Z"/>
</mask>
<path d="M273.936 15.8951C273.971 14.2386 272.653 12.8546 271 12.9623C262.802 13.4963 255.017 16.9025 249.043 22.6342C242.346 29.0611 238.475 37.8855 238.284 47.1661C238.092 56.4467 241.595 65.4233 248.022 72.1211C253.754 78.0944 261.392 81.8188 269.561 82.6906C271.208 82.8664 272.582 81.5379 272.616 79.8814L272.745 73.6328C272.779 71.9763 271.458 70.6259 269.82 70.3743C264.905 69.6189 260.342 67.2673 256.861 63.6396C252.684 59.286 250.407 53.4513 250.531 47.4189C250.655 41.3865 253.171 35.6506 257.525 31.4731C261.153 27.9921 265.809 25.8307 270.751 25.2788C272.397 25.0949 273.773 23.8002 273.807 22.1437L273.936 15.8951Z" stroke="#1C9BEF" stroke-width="18" mask="url(#path-9-inside-4_106_57)"/>
<mask id="path-10-inside-5_106_57" fill="white">
<path d="M277.187 80.4521C277.152 82.1086 278.47 83.4925 280.123 83.3848C288.321 82.8508 296.106 79.4447 302.08 73.7129C308.778 67.286 312.648 58.4616 312.839 49.181C313.031 39.9004 309.528 30.9238 303.101 24.226C297.369 18.2527 289.731 14.5283 281.562 13.6565C279.915 13.4807 278.541 14.8092 278.507 16.4657L278.378 22.7143C278.344 24.3709 279.665 25.7212 281.303 25.9728C286.218 26.7282 290.781 29.0798 294.262 32.7075C298.44 37.0611 300.716 42.8958 300.592 48.9282C300.468 54.9606 297.952 60.6965 293.598 64.874C289.971 68.355 285.314 70.5164 280.372 71.0683C278.726 71.2522 277.35 72.5469 277.316 74.2034L277.187 80.4521Z"/>
</mask>
<path d="M277.187 80.4521C277.152 82.1086 278.47 83.4925 280.123 83.3848C288.321 82.8508 296.106 79.4447 302.08 73.7129C308.778 67.286 312.648 58.4616 312.839 49.181C313.031 39.9004 309.528 30.9238 303.101 24.226C297.369 18.2527 289.731 14.5283 281.562 13.6565C279.915 13.4807 278.541 14.8092 278.507 16.4657L278.378 22.7143C278.344 24.3709 279.665 25.7212 281.303 25.9728C286.218 26.7282 290.781 29.0798 294.262 32.7075C298.44 37.0611 300.716 42.8958 300.592 48.9282C300.468 54.9606 297.952 60.6965 293.598 64.874C289.971 68.355 285.314 70.5164 280.372 71.0683C278.726 71.2522 277.35 72.5469 277.316 74.2034L277.187 80.4521Z" stroke="#1C9BEF" stroke-width="18" mask="url(#path-10-inside-5_106_57)"/>
<path d="M47 16H3C1.34315 16 0 17.3431 0 19V24C0 25.6569 1.34315 27 3 27H47C48.6569 27 50 25.6569 50 24V19C50 17.3431 48.6569 16 47 16Z" fill="#1C9BEF"/>
<path d="M38 45H3C1.34315 45 0 46.3431 0 48V53C0 54.6569 1.34315 56 3 56H38C39.6569 56 41 54.6569 41 53V48C41 46.3431 39.6569 45 38 45Z" fill="#1C9BEF"/>
<path d="M47 72H3C1.34315 72 0 73.3431 0 75V79.0833C0 80.7402 1.34315 82.0833 3 82.0833H47C48.6569 82.0833 50 80.7402 50 79.0833V75C50 73.3431 48.6569 72 47 72Z" fill="#1C9BEF"/>
</svg>
